<?xml version="1.0" encoding="UTF-8"?>
<svg id="Layer_2" data-name="Layer 2" xmlns="http://www.w3.org/2000/svg" viewBox="0 0 76.47 56.52">
  <defs>
    <style>
      .cls-1 {
        fill: #fff;
      }
    </style>
  </defs>
  <g id="Layer_1-2" data-name="Layer 1">
    <path class="cls-1" d="m47.42,17.17c0-3.16-.01-6.31.01-9.47,0-.5-.13-.73-.63-.88-7.32-2.19-14.64-4.41-21.96-6.62-.66-.2-1.27-.3-1.99-.08C15.42,2.39,7.98,4.62.54,6.85.04,7,0,7.29,0,7.72c.01,5.67-.02,11.34.03,17.01.01,1.47.14,2.96.41,4.4.93,5.05,3.26,9.47,6.35,13.5,4.46,5.82,10.06,10.31,16.48,13.79.24.13.69.13.91,0,2.51-1.59,5.1-3.09,7.47-4.88,5.2-3.91,9.49-8.65,12.53-14.45,2.15-4.1,3.34-8.44,3.25-13.1-.05-2.27,0-4.54,0-6.8Zm-2.39,7.24c.09,4.19-.99,8.09-2.92,11.78-2.73,5.22-6.59,9.48-11.26,12.99-2.13,1.6-4.46,2.95-6.72,4.39-.2.13-.6.12-.81,0-5.77-3.13-10.8-7.17-14.81-12.4-2.78-3.62-4.87-7.6-5.71-12.13-.24-1.3-.36-2.64-.37-3.96-.04-5.1-.01-10.19-.02-15.29,0-.39.04-.65.48-.78,6.69-2,13.38-4,20.05-6.05.65-.2,1.2-.1,1.79.08,6.58,1.99,13.15,3.98,19.74,5.95.45.13.57.34.56.79-.02,2.84-.01,5.67-.01,8.51,0,2.04-.03,4.08,0,6.11Z"/>
    <path class="cls-1" d="m42.24,19.31c0-2.47,0-4.93,0-7.4,0-.39-.1-.57-.49-.69-5.72-1.71-11.44-3.45-17.16-5.17-.51-.16-1-.24-1.56-.07-5.81,1.77-11.62,3.52-17.44,5.26-.39.12-.42.34-.42.68,0,4.43-.02,8.86.02,13.29,0,1.15.11,2.31.32,3.44.73,3.94,2.55,7.4,4.96,10.55,3.49,4.55,7.86,8.05,12.88,10.78.19.1.54.1.71,0,1.96-1.25,3.99-2.42,5.84-3.81,4.06-3.06,7.42-6.76,9.79-11.3,1.68-3.21,2.61-6.6,2.54-10.24-.04-1.77,0-3.54,0-5.32Zm-18.95,26.21c-.15.08-.42.08-.56,0-1.55-1.02-3.16-1.98-4.62-3.12-3.22-2.5-5.87-5.54-7.75-9.25-1.33-2.63-2.07-5.4-2.01-8.39.03-1.45,0-2.9,0-4.35,0-2.02,0-4.04,0-6.06,0-.32.08-.47.39-.56,4.53-1.4,9.06-2.82,13.59-4.24.41-.13.79-.19,1.23-.05,0,7.7-.26,26.7-.26,36.03Z"/>
    <g>
      <path class="cls-1" d="m73.11,9.84h-22.4c0,1.47,0,2.94,0,4.41h6.1c.89,0,1.61.72,1.61,1.61v.24c0,.89-.72,1.61-1.61,1.61h-6.1c0,.59,0,1.19,0,1.78,0,.87,0,1.75,0,2.63h22.42c1.85,0,3.36-1.5,3.36-3.36v-5.56c0-1.85-1.5-3.36-3.36-3.36Zm-7.76,8.14c-1.11,0-2-.9-2-2s.9-2,2-2,2,.9,2,2-.9,2-2,2Zm6.01,0c-1.11,0-2-.9-2-2s.9-2,2-2,2,.9,2,2-.9,2-2,2Z"/>
      <path class="cls-1" d="m73.11,25.44h-22.42c-.04,1.47-.2,2.95-.48,4.41h6.58c.89,0,1.61.72,1.61,1.61v.24c0,.89-.72,1.61-1.61,1.61h-7.45c-.47,1.48-1.08,2.95-1.79,4.41h25.55c1.85,0,3.36-1.5,3.36-3.36v-5.56c0-1.85-1.5-3.36-3.36-3.36Zm-7.76,8.14c-1.11,0-2-.9-2-2s.9-2,2-2,2,.9,2,2-.9,2-2,2Zm6.01,0c-1.11,0-2-.9-2-2s.9-2,2-2,2,.9,2,2-.9,2-2,2Z"/>
      <path class="cls-1" d="m73.11,40.86h-27.27c-.92,1.52-1.95,2.99-3.07,4.41h14.03c.89,0,1.61.72,1.61,1.61v.24c0,.89-.72,1.61-1.61,1.61h-16.77c-.08,0-.17-.01-.25-.02-1.51,1.56-3.16,3.03-4.93,4.44h38.25c1.85,0,3.36-1.5,3.36-3.36v-5.56c0-1.85-1.5-3.36-3.36-3.36Zm-7.76,8.14c-1.11,0-2-.9-2-2s.9-2,2-2,2,.9,2,2-.9,2-2,2Zm6.01,0c-1.11,0-2-.9-2-2s.9-2,2-2,2,.9,2,2-.9,2-2,2Z"/>
    </g>
  </g>
</svg>