<?xml version="1.0" encoding="UTF-8"?>
<svg id="Layer_2" data-name="Layer 2" xmlns="http://www.w3.org/2000/svg" viewBox="0 0 64.08 64.45">
  <defs>
    <style>
      .cls-1 {
        fill: #fff;
      }
    </style>
  </defs>
  <g id="Layer_1-2" data-name="Layer 1">
    <path class="cls-1" d="m27.89,27.73s0-.19,0-.45c0-.13,0-.29,0-.47,0-.54,0-1.27.01-2.09.02-2.72.03-6.35.03-6.75,0-1.18.54-1.29,1.26-.93,1,.5,1.88.86,2.96.85.75,0,1.77-.26,2.34-.76.23-.2.42-.4.6-.59.04-.04.07-.08.11-.12.16-.19.31-.38.43-.57.02-.03.04-.07.06-.1.11-.18.2-.36.28-.53,0-.02.02-.04.03-.06.08-.19.13-.38.17-.56,0-.04.02-.08.02-.12.03-.19.05-.37.05-.56,0-.04,0-.08,0-.12,0-.15-.02-.31-.05-.47-.01-.06-.03-.13-.04-.19-.03-.14-.07-.28-.12-.42-.02-.06-.04-.12-.06-.18-.07-.19-.15-.39-.25-.59-.74-1.5-2.7-2.48-4.72-2.08-.73.14-1.88.81-1.97.85-.3.13-.67.22-.91-.01-.14-.14-.24-.4-.24-.85,0-.66.05-5.96.05-9.86-1.93,0-19.48,0-25.58,0C1.17,0,.2.98.2,2.18l-.09,25.44c1.92,0,9.03.07,9.82.07.09,0,.18-.02.27-.04.02,0,.04-.01.06-.02.08-.03.16-.07.23-.12.01,0,.02-.02.03-.03.06-.05.11-.11.15-.17,0-.01.02-.03.03-.04.04-.07.06-.16.06-.25,0-.04,0-.08,0-.12,0-.02,0-.04,0-.06-.02-.07-.04-.14-.08-.21-.16-.31-.25-.69-.4-1.01-.12-.26-.21-.55-.28-.86-.02-.1-.03-.21-.04-.31-.03-.21-.06-.43-.06-.65,0-.03,0-.07,0-.1,0-.16.02-.32.04-.48,0-.1,0-.2.02-.29.04-.3.11-.6.2-.88.2-.6.62-1.04,1.05-1.48.45-.47.99-.77,1.6-.96,1.16-.36,2.3-.24,3.31.38,1.16.72,1.91,1.77,2.02,3.2.01.16.02.32.02.47,0,.06,0,.12-.01.18,0,.09,0,.19-.02.28-.01.15-.03.3-.06.45-.02.09-.03.18-.05.27-.04.16-.08.31-.14.47-.02.07-.04.15-.07.22-.09.22-.19.45-.31.67-.1.19-.18.39-.27.58-.04.08-.05.18-.05.27,0,.02,0,.05.01.07,0,.07.02.14.05.2.01.03.02.05.04.08.03.06.07.11.11.15.02.02.03.04.05.06.06.05.14.09.22.09.28,0,3.44.02,6.18.04.61,0,1.2,0,1.73.01.27,0,.52,0,.75,0,.93,0,1.56,0,1.59,0Zm-1.4-1.42c-1.5,0-3.91-.02-5.71-.04-.65,0-1.25,0-1.75-.01.36-.82.54-1.7.54-2.62,0-.19,0-.39-.02-.59-.15-1.81-1.08-3.29-2.69-4.29-1.35-.83-2.9-1.01-4.48-.52-.87.27-1.61.72-2.2,1.33-.49.5-1.09,1.12-1.38,2.03-.21.66-.33,1.39-.33,2.1,0,.92.18,1.79.53,2.53,0,.01.01.03.02.05-.5,0-1.15,0-1.88-.02-1.78-.01-4.03-.03-5.6-.04l.08-24.03c0-.42.34-.76.75-.76h.39c5.59,0,19.13,0,23.77,0,0,2.45-.03,5.14-.04,6.82,0,.84-.01,1.43-.01,1.62,0,1.22.52,1.81.95,2.1.42.28,1.14.51,2.17.07.03-.01.11-.05.23-.12.91-.49,1.3-.61,1.45-.64,1.44-.28,2.75.45,3.18,1.31.26.52.38.97.38,1.37,0,.43-.13,1.13-1.26,2.12-.22.19-.85.41-1.41.41-.76,0-1.4-.24-2.32-.7-1.08-.54-1.84-.32-2.29-.04-.68.42-1.02,1.17-1.02,2.24,0,.6-.03,5.8-.05,8.34Z"/>
    <path class="cls-1" d="m39.05,39.22h4.11s-.42,8.23,7.55,8.23c2.66,0,6.28-2.14,6.28-8h4.16c0,5.23,0,16.63,0,22.07-.91,0-11.85-4.26-16.55-9.38-2.22-2.41-3.33-4.31-4.21-6.18-1.47-3.13-1.35-6.5-1.35-6.74Z"/>
    <path class="cls-1" d="m24.73,39.6v4.11s-8.23-.42-8.23,7.55c0,2.66,2.14,6.28,8,6.28v4.16c-5.23,0-16.63,0-22.07,0,0-.91,4.26-11.85,9.38-16.55,2.41-2.22,4.31-3.33,6.18-4.21,3.13-1.47,6.5-1.35,6.74-1.35Z"/>
    <path class="cls-1" d="m36.3,36.57s0,.19,0,.45c0,.13,0,.29,0,.47,0,.54,0,1.27-.01,2.09-.02,2.72-.03,6.35-.03,6.75,0,1.18-.54,1.29-1.26.93-1-.5-1.88-.86-2.96-.85-.75,0-1.77.26-2.34.76-.23.2-.42.4-.6.59-.04.04-.07.08-.11.12-.16.19-.31.38-.43.57-.02.03-.04.07-.06.1-.11.18-.2.36-.28.53,0,.02-.02.04-.03.06-.08.19-.13.38-.17.56,0,.04-.02.08-.02.12-.03.19-.05.37-.05.56,0,.04,0,.08,0,.12,0,.15.02.31.05.47.01.06.03.13.04.19.03.14.07.28.12.42.02.06.04.12.06.18.07.19.15.39.25.59.74,1.5,2.7,2.48,4.72,2.08.73-.14,1.88-.81,1.97-.85.3-.13.67-.22.91.01.14.14.24.4.24.85,0,.66-.05,5.96-.05,9.86,1.93,0,19.48,0,25.58,0,1.2,0,2.17-.97,2.17-2.17l.09-25.44c-1.92,0-9.03-.07-9.82-.07-.09,0-.18.02-.27.04-.02,0-.04.01-.06.02-.08.03-.16.07-.23.12-.01,0-.02.02-.03.03-.06.05-.11.11-.15.17,0,.01-.02.03-.03.04-.04.07-.06.16-.06.25,0,.04,0,.08,0,.12,0,.02,0,.04,0,.06.02.07.04.14.08.21.16.31.25.69.4,1.01.12.26.21.55.28.86.02.1.03.21.04.31.03.21.06.43.06.65,0,.03,0,.07,0,.1,0,.16-.02.32-.04.48,0,.1,0,.2-.02.29-.04.3-.11.6-.2.88-.2.6-.62,1.04-1.05,1.48-.45.47-.99.77-1.6.96-1.16.36-2.3.24-3.31-.38-1.16-.72-1.91-1.77-2.02-3.2-.01-.16-.02-.32-.02-.47,0-.06,0-.12.01-.18,0-.09,0-.19.02-.28.01-.15.03-.3.06-.45.02-.09.03-.18.05-.27.04-.16.08-.31.14-.47.02-.07.04-.15.07-.22.09-.22.19-.45.31-.67.1-.19.18-.39.27-.58.04-.08.05-.18.05-.27,0-.02,0-.05-.01-.07,0-.07-.02-.14-.05-.2-.01-.03-.02-.05-.04-.08-.03-.06-.07-.11-.11-.15-.02-.02-.03-.04-.05-.06-.06-.05-.14-.09-.22-.09-.28,0-3.44-.02-6.18-.04-.61,0-1.2,0-1.73-.01-.27,0-.52,0-.75,0-.93,0-1.56,0-1.59,0Zm1.4,1.42c1.5,0,3.91.02,5.71.04.65,0,1.25,0,1.75.01-.36.82-.54,1.7-.54,2.62,0,.19,0,.39.02.59.15,1.81,1.08,3.29,2.69,4.29,1.35.83,2.9,1.01,4.48.52.87-.27,1.61-.72,2.2-1.33.49-.5,1.09-1.12,1.38-2.03.21-.66.33-1.39.33-2.1,0-.92-.18-1.79-.53-2.53,0-.01-.01-.03-.02-.05.5,0,1.15,0,1.88.02,1.78.01,4.03.03,5.6.04l-.08,24.03c0,.42-.34.76-.75.76h-.39c-5.59,0-19.13,0-23.77,0,0-2.45.03-5.14.04-6.82,0-.84.01-1.43.01-1.62,0-1.22-.52-1.81-.95-2.1-.42-.28-1.14-.51-2.17-.07-.03.01-.11.05-.23.12-.91.49-1.3.61-1.45.64-1.44.28-2.75-.45-3.18-1.31-.26-.52-.38-.97-.38-1.37,0-.43.13-1.13,1.26-2.12.22-.19.85-.41,1.41-.41.76,0,1.4.24,2.32.7,1.08.54,1.84.32,2.29.04.68-.42,1.02-1.17,1.02-2.24,0-.6.03-5.8.05-8.34Z"/>
    <path class="cls-1" d="m27.73,36.67s-.19,0-.45,0c-.13,0-.29,0-.47,0-.54,0-1.27,0-2.09-.01-2.72-.02-6.35-.03-6.75-.03-1.18,0-1.29-.54-.93-1.26.5-1,.86-1.88.85-2.96,0-.75-.26-1.77-.76-2.34-.2-.23-.4-.42-.59-.6-.04-.04-.08-.07-.12-.11-.19-.16-.38-.31-.57-.43-.03-.02-.07-.04-.1-.06-.18-.11-.36-.2-.53-.28-.02,0-.04-.02-.06-.03-.19-.08-.38-.13-.56-.17-.04,0-.08-.02-.12-.02-.19-.03-.37-.05-.56-.05-.04,0-.08,0-.12,0-.15,0-.31.02-.47.05-.06.01-.13.03-.19.04-.14.03-.28.07-.42.12-.06.02-.12.04-.18.06-.19.07-.39.15-.59.25-1.5.74-2.48,2.7-2.08,4.72.14.73.81,1.88.85,1.97.13.3.22.67-.01.91-.14.14-.4.24-.85.24-.66,0-5.96-.05-9.86-.05,0,1.93,0,19.48,0,25.58,0,1.2.97,2.17,2.17,2.17l25.44.09c0-1.92.07-9.03.07-9.82,0-.09-.02-.18-.04-.27,0-.02-.01-.04-.02-.06-.03-.08-.07-.16-.12-.23,0-.01-.02-.02-.03-.03-.05-.06-.11-.11-.17-.15-.01,0-.03-.02-.04-.03-.07-.04-.16-.06-.25-.06-.04,0-.08,0-.12,0-.02,0-.04,0-.06,0-.07.02-.14.04-.21.08-.31.16-.69.25-1.01.4-.26.12-.55.21-.86.28-.1.02-.21.03-.31.04-.21.03-.43.06-.65.06-.03,0-.07,0-.1,0-.16,0-.32-.02-.48-.04-.1,0-.2,0-.29-.02-.3-.04-.6-.11-.88-.2-.6-.2-1.04-.62-1.48-1.05-.47-.45-.77-.99-.96-1.6-.36-1.16-.24-2.3.38-3.31.72-1.16,1.77-1.91,3.2-2.02.16-.01.32-.02.47-.02.06,0,.12,0,.18.01.09,0,.19,0,.28.02.15.01.3.03.45.06.09.02.18.03.27.05.16.04.31.08.47.14.07.02.15.04.22.07.22.09.45.19.67.31.19.1.39.18.58.27.08.04.18.05.27.05.02,0,.05,0,.07-.01.07,0,.14-.02.2-.05.03-.01.05-.02.08-.04.06-.03.11-.07.15-.11.02-.02.04-.03.06-.05.05-.06.09-.14.09-.22,0-.28.02-3.44.04-6.18,0-.61,0-1.2.01-1.73,0-.27,0-.52,0-.75,0-.93,0-1.56,0-1.59Zm-1.42,1.4c0,1.5-.02,3.91-.04,5.71,0,.65,0,1.25-.01,1.75-.82-.36-1.7-.54-2.62-.54-.19,0-.39,0-.59.02-1.81.15-3.29,1.08-4.29,2.69-.83,1.35-1.01,2.9-.52,4.48.27.87.72,1.61,1.33,2.2.5.49,1.12,1.09,2.03,1.38.66.21,1.39.33,2.1.33.92,0,1.79-.18,2.53-.53.01,0,.03-.01.05-.02,0,.5,0,1.15-.02,1.88-.01,1.78-.03,4.03-.04,5.6l-24.03-.08c-.42,0-.76-.34-.76-.75v-.39c0-5.59,0-19.13,0-23.77,2.45,0,5.14.03,6.82.04.84,0,1.43.01,1.62.01,1.22,0,1.81-.52,2.1-.95.28-.42.51-1.14.07-2.17-.01-.03-.05-.11-.12-.23-.49-.91-.61-1.3-.64-1.45-.28-1.44.45-2.75,1.31-3.18.52-.26.97-.38,1.37-.38.43,0,1.13.13,2.12,1.26.19.22.41.85.41,1.41,0,.76-.24,1.4-.7,2.32-.54,1.08-.32,1.84-.04,2.29.42.68,1.17,1.02,2.24,1.02.6,0,5.8.03,8.34.05Z"/>
    <path class="cls-1" d="m3.21,2.75l21.96.08c0,4.7,0,20.54,0,21.45-.29,0-.13-5.47-9.32-13.78C10.55,5.7,3.21,2.75,3.21,2.75Z"/>
    <path class="cls-1" d="m38.97,3.04l21.96.08c0,4.7,0,20.54,0,21.45-.29,0-.13-5.47-9.32-13.78-5.3-4.79-12.65-7.74-12.65-7.74Z"/>
    <path class="cls-1" d="m36.29,27.97s.19,0,.45,0c.13,0,.29,0,.47,0,.54,0,1.27,0,2.09.01,2.72.02,6.35.03,6.75.03,1.18,0,1.29.54.93,1.26-.5,1-.86,1.88-.85,2.96,0,.75.26,1.77.76,2.34.2.23.4.42.59.6.04.04.08.07.12.11.19.16.38.31.57.43.03.02.07.04.1.06.18.11.36.2.53.28.02,0,.04.02.06.03.19.08.38.13.56.17.04,0,.08.02.12.02.19.03.37.05.56.05.04,0,.08,0,.12,0,.15,0,.31-.02.47-.05.06-.01.13-.03.19-.04.14-.03.28-.07.42-.12.06-.02.12-.04.18-.06.19-.07.39-.15.59-.25,1.5-.74,2.48-2.7,2.08-4.72-.14-.73-.81-1.88-.85-1.97-.13-.3-.22-.67.01-.91.14-.14.4-.24.85-.24.66,0,5.96.05,9.86.05,0-1.93,0-19.48,0-25.58,0-1.2-.97-2.17-2.17-2.17l-25.44-.09c0,1.92-.07,9.03-.07,9.82,0,.09.02.18.04.27,0,.02.01.04.02.06.03.08.07.16.12.23,0,.01.02.02.03.03.05.06.11.11.17.15.01,0,.03.02.04.03.07.04.16.06.25.06.04,0,.08,0,.12,0,.02,0,.04,0,.06,0,.07-.02.14-.04.21-.08.31-.16.69-.25,1.01-.4.26-.12.55-.21.86-.28.1-.02.21-.03.31-.04.21-.03.43-.06.65-.06.03,0,.07,0,.1,0,.16,0,.32.02.48.04.1,0,.2,0,.29.02.3.04.6.11.88.2.6.2,1.04.62,1.48,1.05.47.45.77.99.96,1.6.36,1.16.24,2.3-.38,3.31-.72,1.16-1.77,1.91-3.2,2.02-.16.01-.32.02-.47.02-.06,0-.12,0-.18-.01-.09,0-.19,0-.28-.02-.15-.01-.3-.03-.45-.06-.09-.02-.18-.03-.27-.05-.16-.04-.31-.08-.47-.14-.07-.02-.15-.04-.22-.07-.22-.09-.45-.19-.67-.31-.19-.1-.39-.18-.58-.27-.08-.04-.18-.05-.27-.05-.02,0-.05,0-.07.01-.07,0-.14.02-.2.05-.03.01-.05.02-.08.04-.06.03-.11.07-.15.11-.02.02-.04.03-.06.05-.05.06-.09.14-.09.22,0,.28-.02,3.44-.04,6.18,0,.61,0,1.2-.01,1.73,0,.27,0,.52,0,.75,0,.93,0,1.56,0,1.59Zm1.42-1.4c0-1.5.02-3.91.04-5.71,0-.65,0-1.25.01-1.75.82.36,1.7.54,2.62.54.19,0,.39,0,.59-.02,1.81-.15,3.29-1.08,4.29-2.69.83-1.35,1.01-2.9.52-4.48-.27-.87-.72-1.61-1.33-2.2-.5-.49-1.12-1.09-2.03-1.38-.66-.21-1.39-.33-2.1-.33-.92,0-1.79.18-2.53.53-.01,0-.03.01-.05.02,0-.5,0-1.15.02-1.88.01-1.78.03-4.03.04-5.6l24.03.08c.42,0,.76.34.76.75v.39c0,5.59,0,19.13,0,23.77-2.45,0-5.14-.03-6.82-.04-.84,0-1.43-.01-1.62-.01-1.22,0-1.81.52-2.1.95-.28.42-.51,1.14-.07,2.17.01.03.05.11.12.23.49.91.61,1.3.64,1.45.28,1.44-.45,2.75-1.31,3.18-.52.26-.97.38-1.37.38-.43,0-1.13-.13-2.12-1.26-.19-.22-.41-.85-.41-1.41,0-.76.24-1.4.7-2.32.54-1.08.32-1.84.04-2.29-.42-.68-1.17-1.02-2.24-1.02-.6,0-5.8-.03-8.34-.05Z"/>
  </g>
</svg>