<?xml version="1.0" encoding="UTF-8"?>
<svg id="Layer_2" data-name="Layer 2" xmlns="http://www.w3.org/2000/svg" viewBox="0 0 62.05 50.9">
  <defs>
    <style>
      .cls-1 {
        fill: #fff;
      }
    </style>
  </defs>
  <g id="Layer_1-2" data-name="Layer 1">
    <g>
      <path class="cls-1" d="m15.51,48.51c-.09-.06-.17-.12-.25-.2.08.08.16.14.25.2Z"/>
      <path class="cls-1" d="m17.23,48.52s-.03.02-.05.03c.02-.01.03-.02.05-.03Z"/>
      <path class="cls-1" d="m16.37,18.02h-4.44v16c0,1.04-.84,1.88-1.88,1.88h-4.88s11.28,11.16,11.31,11.13l-.11-29.01Z"/>
      <path class="cls-1" d="m15.79,48.66c-.06-.02-.12-.06-.18-.09.06.03.12.07.18.09Z"/>
      <path class="cls-1" d="m16.21,48.76c.06,0,.11.02.17.02-.06,0-.11-.01-.17-.02Z"/>
      <path class="cls-1" d="m16.08,48.74c-.07-.01-.13-.04-.19-.06.06.02.13.04.19.06Z"/>
      <path class="cls-1" d="m16.96,48.66s-.09.03-.14.04c.05-.01.1-.02.14-.04Z"/>
      <path class="cls-1" d="m16.67,48.74s-.09,0-.13.01c.04,0,.09,0,.13-.01Z"/>
    </g>
    <path class="cls-1" d="m22.29,16.6c.26,0,.46.21.46.46v16.95c0,.26.21.46.46.46h7.02c.41,0,.62.5.33.79l-13.08,13.04c-.31.3-.71.46-1.1.46s-.8-.15-1.11-.46l-13.01-13.04c-.29-.29-.08-.79.33-.79h7.18c.26,0,.46-.21.46-.46v-16.95c0-.26.21-.46.46-.46h11.59m0-2.13h-11.59c-1.43,0-2.59,1.16-2.59,2.59v15.29H2.59c-1.05,0-1.99.63-2.39,1.6-.4.97-.18,2.08.56,2.82l13.01,13.04c.7.7,1.63,1.08,2.61,1.08s1.91-.38,2.61-1.08l13.08-13.04c.74-.74.97-1.85.56-2.82-.4-.97-1.34-1.6-2.39-1.6h-5.35v-15.29c0-1.43-1.16-2.59-2.59-2.59h0Z"/>
    <g>
      <path class="cls-1" d="m24.23,27.66c-.11-.06-.23-.11-.34-.17.04.58.16,1.16.34,1.71v-1.54Z"/>
      <path class="cls-1" d="m23.77,16.54h-.98c.06.03.12.06.19.09.42.18.84.34,1.26.5v-.13c0-.26-.21-.46-.46-.46Z"/>
      <path class="cls-1" d="m36.47,22.19h-.14c-2.63-.14-5.55-.39-8.55-1.05v4.95c7.55,2.5,15.15,2.5,22.76.28,2.36-.69,4.51-1.8,6.38-3.48,1.97-1.76,2.02-5.38,1.31-6.9-.19-.48-.68-.88-1.38-1.22-.66,1.03-1.52,1.93-2.56,2.61-2.36,1.56-7.26,4.81-17.82,4.81Z"/>
      <path class="cls-1" d="m61.63,24.49c-.2-.48-.7-.89-1.4-1.24-.38.64-.85,1.24-1.42,1.76-2.1,1.88-4.62,3.25-7.48,4.08-3.98,1.16-7.97,1.74-11.87,1.74s-7.47-.53-7.47-.53c.09,0,2.8,1.54,3.42,3.04.32.78.38,1.63.2,2.41,6.09,1.23,12.2.88,18.33-.9,2.36-.69,4.51-1.8,6.38-3.48,1.97-1.76,2.02-5.38,1.31-6.9Z"/>
      <path class="cls-1" d="m42.86,39.33c-2.98,0-5.97-.35-8.91-1.03l-5.3,5.29c7.26,2.22,14.57,2.13,21.88,0,2.36-.69,4.51-1.8,6.38-3.48,1.13-1.01,1.61-2.63,1.7-4.11-1.21.65-2.51,1.18-3.89,1.59-3.98,1.16-7.97,1.74-11.87,1.74Z"/>
      <path class="cls-1" d="m18.21,12.42h5.56c2.21,0,4.01,2.36,4.01,4.57v1.23c2.83.68,5.74.98,8.7,1.13,9.34,0,13.69-2.64,16.26-4.34,3.73-2.47,3.75-8.36.06-10.83-2.14-1.43-4.44-2.4-6.9-3.05C41.67.03,37.36-.19,33.03.14c-4.02.31-7.93,1.13-11.5,3.12-2.75,1.53-4.56,3.6-4.18,7.05.11,1,.36,1.32.86,2.12Zm10.59-3.37c0-.11,0-.22.01-.33h-1.94l.41-1.08h1.72c.61-1.76,2.21-3.02,4.79-3.78,1.59-.47,3.35-.71,5.26-.71s3.39.22,4.64.65l-.59,1.5c-1.21-.54-2.58-.82-4.11-.82-1.66,0-3.05.22-4.18.65-.67.26-1.28.63-1.82,1.1-.55.49-.88.96-.98,1.4h10.11l-.4,1.08h-9.95c0,.11-.01.22-.01.32,0,.41,0,.66.01.74h9.55l-.41,1.08h-8.82c.42,1.23,1.41,2.11,3,2.63,1.14.37,2.37.56,3.69.56,1.85,0,3.29-.26,4.33-.79v1.66c-1.24.31-2.6.47-4.09.47-4.47,0-7.49-1.01-9.06-3.04-.32-.41-.59-.9-.82-1.49h-2.27l.41-1.08h1.56c-.03-.23-.04-.47-.04-.74Z"/>
      <path class="cls-1" d="m31.71,34.41h-.99c.09.03.17.07.26.1.4.13.79.26,1.19.38,0-.24-.17-.48-.45-.48Z"/>
    </g>
  </g>
</svg>