<svg width="43" height="24" viewBox="0 0 43 24" fill="none" xmlns="http://www.w3.org/2000/svg">
<path d="M36.7033 11.9637C36.5566 11.9637 36.4099 11.9685 36.268 11.983C36.268 11.9782 36.268 11.9734 36.268 11.9637C36.268 7.80303 32.8589 4.42704 28.6574 4.42704C27.7819 4.42704 26.9407 4.57719 26.1581 4.84359C24.6418 1.9665 21.5947 0 18.0877 0C13.0597 0 8.98047 4.03956 8.98047 9.01877C8.98047 9.06236 8.98047 9.10111 8.98047 9.1447C8.53538 9.06236 8.07561 9.01877 7.60606 9.01877C3.40459 9.01877 -0.0045166 12.3948 -0.0045166 16.5554C-0.0045166 20.716 3.40459 23.9952 7.60606 23.9952H36.6984C40.0537 23.9952 42.7732 21.3021 42.7732 17.9794C42.7732 14.6567 40.0537 11.9637 36.6984 11.9637H36.7033Z" fill="white"/>
</svg>
