<svg width="405" height="371" viewBox="0 0 405 371" fill="none" xmlns="http://www.w3.org/2000/svg">
<path d="M130.747 12H274.284C290.98 12 306.473 21.0239 314.896 35.7805L386.678 161.63L386.68 161.634C395.107 176.394 395.107 194.606 386.68 209.366L386.678 209.37L314.896 335.22C314.896 335.221 314.895 335.222 314.894 335.223C306.47 349.978 290.978 359 274.284 359H130.716C114.022 359 98.5301 349.978 90.1057 335.223C90.105 335.222 90.1043 335.221 90.1036 335.22L18.3217 209.37L18.3196 209.366C9.89346 194.606 9.89346 176.394 18.3196 161.634L18.3206 161.632L90.1348 35.7805C90.1351 35.7799 90.1354 35.7793 90.1358 35.7787C98.5599 21.0232 114.052 12 130.747 12Z" stroke="white" stroke-opacity="0.55" stroke-width="24"/>
<path d="M156.365 69.5H251.178C261.879 69.5 271.938 75.4486 277.456 85.3884L324.872 170.871L324.873 170.873C330.405 180.838 330.405 193.162 324.873 203.127L324.872 203.129L277.456 288.612C277.456 288.612 277.455 288.613 277.455 288.614C271.937 298.552 261.878 304.5 251.178 304.5H156.344C145.644 304.5 135.585 298.552 130.067 288.614C130.066 288.613 130.066 288.612 130.065 288.612L82.6502 203.129L82.6487 203.127C77.1171 193.162 77.1171 180.838 82.6487 170.873L82.6494 170.872L130.086 85.3884C130.086 85.388 130.086 85.3876 130.087 85.3872C135.605 75.4481 145.664 69.5 156.365 69.5Z" stroke="white" stroke-opacity="0.7" stroke-width="17"/>
<path d="M176.678 121H227.923C233.483 121 238.796 124.178 241.742 129.632C241.743 129.632 241.743 129.633 241.743 129.633L267.37 177.123L267.371 177.125C270.33 182.603 270.33 189.397 267.371 194.875L267.37 194.877L241.743 242.367C241.743 242.367 241.743 242.368 241.743 242.368C241.743 242.368 241.743 242.368 241.742 242.368C238.796 247.822 233.483 251 227.923 251H176.667C171.107 251 165.794 247.822 162.848 242.368C162.848 242.368 162.848 242.368 162.848 242.368C162.847 242.368 162.847 242.367 162.847 242.367L137.22 194.877L137.219 194.875C134.26 189.397 134.26 182.603 137.219 177.125L137.22 177.124L162.858 129.633C162.858 129.633 162.858 129.633 162.858 129.632C165.804 124.178 171.118 121 176.678 121Z" stroke="white" stroke-opacity="0.85" stroke-width="10"/>
</svg>
