<?xml version="1.0" encoding="UTF-8"?>
<svg id="Layer_1" data-name="Layer 1" xmlns="http://www.w3.org/2000/svg" version="1.1" viewBox="0 0 150.1 118.1">
  <path d="M.2,118.1c0-16-.5-32,0-47.9.3-9.9,1.1-19.9,4.5-29.4,4.8-13.7,13.6-24.2,26-31.6C35.8,6.1,48.3,0,48.3,0l11,23.5s-12.1,2.2-22,12.2-9,18.9-9,27.9c1.6,0,6.1,0,7.2,0,5.6,0,19,0,19,0,0,0,0,4.5,0,5.2,0,16.8,0,32.6,0,49.4H.2Z" fill="#64b5ff" fill-opacity=".2" stroke-width="0"/>
  <path d="M91,118.1c0-16-.5-32,0-47.9.3-9.9,1.1-19.9,4.5-29.4,4.8-13.7,13.6-24.2,26-31.6,5.1-3,17.6-9.1,17.6-9.1l11,23.5s-12.1,2.2-22,12.2-9,18.9-9,27.9c1.6,0,6.1,0,7.2,0,5.6,0,19,0,19,0,0,0,0,4.5,0,5.2,0,16.8,0,32.6,0,49.4h-54.3Z" fill="#64b5ff" fill-opacity=".2" stroke-width="0"/>
</svg>