<?xml version="1.0" encoding="UTF-8"?>
<svg id="Layer_2" data-name="Layer 2" xmlns="http://www.w3.org/2000/svg" viewBox="0 0 371.61 72.62">
  <defs>
    <style>
      .cls-1 {
        fill: #1d75bc;
        fill-rule: evenodd;
      }
    </style>
  </defs>
  <g id="Layer_1-2" data-name="Layer 1">
    <g id="Layer_2-2" data-name="Layer 2">
      <g id="Layer_1-2" data-name="Layer 1-2">
        <path class="cls-1" d="M336,72.62c-19.94,0-35.51-15.92-35.51-36.25C300.04,16.73,315.6,.45,335.24,0c19.64-.44,35.92,15.12,36.36,34.75,.01,.54,.01,1.07,0,1.61,.39,19.63-15.2,35.86-34.83,36.25-.26,0-.51,0-.77,0Zm0-62.05c-13.79,0-24.58,11.76-24.58,25.79s10.79,25.79,24.58,25.79,24.72-11.33,24.72-25.79-10.88-25.79-24.72-25.79Zm-9.43,31.76v-10.88h19v10.88h-19Zm-52.46-11.96c10.97,5.62,20.79,11.66,20.79,23.69,0,10.88-9.06,18.56-22.06,18.56s-22.48-7.54-23.11-21.23v-1.43h10.88l.09,1.27c.56,8.03,6.91,10.88,12.18,10.88,6.82,0,11.22-3.3,11.22-8.39,0-6.05-5.22-9.06-13.83-13.5-11.87-6.38-19.07-10.1-19.07-22.17-.04-10.15,8.83-17.4,20.59-17.4s20.72,7.81,20.74,19.31v1.43h-10.88l-.11-.36c.89-6.6-4.46-10.44-9.81-10.44-5.62,0-9.7,3.34-9.7,7.92,0,6,4.28,8.08,11.37,11.55l.71,.33Zm-80.45-9.79v51.12h-10.88V1.06h10.3l48.47,70.69h-11.55l-36.34-51.17ZM229.29,1.06h10.88V20.58h-10.88V1.06ZM126.27,20.58v51.12h-10.88V1.06h10.22l50.08,70.69h-13.16L126.27,20.58ZM161.89,1.06h10.88V20.58h-10.88V1.06Zm-95.49,0h38.97V11.52h-28.13V29.93h21.75v10.48h-21.75v20.79h28.13v10.48h-38.97V1.06Zm-31.45,71.56C15.24,72.62,0,56.71,0,36.37S15.24,.64,34.95,.64c10.88,0,17.82,3.92,20.92,6.58l.47,.4v12.07l-2.28-2.12c-4.93-4.56-11.41-7.07-18.13-7-14.18,0-24.74,11.82-24.74,25.79s10.62,25.79,24.72,25.79c10.44,0,15.39-4.39,18.13-7l2.3-2.18v12.11l-.47,1.6c-6.33,3.77-13.55,5.82-20.92,5.93Z"/>
      </g>
    </g>
  </g>
</svg>