<?xml version="1.0" encoding="UTF-8"?>
<svg id="Layer_2" data-name="Layer 2" xmlns="http://www.w3.org/2000/svg" viewBox="0 0 90.13 51.05">
  <defs>
    <style>
      .cls-1 {
        fill: #fff;
      }
    </style>
  </defs>
  <g id="Layer_1-2" data-name="Layer 1">
    <path class="cls-1" d="m77.33,25.45c-.31,0-.62.01-.92.04,0-.01,0-.02,0-.04,0-8.85-7.18-16.03-16.03-16.03-1.84,0-3.61.32-5.26.89C51.91,4.18,45.5,0,38.1,0c-10.6,0-19.19,8.59-19.19,19.19,0,.09,0,.18,0,.27-.94-.17-1.9-.27-2.89-.27C7.18,19.19,0,26.37,0,35.22s7.18,15.83,16.03,15.83h61.29c7.07,0,12.8-5.73,12.8-12.8s-5.73-12.8-12.8-12.8Zm-27.09-7.7h7.31v7.31h-3.74v-3.57h-3.57v-3.74Zm-10.14,0h8.72v3.74h-5.45l4.99,4.99h-3.3l-4.96-4.96v-3.77Zm-8.72,0h7.29v3.74h-3.55v3.54l.03.03h-3.77v-7.31Zm0,8.72h3.77l4.96,4.96v3.3l-4.98-4.98v5.45h-3.74v-8.72Zm7.31,17.44h-7.31v-7.31h3.74v3.57h3.57v3.74Zm10.14,0h-8.72v-3.74h5.45l-.85-.85-4.13-4.13h3.3l2.48,2.48,2.48,2.48v3.77Zm0-16.98l4.13,4.13.85.85v-5.45h3.74v8.72h-3.77l-2.48-2.48-2.48-2.48v-3.3Zm8.72,16.98h-7.31v-3.77l.03.03h3.54v-3.54l-.03-.03h3.77v7.31Z"/>
  </g>
</svg>