<?xml version="1.0" encoding="UTF-8"?>
<svg id="Layer_2" data-name="Layer 2" xmlns="http://www.w3.org/2000/svg" viewBox="0 0 72.94 69.65">
  <defs>
    <style>
      .cls-1 {
        fill: #fff;
      }
    </style>
  </defs>
  <g id="Layer_1-2" data-name="Layer 1">
    <g>
      <path class="cls-1" d="m26.87,46.54h9.37c.66,0,1.27-.35,1.6-.92l4.69-8.13c.33-.57.33-1.27,0-1.85l-4.69-8.13c-.33-.57-.94-.92-1.6-.92h-9.37c-.66,0-1.27.35-1.6.92l-4.69,8.13c-.33.57-.33,1.27,0,1.85l4.69,8.13c.33.57.94.92,1.6.92Z"/>
      <g>
        <path class="cls-1" d="m46.52,54.91c-.97-.24-1.94-.16-2.81.14l-4.39-7.86c-.46.56-1.06.99-1.74,1.23l4.33,7.76c-.64.63-1.13,1.42-1.36,2.36-.65,2.65.98,5.33,3.63,5.98,2.65.65,5.33-.98,5.98-3.63s-.98-5.33-3.63-5.98Z"/>
        <path class="cls-1" d="m72.92,36.25c-.16-1.87-1.04-3.57-2.47-4.78-2.96-2.5-7.41-2.12-9.91.84-.84.99-1.37,2.17-1.56,3.43h-14.17c.15.71.11,1.44-.13,2.13h14.29c.25,1.7,1.09,3.23,2.41,4.35,1.32,1.11,2.93,1.65,4.53,1.65,2,0,3.99-.85,5.38-2.49,1.21-1.44,1.79-3.26,1.63-5.13Zm-3.26,3.76c-1.74,2.07-4.84,2.33-6.91.59-1-.84-1.61-2.03-1.72-3.33-.11-1.31.29-2.58,1.14-3.58,1.74-2.07,4.84-2.33,6.91-.59,1,.84,1.61,2.03,1.72,3.33.11,1.31-.29,2.58-1.14,3.58Z"/>
        <path class="cls-1" d="m12.27,14.49c1.11.57,2.31.87,3.52.86.72,0,1.44-.11,2.14-.32l5.98,10.76c.48-.54,1.1-.94,1.79-1.15l-5.82-10.48c2.89-1.82,4.31-5.41,3.24-8.81C21.84,1.32,17.52-.92,13.48.36c-1.95.62-3.55,1.96-4.49,3.78s-1.12,3.9-.5,5.85c.62,1.95,1.96,3.55,3.78,4.49Zm-1.39-9.37c.68-1.32,1.83-2.29,3.25-2.74.56-.18,1.12-.26,1.67-.26,2.35,0,4.54,1.51,5.29,3.87.92,2.92-.7,6.04-3.61,6.97-1.41.45-2.91.32-4.23-.36-1.32-.68-2.29-1.84-2.73-3.25-.45-1.41-.32-2.92.36-4.23Z"/>
        <path class="cls-1" d="m39.55,26.25l7.23-9.01c2.62,1.53,6.02,1.29,8.41-.83,2.98-2.64,3.25-7.19.62-10.17s-7.19-3.25-10.17-.62-3.25,7.19-.62,10.17c.03.04.07.07.11.11l-7.18,8.95c.65.31,1.2.79,1.6,1.4Z"/>
        <path class="cls-1" d="m24.29,47.7l-3.59,7.25c-1.5-.5-3.11-.52-4.64-.03-1.92.61-3.49,1.93-4.42,3.72s-1.1,3.83-.49,5.75h0c.61,1.92,1.93,3.49,3.72,4.42,1.09.56,2.27.85,3.46.85.77,0,1.54-.12,2.29-.36,1.92-.61,3.49-1.93,4.42-3.72s1.1-3.83.49-5.75c-.51-1.62-1.54-2.99-2.93-3.94l3.61-7.29c-.71-.12-1.38-.44-1.92-.9Zm-.79,12.77c.44,1.38.31,2.85-.35,4.13-.67,1.28-1.79,2.23-3.17,2.67-1.38.44-2.85.31-4.13-.35-1.29-.67-2.23-1.79-2.67-3.17h0c-.44-1.38-.31-2.85.35-4.13s1.79-2.23,3.17-2.67c.54-.17,1.09-.26,1.64-.26.86,0,1.71.21,2.49.61,1.29.67,2.23,1.79,2.67,3.17Z"/>
        <path class="cls-1" d="m18.29,35.8l-8.38-.06c-.03-.16-.05-.33-.1-.49-.84-2.64-3.66-4.11-6.3-3.27-2.64.84-4.11,3.66-3.27,6.3.84,2.64,3.66,4.11,6.3,3.27,1.76-.56,2.98-2.01,3.36-3.69l8.56.06c-.25-.68-.3-1.42-.16-2.13Z"/>
      </g>
    </g>
  </g>
</svg>