<?xml version="1.0" encoding="UTF-8"?>
<svg id="Layer_2" data-name="Layer 2" xmlns="http://www.w3.org/2000/svg" viewBox="0 0 80.18 59.54">
  <defs>
    <style>
      .cls-1 {
        fill: #fff;
      }
    </style>
  </defs>
  <g id="Layer_1-2" data-name="Layer 1">
    <path class="cls-1" d="m71.99,16.27c-.2,0-.39,0-.59.02,0,0,0-.02,0-.02,0-5.66-4.59-10.25-10.25-10.25-1.18,0-2.31.2-3.36.57-2.05-3.92-6.15-6.59-10.87-6.59-3.11,0-5.95,1.17-8.11,3.08,2.61,1.37,4.87,3.39,6.54,5.93,1.06-.23,2.14-.35,3.23-.35,7.59,0,13.88,5.65,14.89,12.96,5.69.57,10.25,5,11.04,10.62,3.29-1.06,5.67-4.14,5.67-7.79,0-4.52-3.66-8.18-8.18-8.18Z"/>
    <path class="cls-1" d="m57.37,39.59H20.07c-.57,0-1.03.46-1.03,1.03v6.45c0,.57.46,1.03,1.03,1.03h15.16s0,0,0,0v5.96c-.74.19-1.35.68-1.71,1.33h-13.4c-.59,0-1.06.48-1.06,1.06s.48,1.06,1.06,1.06h13.16c.34,1.16,1.4,2.01,2.66,2.01s2.33-.85,2.66-2.01h18.94c.59,0,1.06-.48,1.06-1.06s-.48-1.06-1.06-1.06h-19.18c-.36-.65-.98-1.14-1.71-1.33v-5.96s0,0,0,0h20.73c.57,0,1.03-.46,1.03-1.03v-6.45c0-.57-.46-1.03-1.03-1.03Zm-13.56,4.8c0,.52-.43.95-.95.95h-15.42c-.52,0-.95-.43-.95-.95v-1.09c0-.52.43-.95.95-.95h15.42c.52,0,.95.43.95.95v1.09Zm6.01,1.19c-.96,0-1.74-.78-1.74-1.74s.78-1.74,1.74-1.74,1.74.78,1.74,1.74-.78,1.74-1.74,1.74Zm5.21,0c-.96,0-1.74-.78-1.74-1.74s.78-1.74,1.74-1.74,1.74.78,1.74,1.74-.78,1.74-1.74,1.74Z"/>
    <g>
      <path class="cls-1" d="m57.37,24.99H20.07c-.57,0-1.03.46-1.03,1.03v6.45c0,.57.46,1.03,1.03,1.03h37.3c.57,0,1.03-.46,1.03-1.03v-6.45c0-.57-.46-1.03-1.03-1.03Zm-13.56,4.8c0,.52-.43.95-.95.95h-15.42c-.52,0-.95-.43-.95-.95v-1.09c0-.52.43-.95.95-.95h15.42c.52,0,.95.43.95.95v1.09Zm6.01,1.19c-.96,0-1.74-.78-1.74-1.74s.78-1.74,1.74-1.74,1.74.78,1.74,1.74-.78,1.74-1.74,1.74Zm5.21,0c-.96,0-1.74-.78-1.74-1.74s.78-1.74,1.74-1.74,1.74.78,1.74,1.74-.78,1.74-1.74,1.74Z"/>
      <path class="cls-1" d="m62.22,23.68c-.25,0-.49.01-.74.03,0,0,0-.02,0-.03,0-7.12-5.78-12.9-12.9-12.9-1.48,0-2.91.25-4.24.72-2.58-4.93-7.74-8.29-13.68-8.29-8.53,0-15.44,6.91-15.44,15.44,0,.07,0,.14,0,.21-.76-.14-1.53-.21-2.33-.21-7.12,0-12.9,5.78-12.9,12.9s8.89,12.74,16.02,12.74h.96v-3.6c0-1.74,1.42-3.16,3.16-3.16h37.3c1.74,0,3.16,1.42,3.16,3.16v3.6c2.25,0,.81,0,1.61,0,5.69,0,10.3-4.61,10.3-10.3s-4.61-10.3-10.3-10.3Zm-1.68,8.79c0,1.74-1.42,3.16-3.16,3.16H20.07c-1.74,0-3.16-1.42-3.16-3.16v-6.45c0-1.74,1.42-3.16,3.16-3.16h37.3c1.74,0,3.16,1.42,3.16,3.16v6.45Z"/>
    </g>
  </g>
</svg>