<?xml version="1.0" encoding="UTF-8"?>
<svg id="Layer_2" data-name="Layer 2" xmlns="http://www.w3.org/2000/svg" viewBox="0 0 71.9 75.83">
  <defs>
    <style>
      .cls-1 {
        fill: #fff;
      }

      .cls-2 {
        fill: none;
        stroke: #fff;
        stroke-miterlimit: 10;
        stroke-width: 1.42px;
      }
    </style>
  </defs>
  <g id="Layer_1-2" data-name="Layer 1">
    <line class="cls-2" x1="53.5" y1="32.79" x2="46.46" y2="32.79"/>
    <line class="cls-2" x1="53.5" y1="55.23" x2="46.46" y2="55.23"/>
    <line class="cls-2" x1="25.96" y1="25.28" x2="18.91" y2="25.28"/>
    <line class="cls-2" x1="25.96" y1="47.26" x2="18.91" y2="47.26"/>
    <path class="cls-1" d="m62.09,66.69v2.67c0,.81-.66,1.46-1.46,1.46H11.28c-.81,0-1.46-.66-1.46-1.46v-2.67h-2.13v2.67c0,1.98,1.61,3.59,3.59,3.59h49.35c1.98,0,3.59-1.61,3.59-3.59v-2.67h-2.13Z"/>
    <path class="cls-1" d="m9.82,9.43v-3.4c0-.81.66-1.46,1.46-1.46h49.35c.81,0,1.46.66,1.46,1.46v3.4h2.13v-3.4c0-1.98-1.61-3.59-3.59-3.59H11.28c-1.98,0-3.59,1.61-3.59,3.59v3.4h2.13Z"/>
    <circle class="cls-1" cx="35.66" cy="3.91" r="3.91"/>
    <circle class="cls-1" cx="35.66" cy="71.93" r="3.91"/>
    <g>
      <circle class="cls-1" cx="63.71" cy="21.16" r="3.07"/>
      <path class="cls-1" d="m68.88,12.07h-10.33c-1.67,0-3.02,1.35-3.02,3.02v45.51c0,1.67,1.35,3.02,3.02,3.02h10.33c1.67,0,3.02-1.35,3.02-3.02V15.09c0-1.67-1.35-3.02-3.02-3.02Zm-5.17,4.6c2.48,0,4.49,2.01,4.49,4.49s-2.01,4.49-4.49,4.49-4.49-2.01-4.49-4.49,2.01-4.49,4.49-4.49Zm4.62,41.67c0,.77-.62,1.4-1.4,1.4h-6.57c-.77,0-1.4-.62-1.4-1.4v-6.57c0-.77.62-1.4,1.4-1.4h6.57c.77,0,1.4.62,1.4,1.4v6.57Zm-.04-16.57h-9.14c-.74,0-1.33-.6-1.33-1.33s.6-1.33,1.33-1.33h9.14c.74,0,1.33.6,1.33,1.33s-.6,1.33-1.33,1.33Zm0-5.18h-9.14c-.74,0-1.33-.6-1.33-1.33s.6-1.33,1.33-1.33h9.14c.74,0,1.33.6,1.33,1.33s-.6,1.33-1.33,1.33Z"/>
    </g>
    <g>
      <circle class="cls-1" cx="8.15" cy="55.05" r="3.07"/>
      <path class="cls-1" d="m13.34,12.07H3.02c-1.67,0-3.02,1.35-3.02,3.02v45.51c0,1.67,1.35,3.02,3.02,3.02h10.33c1.67,0,3.02-1.35,3.02-3.02V15.09c0-1.67-1.35-3.02-3.02-3.02Zm-5.19,47.47c-2.48,0-4.49-2.01-4.49-4.49s2.01-4.49,4.49-4.49,4.49,2.01,4.49,4.49-2.01,4.49-4.49,4.49Zm4.68-17.95c0,.77-.62,1.4-1.4,1.4h-6.57c-.77,0-1.4-.62-1.4-1.4v-6.57c0-.77.62-1.4,1.4-1.4h6.57c.77,0,1.4.62,1.4,1.4v6.57Zm-.11-14.97H3.58c-.74,0-1.33-.6-1.33-1.33s.6-1.33,1.33-1.33h9.14c.74,0,1.33.6,1.33,1.33s-.6,1.33-1.33,1.33Zm0-4.82H3.58c-.74,0-1.33-.6-1.33-1.33s.6-1.33,1.33-1.33h9.14c.74,0,1.33.6,1.33,1.33s-.6,1.33-1.33,1.33Z"/>
    </g>
    <g>
      <path class="cls-1" d="m32.83,18.13h6.57c.38,0,.69.31.69.69v6.57c0,.38-.31.69-.69.69h-6.57c-.38,0-.69-.31-.69-.69v-6.57c0-.38.31-.69.69-.69Z"/>
      <path class="cls-1" d="m41.41,12.07h-10.33c-1.67,0-3.02,1.35-3.02,3.02v45.51c0,1.67,1.35,3.02,3.02,3.02h10.33c1.67,0,3.02-1.35,3.02-3.02V15.09c0-1.67-1.35-3.02-3.02-3.02Zm-10.69,6.75c0-1.16.94-2.1,2.11-2.1h6.57c1.16,0,2.1.94,2.1,2.1v6.57c0,1.16-.94,2.11-2.1,2.11h-6.57c-1.16,0-2.11-.94-2.11-2.11v-6.57Zm9.78,19.31c0,2.48-2.01,4.49-4.49,4.49s-4.49-2.01-4.49-4.49,2.01-4.49,4.49-4.49,4.49,2.01,4.49,4.49Zm.18,16.44h-9.14c-.74,0-1.33-.6-1.33-1.33s.6-1.33,1.33-1.33h9.14c.74,0,1.33.6,1.33,1.33s-.6,1.33-1.33,1.33Z"/>
    </g>
  </g>
</svg>