<?xml version="1.0" encoding="UTF-8"?>
<svg id="Ebene_1" data-name="Ebene 1" xmlns="http://www.w3.org/2000/svg" version="1.1" viewBox="0 0 266.8 134.7">
  <g>
    <path d="M23,113.1c-3.3,0-6.4-.8-9.1-2.3s-4.9-3.6-6.4-6.2v7.4H0V44.6l7.6-.9v26.3c1.8-3,4.1-5.2,6.9-6.6,2.8-1.4,5.7-2.2,8.7-2.2s6.4.7,9.1,2.1c2.7,1.4,4.9,3.3,6.6,5.7,1.7,2.4,3,5.1,3.9,8.1.9,3,1.4,6.2,1.4,9.6s-.4,7.1-1.3,10.2c-.9,3.2-2.2,6-3.9,8.4-1.7,2.5-3.9,4.4-6.6,5.8-2.7,1.4-5.8,2.1-9.2,2.1ZM22.5,106.9c2.1,0,3.9-.4,5.5-1.2,1.6-.8,2.9-1.8,4-3.1,1-1.3,1.8-2.8,2.5-4.6.7-1.8,1.1-3.5,1.4-5.3.3-1.8.4-3.6.4-5.6s-.2-4.7-.7-6.9c-.5-2.2-1.2-4.3-2.1-6.2-1-2-2.4-3.6-4.2-4.8-1.9-1.2-4-1.8-6.5-1.8-4.4,0-8,1.9-10.9,5.5-2.9,3.6-4.3,8.4-4.3,14.1s.3,5.3.9,7.6c.6,2.3,1.5,4.4,2.6,6.3,1.2,1.9,2.7,3.3,4.7,4.3,2,1,4.2,1.6,6.7,1.6Z" fill="#396286" stroke-width="0"/>
    <path d="M74,113.1c-7.1,0-12.6-2.3-16.7-7-4.1-4.7-6.1-11-6.1-19.1s2-13.6,6.1-18.4c4.1-4.8,9.3-7.4,15.8-7.5,6.2,0,11,2.2,14.6,6.5,3.6,4.3,5.4,10.2,5.4,17.5s0,.8,0,1.7c0,.9,0,1.4,0,1.7h-34c0,5.5,1.4,9.9,4.3,13.2,2.9,3.3,6.5,4.9,11,4.9s10.9-1.7,15.8-5l2.4,5.5c-4.6,4-10.8,6-18.3,6ZM59.2,83.3h26.5c0-5.1-1.2-9.1-3.5-11.8-2.3-2.8-5.4-4.1-9.2-4.1s-6.9,1.4-9.4,4.3c-2.5,2.9-4,6.8-4.4,11.7Z" fill="#396286" stroke-width="0"/>
    <path d="M111.7,62.3v56c0,3.2-.2,5.8-.6,7.7-.4,2-1.2,3.6-2.3,5s-2.7,2.3-4.6,2.9c-1.9.5-4.5.8-7.6.8h-2.4l-1-6.8h2.4c1.2,0,2.2,0,3.1-.2.9-.1,1.6-.3,2.2-.5.6-.2,1.1-.6,1.5-1,.4-.5.7-.9.9-1.4.2-.4.4-1.1.5-2,.1-.9.2-1.7.2-2.4,0-.7,0-1.7,0-2.9v-55.2h7.6ZM111.7,44.3v9h-7.6v-9h7.6Z" fill="#396286" stroke-width="0"/>
    <path d="M121.8,94.9v-32.6h7.6v32.7c0,4.5,1,7.6,2.9,9.3,1.9,1.7,5.1,2.6,9.5,2.6s7.5-.9,9.4-2.6c1.9-1.7,2.9-4.8,2.9-9.3v-32.7h7.6v32.6c0,6.5-1.7,11.2-5,14-3.3,2.8-8.3,4.3-14.9,4.3s-11.6-1.4-15-4.3c-3.4-2.9-5-7.5-5-13.9Z" fill="#396286" stroke-width="0"/>
    <path d="M196.5,61.1c5.4,0,9.3,1.8,11.9,5.3,2.5,3.5,3.8,8.8,3.8,15.9v29.7h-7.6v-24.9c0-2.1,0-3.9,0-5.2,0-1.3-.1-2.7-.2-4.3s-.3-2.8-.6-3.6c-.3-.9-.6-1.8-1.1-2.7-.5-.9-1-1.6-1.7-2.1-.7-.5-1.5-.8-2.5-1.1-1-.3-2.1-.4-3.4-.4-3.9,0-7.3,1-10.2,2.9-2.9,1.9-4.7,4.1-5.3,6.6v34.9h-7.6v-49.7c-.1,0,6.4,0,6.4,0l.7,6.4c1.8-2.5,4.3-4.4,7.5-5.7,3.1-1.3,6.5-1.9,10.2-1.9Z" fill="#396286" stroke-width="0"/>
    <path d="M266.8,87.2c0,3.5-.5,6.8-1.5,9.9-1,3.1-2.5,5.9-4.4,8.3-1.9,2.4-4.3,4.3-7.3,5.7-2.9,1.4-6.2,2.1-9.8,2.1s-9.1-1.2-12.7-3.5c-3.6-2.4-6.3-5.5-8.1-9.3-1.8-3.9-2.7-8.2-2.7-13s.9-9.2,2.7-13.1c1.8-3.9,4.5-7.1,8.1-9.5,3.6-2.4,7.9-3.6,12.7-3.6s5.7.4,8.2,1.3c2.5.9,4.6,2.1,6.4,3.7,1.8,1.6,3.3,3.5,4.5,5.6,1.3,2.2,2.2,4.5,2.8,7.1.6,2.6.9,5.3.9,8.2ZM259,87.2c0-2.7-.3-5.3-.8-7.6-.5-2.3-1.4-4.4-2.5-6.3-1.1-1.9-2.7-3.4-4.7-4.4-2-1.1-4.4-1.6-7-1.6s-4.9.6-6.9,1.7c-2,1.1-3.7,2.6-4.9,4.5-1.2,1.9-2.2,4-2.8,6.4-.6,2.4-1,4.8-1,7.4s.3,5,1,7.3c.6,2.3,1.6,4.4,2.8,6.2,1.2,1.8,2.9,3.3,4.9,4.4,2.1,1.1,4.4,1.6,7,1.6s4.9-.5,6.9-1.6c2-1.1,3.5-2.6,4.7-4.4,1.1-1.9,2-3.9,2.6-6.2.6-2.3.9-4.8.9-7.4Z" fill="#396286" stroke-width="0"/>
  </g>
  <path d="M118,48.3c0,5.2-4.2,9.5-9.5,9.5s-9.5-4.2-9.5-9.5,4.2-9.5,9.5-9.5,9.5,4.2,9.5,9.5Z" fill="#396286" fill-rule="evenodd" stroke-width="0"/>
  <path d="M155.2,44c0,7.6-6.2,13.8-13.8,13.8s-13.8-6.2-13.8-13.8,6.2-13.8,13.8-13.8,13.8,6.2,13.8,13.8Z" fill="#396286" fill-rule="evenodd" stroke-width="0"/>
  <path d="M183.6,43.2c0,5.2-4.2,9.5-9.5,9.5s-9.5-4.2-9.5-9.5,4.2-9.5,9.5-9.5,9.5,4.2,9.5,9.5Z" fill="#396286" fill-rule="evenodd" stroke-width="0"/>
  <path d="M186.6,13.8c0,7.6-6.2,13.8-13.8,13.8s-13.8-6.2-13.8-13.8,6.2-13.8,13.8-13.8,13.8,6.2,13.8,13.8Z" fill="#396286" fill-rule="evenodd" stroke-width="0"/>
</svg>