<svg width="53" height="58" viewBox="0 0 53 58" fill="none" xmlns="http://www.w3.org/2000/svg">
<path d="M50.6074 20.6763L50.6074 42.7183C50.6074 43.6095 50.1112 44.4267 49.3203 44.8374L31.9189 53.8716C31.2292 54.2296 30.4084 54.2297 29.7187 53.8716L12.3184 44.8374C11.5273 44.4267 11.0303 43.6096 11.0303 42.7183L11.0303 20.6763C11.0303 19.785 11.5273 18.9678 12.3184 18.5571L29.7187 9.52295C30.4084 9.16487 31.2292 9.16494 31.9189 9.52295L49.3203 18.5571C50.1112 18.9679 50.6074 19.7851 50.6074 20.6763Z" stroke="white" stroke-width="0.689294"/>
<g filter="url(#filter0_d_3239_1575)">
<path d="M25.2696 6.4929C26.0669 6.0726 27.0202 6.07259 27.8176 6.49275L45.219 15.6658C46.1157 16.1387 46.677 17.069 46.677 18.0827L46.677 40.5367C46.677 41.5505 46.1157 42.4812 45.2189 42.954L27.8182 52.1273C27.0208 52.5477 26.0667 52.5469 25.2693 52.1265L7.86884 42.9544C6.972 42.4816 6.41081 41.5504 6.41081 40.5366L6.41079 18.0826C6.41085 17.0688 6.97209 16.138 7.86889 15.6652L25.2696 6.4929ZM31.6885 36.1725L34.7082 36.172L34.7076 21.4713L31.6889 21.4707L31.6885 36.1725ZM16.3725 36.1726L19.5933 36.1724L20.6098 33.0724L25.8932 33.0724L26.9129 36.1719L30.1445 36.1725L24.6515 21.4706L22.5821 21.4705L21.835 21.4712L16.3725 36.1726ZM25.1123 30.6993L21.3886 30.6992L23.2485 25.0301L25.1123 30.6993Z" fill="white"/>
</g>
<defs>
<filter id="filter0_d_3239_1575" x="0.89654" y="0.663386" width="51.2948" height="57.2933" filterUnits="userSpaceOnUse" color-interpolation-filters="sRGB">
<feFlood flood-opacity="0" result="BackgroundImageFix"/>
<feColorMatrix in="SourceAlpha" type="matrix" values="0 0 0 0 0 0 0 0 0 0 0 0 0 0 0 0 0 0 127 0" result="hardAlpha"/>
<feOffset/>
<feGaussianBlur stdDeviation="2.75717"/>
<feComposite in2="hardAlpha" operator="out"/>
<feColorMatrix type="matrix" values="0 0 0 0 0 0 0 0 0 0 0 0 0 0 0 0 0 0 0.25 0"/>
<feBlend mode="normal" in2="BackgroundImageFix" result="effect1_dropShadow_3239_1575"/>
<feBlend mode="normal" in="SourceGraphic" in2="effect1_dropShadow_3239_1575" result="shape"/>
</filter>
</defs>
</svg>
