<svg width="46" height="29" viewBox="0 0 46 29" fill="none" xmlns="http://www.w3.org/2000/svg">
<path d="M19.4453 0C20.3862 0 21.2978 0.150245 22.1641 0.420898C23.0152 0.691537 23.8364 1.09766 24.583 1.59375C25.2252 2.0298 25.808 2.55655 26.3457 3.12793C26.4352 3.21804 26.5248 3.30833 26.6143 3.39844C27.2116 4.10504 27.7345 4.88662 28.1377 5.72852C28.5557 5.57823 28.9887 5.44335 29.4365 5.36816C29.8846 5.29298 30.3336 5.24805 30.8115 5.24805C35.3365 5.24833 38.995 9.23228 38.9951 14.1338V14.1494C39.1443 14.1344 39.2939 14.1338 39.458 14.1338C41.7132 14.1338 43.7 15.3822 44.8799 17.2617C45.5777 18.3977 45.9941 19.7417 45.999 21.2051C45.9944 23.1673 45.264 24.934 44.0879 26.208C42.9081 27.486 41.2806 28.2831 39.4736 28.2832H8.18457C3.65939 28.2832 0.000231652 24.4192 0 19.5176C0 16.1494 1.73224 13.2165 4.28613 11.7129C5.21201 11.1716 6.24259 10.8108 7.34766 10.6904C7.61649 10.6604 7.9008 10.6455 8.18457 10.6455C8.69231 10.6455 9.18521 10.7057 9.66309 10.7959V10.6455C9.6631 9.92388 9.72304 9.20231 9.85742 8.51074C9.99184 7.81907 10.1709 7.14227 10.4248 6.51074C10.7982 5.54843 11.2913 4.66079 11.8887 3.87891C12.4859 3.08226 13.1875 2.39057 13.9639 1.81934C14.4717 1.44343 15.0396 1.11245 15.6221 0.841797C16.6376 0.375696 17.728 0.105453 18.8779 0.0302734C19.072 0.0152407 19.2512 7.09816e-06 19.4453 0ZM46 21.2314C46 21.2227 45.9991 21.2138 45.999 21.2051C45.999 21.1989 46 21.1927 46 21.1865V21.2314ZM15.7881 13.2344L13.291 20.4707H14.9297L15.4668 18.8203H18.0791L18.6152 20.4707H20.2549L17.7598 13.2344H15.7881ZM21.0156 13.2344V20.4707H22.5459V18.124H23.832C24.3879 18.124 24.8619 18.0223 25.2529 17.8174C25.6462 17.6125 25.9461 17.3254 26.1533 16.958C26.3605 16.5906 26.4648 16.1669 26.4648 15.6865C26.4648 15.206 26.3622 14.7815 26.1572 14.4141C25.9547 14.0443 25.6597 13.7561 25.2734 13.5488C24.8872 13.3393 24.4198 13.2344 23.8711 13.2344H21.0156ZM27.3486 13.2344V20.4707H28.8789V13.2344H27.3486ZM16.8027 14.8877L17.6914 17.626H15.8555L16.7461 14.8877H16.8027ZM23.5781 14.4854C23.8746 14.4854 24.1195 14.5356 24.3125 14.6367C24.5057 14.7357 24.6499 14.8762 24.7441 15.0576C24.8406 15.2366 24.8887 15.4464 24.8887 15.6865C24.8887 15.9241 24.8405 16.1348 24.7441 16.3184C24.6499 16.4997 24.5056 16.6425 24.3125 16.7461C24.1217 16.8474 23.8793 16.8984 23.585 16.8984H22.5459V14.4854H23.5781Z" fill="white"/>
</svg>
