<svg width="46" height="29" viewBox="0 0 46 29" fill="none" xmlns="http://www.w3.org/2000/svg">
<path d="M19.4453 0C20.3862 0 21.2978 0.150245 22.1641 0.420898C23.0152 0.691537 23.8364 1.09766 24.583 1.59375C25.2252 2.0298 25.808 2.55655 26.3457 3.12793C26.4352 3.21804 26.5248 3.30833 26.6143 3.39844C27.2116 4.10504 27.7345 4.88662 28.1377 5.72852C28.5557 5.57823 28.9887 5.44335 29.4365 5.36816C29.8846 5.29298 30.3336 5.24805 30.8115 5.24805C35.3365 5.24833 38.995 9.23228 38.9951 14.1338V14.1494C39.1443 14.1344 39.2939 14.1338 39.458 14.1338C41.7132 14.1338 43.7 15.3822 44.8799 17.2617C45.5777 18.3977 45.9941 19.7417 45.999 21.2051C45.9944 23.1673 45.264 24.934 44.0879 26.208C42.9081 27.486 41.2806 28.2831 39.4736 28.2832H8.18457C3.65939 28.2832 0.000230882 24.4192 0 19.5176C0 16.1494 1.73224 13.2165 4.28613 11.7129C5.21201 11.1716 6.24259 10.8108 7.34766 10.6904C7.61649 10.6604 7.9008 10.6455 8.18457 10.6455C8.69231 10.6455 9.18521 10.7057 9.66309 10.7959V10.6455C9.6631 9.92388 9.72304 9.20231 9.85742 8.51074C9.99184 7.81907 10.1709 7.14227 10.4248 6.51074C10.7982 5.54843 11.2913 4.66079 11.8887 3.87891C12.4859 3.08226 13.1875 2.39057 13.9639 1.81934C14.4717 1.44343 15.0396 1.11245 15.6221 0.841797C16.6376 0.375696 17.728 0.105453 18.8779 0.0302734C19.072 0.0152407 19.2512 7.09816e-06 19.4453 0ZM46 21.2314C46 21.2227 45.9991 21.2138 45.999 21.2051C45.999 21.1989 46 21.1927 46 21.1865V21.2314ZM13.5586 13.2344L11.0605 20.4707H12.6992L13.2363 18.8203H15.8486L16.3848 20.4707H18.0244L15.5293 13.2344H13.5586ZM18.7861 13.2344V20.4707H20.3154V18.125H21.6016C22.1575 18.125 22.6314 18.0223 23.0225 17.8174C23.4156 17.6125 23.7156 17.3262 23.9229 16.959C24.1301 16.5915 24.2344 16.167 24.2344 15.6865C24.2344 15.2062 24.1315 14.7824 23.9268 14.415C23.7242 14.0452 23.4293 13.7561 23.043 13.5488C22.6567 13.3393 22.1893 13.2344 21.6406 13.2344H18.7861ZM25.1182 13.2344V20.4707H26.6484V15.916H26.7012L29.8496 20.4707H31.1709V13.2344H29.6484V17.7852H29.584L26.4609 13.2344H25.1182ZM14.5723 14.8877L15.4609 17.626H13.625L14.5156 14.8877H14.5723ZM21.3477 14.4854C21.6443 14.4854 21.8889 14.5364 22.082 14.6377C22.2752 14.7366 22.4195 14.8762 22.5137 15.0576C22.6102 15.2366 22.6582 15.4463 22.6582 15.6865C22.6582 15.9244 22.6102 16.1356 22.5137 16.3193C22.4195 16.5007 22.2752 16.6434 22.082 16.7471C21.8913 16.8482 21.6487 16.8984 21.3545 16.8984H20.3154V14.4854H21.3477Z" fill="white"/>
</svg>
