<svg width="57" height="63" viewBox="0 0 57 63" fill="none" xmlns="http://www.w3.org/2000/svg">
<path d="M52.2754 22.8765L52.2754 44.9185C52.2754 45.7518 51.8109 46.5159 51.0713 46.8999L33.6709 55.9341C33.026 56.2689 32.2581 56.2689 31.6133 55.9341L14.2129 46.8999C13.4733 46.5159 13.0088 45.7518 13.0088 44.9185L13.0088 22.8765C13.0088 22.0431 13.4733 21.279 14.2129 20.895L31.6133 11.8608C32.2582 11.526 33.026 11.526 33.6709 11.8608L51.0713 20.895C51.8109 21.279 52.2754 22.0431 52.2754 22.8765Z" stroke="white"/>
<g filter="url(#filter0_d_3239_1573)">
<path d="M27.2699 8.99833C28.0673 8.57802 29.0204 8.57784 29.8178 8.99819L47.2183 18.1703C48.1151 18.6431 48.6773 19.5743 48.6773 20.5881L48.6773 43.0421C48.6772 44.0559 48.115 44.9867 47.2182 45.4595L29.8175 54.6318C29.0201 55.052 28.0669 55.0523 27.2695 54.632L9.86908 45.4589C8.97224 44.9861 8.41008 44.0558 8.41008 43.042L8.41006 20.588C8.41006 19.5742 8.97228 18.6434 9.86913 18.1707L27.2699 8.99833ZM24.2395 35.8593C23.4521 35.8595 22.8137 36.4986 22.8137 37.2861C22.8138 38.0734 23.4521 38.7117 24.2395 38.7119L36.5993 38.7116C37.3869 38.7116 38.0252 38.0734 38.0252 37.2858C38.0252 36.4982 37.387 35.86 36.5994 35.86L24.2395 35.8593ZM19.4864 35.8595C18.6988 35.8595 18.0606 36.4986 18.0606 37.2862C18.0608 38.0736 18.6989 38.7121 19.4864 38.7121C20.274 38.7121 20.9122 38.073 20.9122 37.2854C20.912 36.498 20.2739 35.8595 19.4864 35.8595ZM24.2397 30.155C23.4522 30.1551 22.8138 30.7942 22.8138 31.5817C22.814 32.3691 23.4523 33.0075 24.2396 33.0076L36.5995 33.0073C37.387 33.0073 38.0253 32.369 38.0254 31.5815C38.0254 30.794 37.3871 30.1557 36.5996 30.1556L24.2397 30.155ZM19.4866 30.1551C18.6991 30.1551 18.0609 30.7935 18.0607 31.5809C18.0607 32.3686 18.6989 33.0078 19.4865 33.0078C20.2741 33.0077 20.9124 32.3686 20.9124 31.581C20.9122 30.7936 20.274 30.1553 19.4866 30.1551ZM24.2399 24.4506C23.4523 24.4506 22.814 25.0898 22.814 25.8774C22.8142 26.6648 23.4524 27.3032 24.2398 27.3033L36.5997 27.303C37.3871 27.3028 38.0254 26.6646 38.0255 25.8772C38.0255 25.0897 37.3872 24.4515 36.5997 24.4513L24.2399 24.4506ZM19.4868 24.4508C18.6993 24.4508 18.0601 25.0892 18.0599 25.8766C18.0599 26.6642 18.6991 27.3035 19.4867 27.3035C20.2741 27.3033 20.9126 26.6642 20.9126 25.8767C20.9124 25.0894 20.2741 24.451 19.4868 24.4508Z" fill="white"/>
</g>
<defs>
<filter id="filter0_d_3239_1573" x="0.410156" y="0.683105" width="56.2671" height="62.2642" filterUnits="userSpaceOnUse" color-interpolation-filters="sRGB">
<feFlood flood-opacity="0" result="BackgroundImageFix"/>
<feColorMatrix in="SourceAlpha" type="matrix" values="0 0 0 0 0 0 0 0 0 0 0 0 0 0 0 0 0 0 127 0" result="hardAlpha"/>
<feOffset/>
<feGaussianBlur stdDeviation="4"/>
<feComposite in2="hardAlpha" operator="out"/>
<feColorMatrix type="matrix" values="0 0 0 0 0 0 0 0 0 0 0 0 0 0 0 0 0 0 0.25 0"/>
<feBlend mode="normal" in2="BackgroundImageFix" result="effect1_dropShadow_3239_1573"/>
<feBlend mode="normal" in="SourceGraphic" in2="effect1_dropShadow_3239_1573" result="shape"/>
</filter>
</defs>
</svg>
