<svg width="39" height="18" viewBox="0 0 39 18" fill="none" xmlns="http://www.w3.org/2000/svg">
<g clip-path="url(#clip0_314_570)">
<path d="M37.3583 4.55255C35.4061 0.202521 33.9156 -0.0242963 31.4692 5.51424e-06C27.0138 0.0405086 22.5585 0.0162067 18.1032 0.0162067C13.5101 0.0162067 8.0098 0.00810613 3.41675 0.0162067C0.589634 0.032408 0.678741 1.39331 0.581534 4.20423C0.476226 7.09615 0.508628 10.0043 0.581534 12.8962C0.622037 14.6378 1.84523 15.2778 3.57876 15.3021H5.29609C5.24749 15.051 5.21509 14.7917 5.21509 14.5244C5.21509 12.3858 6.94862 10.6604 9.07908 10.6604C11.2095 10.6604 12.9431 12.394 12.9431 14.5244C12.9431 14.7917 12.9188 15.051 12.8621 15.3021H27.3055C27.2569 15.051 27.2245 14.7917 27.2245 14.5244C27.2245 12.3858 28.958 10.6604 31.0885 10.6604C33.2189 10.6604 34.9525 12.394 34.9525 14.5244C34.9525 14.7917 34.9282 15.051 34.8714 15.3021H36.2972C37.7472 15.2778 38.3709 14.7512 38.4357 13.2769C38.5734 10.2959 38.6463 7.45257 37.3421 4.55255H37.3583ZM7.15924 7.73609C5.92794 7.73609 4.69665 7.73609 3.46535 7.73609C2.7282 7.73609 2.39607 7.35537 2.40417 6.62631C2.41227 5.90536 2.40417 5.1844 2.40417 4.45535C2.40417 3.73439 2.40417 3.01344 2.40417 2.28438C2.40417 1.57153 2.7444 1.15839 3.46535 1.15029C4.69665 1.13409 5.92794 1.13409 7.15924 1.15029C7.82349 1.15839 8.20422 1.51482 8.21232 2.20337C8.21232 3.70199 8.21232 5.2006 8.21232 6.69922C8.21232 7.40397 7.83159 7.71989 7.15924 7.71989V7.73609ZM14.304 7.72799C13.016 7.72799 11.7361 7.73609 10.4481 7.72799C9.83244 7.72799 9.50842 7.37967 9.50842 6.76402C9.50842 5.24111 9.50842 3.71009 9.50842 2.18717C9.50842 1.53912 9.87294 1.1827 10.5048 1.16649C11.7604 1.14219 13.0241 1.14219 14.2797 1.16649C14.9601 1.1746 15.3004 1.57153 15.3004 2.24388C15.3004 2.99723 15.3004 3.74249 15.3004 4.49585C15.3004 5.2168 15.3004 5.93776 15.3004 6.66681C15.3004 7.34726 14.9925 7.73609 14.2959 7.73609L14.304 7.72799ZM21.392 7.72799C20.104 7.72799 18.8241 7.73609 17.5361 7.72799C16.9205 7.72799 16.5965 7.38777 16.5965 6.77212C16.5965 5.24921 16.5965 3.71819 16.5965 2.19527C16.5965 1.54722 16.9529 1.1827 17.5928 1.1746C18.8808 1.15029 20.1607 1.15029 21.4487 1.1746C22.0482 1.1908 22.3803 1.55532 22.3884 2.16287C22.4046 2.94053 22.3884 3.71819 22.3884 4.48775H22.3965C22.3965 5.2087 22.3965 5.92966 22.3965 6.65871C22.3965 7.33916 22.0968 7.72799 21.392 7.73609V7.72799ZM29.4764 6.76402C29.4764 7.37967 29.1443 7.71989 28.5287 7.71989C27.2407 7.73609 25.9608 7.73609 24.6728 7.71989C24.0247 7.71989 23.6764 7.37967 23.6764 6.72352C23.6764 5.2249 23.6764 3.72629 23.6764 2.22768C23.6764 1.54722 24.0247 1.16649 24.7052 1.15029C25.9365 1.12599 27.1678 1.12599 28.3991 1.15029C29.1119 1.15839 29.4764 1.53912 29.4764 2.26008C29.4764 2.98103 29.4764 5.97826 29.4764 6.75592V6.76402ZM36.3539 9.01599H32.02C31.2586 9.01599 30.7482 8.42465 30.7482 7.68749C30.7482 6.78832 30.7644 3.11874 30.7644 2.19527C30.7644 1.50672 31.1533 1.15029 31.8256 1.15029C33.1703 1.15029 34.2558 1.2961 35.155 2.86762C35.9731 4.30143 36.3539 5.45172 36.9209 7.53358C37.0991 8.19783 37.0667 9.00789 36.3539 9.00789V9.01599Z" fill="white"/>
<path d="M9.07897 12.6854C10.0915 12.6854 10.9178 13.5117 10.9178 14.5243C10.9178 15.5369 10.0915 16.3631 9.07897 16.3631C8.06639 16.3631 7.24013 15.5369 7.24013 14.5243C7.24013 13.5117 8.06639 12.6854 9.07897 12.6854ZM9.07897 11.5352C7.42645 11.5352 6.08984 12.8718 6.08984 14.5243C6.08984 16.1768 7.42645 17.5134 9.07897 17.5134C10.7315 17.5134 12.0681 16.1768 12.0681 14.5243C12.0681 12.8718 10.7315 11.5352 9.07897 11.5352Z" fill="white"/>
<path d="M31.0964 12.6854C32.109 12.6854 32.9353 13.5117 32.9353 14.5243C32.9353 15.5369 32.109 16.3631 31.0964 16.3631C30.0838 16.3631 29.2576 15.5369 29.2576 14.5243C29.2576 13.5117 30.0838 12.6854 31.0964 12.6854ZM31.0964 11.5352C29.4439 11.5352 28.1073 12.8718 28.1073 14.5243C28.1073 16.1768 29.4439 17.5134 31.0964 17.5134C32.749 17.5134 34.0856 16.1768 34.0856 14.5243C34.0856 12.8718 32.749 11.5352 31.0964 11.5352Z" fill="white"/>
</g>
<defs>
<clipPath id="clip0_314_570">
<rect width="38" height="17.5135" fill="white" transform="translate(0.516602)"/>
</clipPath>
</defs>
</svg>
