<svg width="40" height="36" viewBox="0 0 40 36" fill="none" xmlns="http://www.w3.org/2000/svg">
<path d="M32.3445 22.6256C32.1279 22.6256 31.9193 22.6416 31.7107 22.6577L25.1397 10.655C25.9661 9.53977 26.4635 8.16781 26.4635 6.67549C26.4635 2.98483 23.4709 -0.0078125 19.7802 -0.0078125C16.0895 -0.0078125 13.0969 2.98483 13.0969 6.67549C13.0969 8.44862 13.7949 10.0613 14.9262 11.2567L8.38728 22.7299C8.00217 22.6657 7.61706 22.6175 7.2159 22.6175C3.52524 22.6175 0.532593 25.6102 0.532593 29.3009C0.532593 32.9915 3.52524 35.9842 7.2159 35.9842C10.9066 35.9842 13.8992 32.9915 13.8992 29.3009C13.8992 27.2068 12.9364 25.3374 11.4281 24.1179L17.7423 13.0379C18.3842 13.2465 19.0742 13.3588 19.7802 13.3588C20.751 13.3588 21.6737 13.1422 22.5081 12.7731L28.5495 23.813C26.8085 25.0165 25.6612 27.0303 25.6612 29.3089C25.6612 32.9995 28.6538 35.9922 32.3445 35.9922C36.0352 35.9922 39.0278 32.9995 39.0278 29.3089C39.0278 25.6182 36.0352 22.6256 32.3445 22.6256Z" fill="white"/>
</svg>
