<svg width="44" height="25" viewBox="0 0 44 25" fill="none" xmlns="http://www.w3.org/2000/svg">
<path d="M4.91556 11.1074C5.40139 10.7133 6.12144 11.0585 6.12161 11.6807V13.998L13.1372 14C14.0307 18.0563 17.6445 21.0918 21.9693 21.0918C26.2938 21.0915 29.9068 18.0561 30.8003 14H33.856C32.9223 19.7232 27.9564 24.0915 21.9693 24.0918C17.066 24.0918 12.8501 21.1604 10.9702 16.9561H6.12161V19.248C6.12161 19.8704 5.3953 20.2154 4.91556 19.8213L0.272004 16.0381C-0.0907425 15.7424 -0.0905937 15.1874 0.272004 14.8916L4.91556 11.1074Z" fill="white"/>
<path d="M21.9693 0C27.2145 0.000272297 31.6746 3.35387 33.3277 8.0332H37.8794V5.74121C37.8794 5.11881 38.6048 4.77358 39.0845 5.16797L43.7281 8.95215C44.0904 9.24792 44.0904 9.80189 43.7281 10.0977L39.0845 13.8818C38.5986 14.2762 37.8794 13.931 37.8794 13.3086V10.9912C35.249 10.9912 33.4509 11 30.9527 11C30.434 6.49709 26.6111 3.00032 21.9693 3C17.3272 3.00004 13.5035 6.49689 12.9849 11H9.96927C10.4994 4.83703 15.6689 3.90491e-05 21.9693 0Z" fill="white"/>
<path d="M23.1816 12.43H20.6533L21.918 9L23.1816 12.43Z" fill="white"/>
<path fill-rule="evenodd" clip-rule="evenodd" d="M22 5.8501C25.4518 5.8501 28.25 8.64832 28.25 12.1001C28.25 15.5519 25.4518 18.3501 22 18.3501C18.5482 18.3501 15.75 15.5519 15.75 12.1001C15.75 8.64832 18.5482 5.8501 22 5.8501ZM21.3086 7.8L18.2998 15.69H19.4717L20.2939 13.43H23.5361L24.3633 15.69H25.5996L22.5918 7.8H21.3086Z" fill="white"/>
</svg>
