<svg width="37" height="19" viewBox="0 0 37 19" fill="none" xmlns="http://www.w3.org/2000/svg">
<path d="M36.5166 12.6008C36.5166 12.4721 36.5327 11.6031 35.7441 10.2432C35.2935 9.47073 34.3279 8.69827 33.6118 8.19134C32.6221 7.49934 31.5439 6.96827 30.4173 6.54181C30.2645 6.48548 30.1277 6.40502 29.9989 6.30846C29.138 5.64865 24.0928 1.91508 23.433 1.52884C23.1031 1.31964 22.4352 0.941451 21.5582 0.69201C21.0271 0.539127 18.5085 0.0241511 14.5094 1.16151e-05C10.2528 -0.0241279 5.28011 0.39429 4.8295 1.22308C4.61225 1.6254 4.36281 2.01968 4.14555 2.43005C3.47769 3.72554 2.85811 4.95665 2.29486 6.30041C2.22244 6.46939 2.19026 6.65446 2.19026 6.83953C2.19026 7.91776 2.19026 8.99599 2.19026 10.0742C2.19026 10.2593 2.0937 10.4283 1.93277 10.5248C1.61896 10.7179 1.36951 10.9835 1.15226 11.2812C0.653376 11.9973 0.548772 12.8261 0.516586 13.671C0.500493 14.2906 0.532679 14.9102 0.629237 15.5217C0.677516 15.8596 0.725795 16.1976 0.78212 16.5275C0.822353 16.7769 0.870632 16.8091 1.13617 16.8172C1.22468 16.8172 1.32124 16.8172 1.40975 16.8172C1.53044 16.8172 1.69942 16.8011 1.71551 16.785C1.67528 16.5436 1.65114 16.3022 1.65114 16.0447C1.65114 13.3894 4.12141 11.3134 6.88136 11.9812C8.73205 12.4318 10.0114 14.0894 10.0275 15.9964C10.0275 16.2298 10.0114 16.4149 9.96317 16.6643C9.97926 16.6884 10.9529 16.6643 11.138 16.6643C16.3199 16.6643 21.5018 16.6643 26.6838 16.6643C26.7642 16.6643 26.8527 16.6643 26.9332 16.6643C26.9654 16.6643 26.9895 16.6723 27.0137 16.6804C27.0217 16.6804 27.0378 16.6804 27.0459 16.6804C27.062 16.6804 27.078 16.6804 27.0941 16.6804C27.0217 16.2378 27.0217 15.7792 27.1102 15.3044C27.4401 13.4618 28.9931 12.0295 30.8599 11.8686C33.3382 11.6513 35.4223 13.6066 35.4223 16.0367C35.4223 16.2781 35.3981 16.5114 35.3659 16.7448C35.3981 16.6643 35.4544 16.6562 35.6154 16.6562C35.7763 16.6562 35.9372 16.6562 36.0901 16.6562C36.4924 16.6643 36.5085 16.6562 36.5085 16.262C36.5085 15.0952 36.5085 13.9285 36.5085 12.7617C36.5085 12.7054 36.5085 12.641 36.5085 12.5847L36.5166 12.6008ZM2.56844 8.54538C2.56844 8.54538 4.6042 8.44078 4.6042 9.27762C4.6042 10.1145 2.56844 10.0501 2.56844 10.0501V8.54538ZM2.56844 6.82344C2.56844 6.82344 4.6042 6.71883 4.6042 7.55567C4.6042 8.3925 2.56844 8.32813 2.56844 8.32813V6.82344ZM14.2519 2.14038C21.3892 1.58517 23.9319 4.77963 24.0043 4.844L24.2296 8.10283C24.2296 8.10283 17.3096 7.57176 14.2519 7.30623V2.14038ZM9.49647 5.39116C9.762 4.81986 10.3655 3.66921 11.4035 2.52661C12.007 2.41396 12.5783 2.32545 13.1254 2.25303V7.20967C12.9645 7.19357 12.8679 7.17748 12.8358 7.17748C11.7173 5.58428 9.61717 5.74521 9.35968 5.76935L9.49647 5.39921V5.39116ZM9.15047 6.54986C9.15047 6.4372 9.27921 6.34065 9.4321 6.34869C10.0034 6.36479 11.2989 6.48548 11.9587 7.10506C12.0955 7.23381 11.9587 7.42692 11.7414 7.42692H9.42405C9.27117 7.42692 9.15047 7.33841 9.15047 7.22576V6.54986ZM24.5193 15.8918L12.007 15.4734C11.5805 15.4734 11.2265 15.2481 11.0173 14.8377L6.92159 8.79483C6.15718 7.34646 6.43076 7.20967 7.25955 7.20967C8.59526 7.20967 8.48261 7.53957 8.95735 8.36032C9.89879 9.99375 11.492 12.641 12.8438 13.9204C13.8899 14.9102 22.5801 15.6182 24.5112 15.6182C24.8331 15.6182 24.7365 15.8999 24.5193 15.8999V15.8918ZM35.72 12.5364C35.4625 12.7457 34.6257 12.3192 33.9819 11.3617C33.2256 10.2271 32.952 9.60752 33.4187 9.17301C33.7164 8.89138 34.6096 9.45464 35.3177 10.5811C36.1304 11.8766 35.9694 12.295 35.72 12.5364Z" fill="white"/>
<path d="M5.85145 14.1055C6.84117 14.1055 7.63777 14.9101 7.63777 15.8918C7.63777 16.8735 6.83312 17.6781 5.85145 17.6781C4.86978 17.6781 4.06513 16.8735 4.06513 15.8918C4.06513 14.9101 4.86978 14.1055 5.85145 14.1055ZM5.85145 12.8502C4.16973 12.8502 2.80988 14.2101 2.80988 15.8918C2.80988 17.5735 4.16973 18.9334 5.85145 18.9334C7.53316 18.9334 8.89302 17.5735 8.89302 15.8918C8.89302 14.2101 7.53316 12.8502 5.85145 12.8502Z" fill="white"/>
<path d="M31.2059 14.1055C32.1957 14.1055 32.9923 14.9101 32.9923 15.8918C32.9923 16.8735 32.1876 17.6781 31.2059 17.6781C30.2243 17.6781 29.4196 16.8735 29.4196 15.8918C29.4196 14.9101 30.2243 14.1055 31.2059 14.1055ZM31.2059 12.8502C29.5242 12.8502 28.1644 14.2101 28.1644 15.8918C28.1644 17.5735 29.5242 18.9334 31.2059 18.9334C32.8877 18.9334 34.2475 17.5735 34.2475 15.8918C34.2475 14.2101 32.8877 12.8502 31.2059 12.8502Z" fill="white"/>
</svg>
