<svg width="35" height="42" viewBox="0 0 35 42" fill="none" xmlns="http://www.w3.org/2000/svg">
<path fill-rule="evenodd" clip-rule="evenodd" d="M17.2256 0C25.3814 0 32.4115 2.73927 34.39 5.89819C34.4952 6.01417 34.579 6.13047 34.6421 6.27319C34.8104 6.63004 34.895 6.99593 34.895 7.35278V7.3623C34.8953 7.48148 34.9999 26.4332 35 26.5298C35 26.6447 34.9898 26.7571 34.9759 26.8674C34.9839 29.9979 34.9922 36.2585 34.9923 36.2798C34.9923 41.8391 19.3971 42 17.5232 42C15.65 42 0.359188 41.8393 0.0645229 36.4226C0.0313167 36.3558 0.0102925 27.4868 0 25.5H0.0292504C-0.03757 21.3049 0.0151479 7.30267 0.177223 7.05835C0.619538 3.39083 8.16483 1.9703e-05 17.2256 0ZM31.7286 30.449C26.6761 32.177 18.7886 32.25 17.531 32.25C16.2852 32.25 8.66362 32.1776 3.61037 30.5369V35.6287C3.34788 36.9672 9.91489 38.4309 17.5232 38.4309C25.416 38.4309 30.6782 36.9581 31.7621 36.0747C31.7437 35.9993 31.7338 33.1818 31.7286 30.449ZM31.738 20.7656C26.6868 22.4967 18.7732 22.5681 17.531 22.5681C16.2892 22.5681 8.66951 22.4968 3.61812 20.8638V25.8787C3.35562 27.2172 9.92263 28.6809 17.531 28.6809C25.3224 28.6809 30.5487 27.2443 31.7243 26.3577C31.7241 25.9741 31.7233 25.6774 31.7234 25.5H31.7406C31.7199 23.9553 31.7378 20.803 31.738 20.7656ZM31.6744 11.2346C26.655 12.9745 18.7635 13.0466 17.5206 13.0466C16.2788 13.0466 8.63814 12.9748 3.60779 11.324V16.9102C5.12321 17.7936 10.154 18.9983 17.5206 18.9983C25.4027 18.9983 30.6223 17.6149 31.7062 16.7314V16.6692C31.6747 16.4908 31.6747 16.3034 31.7062 16.125L31.6744 11.2346ZM17.2256 3.56909C9.65903 3.56911 4.43899 6.12194 3.48133 7.26416C4.62846 8.13868 9.88025 9.4856 17.531 9.4856C25.1817 9.48558 30.296 8.17383 31.5273 7.29932C30.464 6.13915 24.9706 3.56909 17.2256 3.56909Z" fill="white"/>
</svg>
