<svg width="25" height="28" viewBox="0 0 25 28" fill="none" xmlns="http://www.w3.org/2000/svg">
<path d="M23.2647 22.749H7.76754C7.07611 22.749 6.51611 22.189 6.51611 21.4975C6.51611 20.8061 7.07611 20.2461 7.76754 20.2461H23.2647C23.9561 20.2461 24.5161 20.8061 24.5161 21.4975C24.5161 22.189 23.9561 22.749 23.2647 22.749Z" fill="white"/>
<path d="M23.2647 27.497H7.76754C7.07611 27.497 6.51611 26.937 6.51611 26.2456C6.51611 25.5541 7.07611 24.9941 7.76754 24.9941H23.2647C23.9561 24.9941 24.5161 25.5541 24.5161 26.2456C24.5161 26.937 23.9561 27.497 23.2647 27.497Z" fill="white"/>
<path d="M2.13921 22.9996C3.03549 22.9996 3.76207 22.273 3.76207 21.3768C3.76207 20.4805 3.03549 19.7539 2.13921 19.7539C1.24294 19.7539 0.516357 20.4805 0.516357 21.3768C0.516357 22.273 1.24294 22.9996 2.13921 22.9996Z" fill="white"/>
<path d="M2.13921 28.0001C3.03549 28.0001 3.76207 27.2735 3.76207 26.3773C3.76207 25.481 3.03549 24.7544 2.13921 24.7544C1.24294 24.7544 0.516357 25.481 0.516357 26.3773C0.516357 27.2735 1.24294 28.0001 2.13921 28.0001Z" fill="white"/>
<path d="M8.96211 8.48535H4.46497V16.4968H8.96211V8.48535Z" fill="white"/>
<path d="M15.7049 3.95996H11.2078V16.4971H15.7049V3.95996Z" fill="white"/>
<path d="M22.4477 0H17.9506V16.5029H22.4477V0Z" fill="white"/>
</svg>
