<svg width="29" height="36" viewBox="0 0 29 36" fill="none" xmlns="http://www.w3.org/2000/svg">
<path d="M23.3171 35.7602H5.71589C2.84792 35.7602 0.516357 33.4286 0.516357 30.5607V5.19953C0.516357 2.33157 2.84792 0 5.71589 0H13.8764C15.0994 0 16.2866 0.436275 17.2235 1.21585L26.6857 9.58374C27.8443 10.5564 28.5166 12.0083 28.5166 13.546V30.5607C28.5166 33.4286 26.185 35.7602 23.3171 35.7602ZM5.71589 2.43169C4.19251 2.43169 2.9552 3.669 2.9552 5.19238V30.5607C2.9552 32.0841 4.19251 33.3214 5.71589 33.3214H23.3171C24.8405 33.3214 26.0778 32.0841 26.0778 30.5607V13.546C26.0778 12.7235 25.7202 11.9582 25.0908 11.429L15.6286 3.06107C15.1566 2.66056 14.5201 2.43169 13.8764 2.43169H5.71589Z" fill="white"/>
<path d="M10.6723 10.8353H8.07612L7.54687 12.5446H5.40841L8.13334 4.74176H10.6938L13.433 12.5446H11.2016L10.6652 10.8353H10.6723ZM8.54816 9.20464H10.1931L9.37064 6.56553L8.54816 9.20464Z" fill="white"/>
<path d="M24.3613 12.6948H17.0376C15.9362 12.6948 15.0422 11.8008 15.0422 10.6994V3.71187L24.3613 12.6948Z" fill="white"/>
<path d="M6.76005 19.7325C6.08776 19.7325 5.5442 19.1889 5.5442 18.5166C5.5442 17.8443 6.08776 17.3008 6.76005 17.3008H21.9796C22.6519 17.3008 23.1954 17.8443 23.1954 18.5166C23.1954 19.1889 22.6519 19.7325 21.9796 19.7325H6.76005Z" fill="white"/>
<path d="M6.76005 24.7031C6.08776 24.7031 5.5442 24.1595 5.5442 23.4872C5.5442 22.815 6.08776 22.2714 6.76005 22.2714H21.9796C22.6519 22.2714 23.1954 22.815 23.1954 23.4872C23.1954 24.1595 22.6519 24.7031 21.9796 24.7031H6.76005Z" fill="white"/>
<path d="M6.76005 29.6811C6.08776 29.6811 5.5442 29.1375 5.5442 28.4652C5.5442 27.7929 6.08776 27.2494 6.76005 27.2494H21.9796C22.6519 27.2494 23.1954 27.7929 23.1954 28.4652C23.1954 29.1375 22.6519 29.6811 21.9796 29.6811H6.76005Z" fill="white"/>
</svg>
