<svg width="50" height="30" viewBox="0 0 50 30" fill="none" xmlns="http://www.w3.org/2000/svg">
<path d="M17.8146 23H16.9339C16.8818 22.7467 16.7907 22.5241 16.6605 22.3324C16.5326 22.1406 16.3764 21.9796 16.1917 21.8494C16.0094 21.7169 15.807 21.6174 15.5845 21.5511C15.3619 21.4848 15.1299 21.4517 14.8885 21.4517C14.4481 21.4517 14.0492 21.563 13.6917 21.7855C13.3366 22.008 13.0537 22.3359 12.843 22.7692C12.6347 23.2024 12.5305 23.7339 12.5305 24.3636C12.5305 24.9934 12.6347 25.5249 12.843 25.9581C13.0537 26.3913 13.3366 26.7192 13.6917 26.9418C14.0492 27.1643 14.4481 27.2756 14.8885 27.2756C15.1299 27.2756 15.3619 27.2424 15.5845 27.1761C15.807 27.1098 16.0094 27.0116 16.1917 26.8814C16.3764 26.7488 16.5326 26.5866 16.6605 26.3949C16.7907 26.2008 16.8818 25.9782 16.9339 25.7273H17.8146C17.7483 26.099 17.6276 26.4316 17.4524 26.7251C17.2772 27.0187 17.0594 27.2685 16.799 27.4744C16.5386 27.678 16.2462 27.8331 15.9218 27.9396C15.5999 28.0462 15.2554 28.0994 14.8885 28.0994C14.2682 28.0994 13.7166 27.9479 13.2336 27.6449C12.7507 27.3419 12.3707 26.911 12.0937 26.3523C11.8167 25.7936 11.6782 25.1307 11.6782 24.3636C11.6782 23.5966 11.8167 22.9337 12.0937 22.375C12.3707 21.8163 12.7507 21.3854 13.2336 21.0824C13.7166 20.7794 14.2682 20.6278 14.8885 20.6278C15.2554 20.6278 15.5999 20.6811 15.9218 20.7876C16.2462 20.8942 16.5386 21.0504 16.799 21.2564C17.0594 21.46 17.2772 21.7086 17.4524 22.0021C17.6276 22.2933 17.7483 22.6259 17.8146 23ZM19.7621 20.7273V28H18.9241V20.7273H19.7621ZM23.313 28.1136C22.8206 28.1136 22.3886 27.9964 22.0169 27.7621C21.6475 27.5277 21.3587 27.1998 21.1504 26.7784C20.9444 26.357 20.8414 25.8646 20.8414 25.3011C20.8414 24.733 20.9444 24.237 21.1504 23.8132C21.3587 23.3894 21.6475 23.0604 22.0169 22.826C22.3886 22.5916 22.8206 22.4744 23.313 22.4744C23.8055 22.4744 24.2363 22.5916 24.6056 22.826C24.9773 23.0604 25.2662 23.3894 25.4721 23.8132C25.6805 24.237 25.7846 24.733 25.7846 25.3011C25.7846 25.8646 25.6805 26.357 25.4721 26.7784C25.2662 27.1998 24.9773 27.5277 24.6056 27.7621C24.2363 27.9964 23.8055 28.1136 23.313 28.1136ZM23.313 27.3608C23.6871 27.3608 23.9949 27.2649 24.2363 27.0732C24.4778 26.8814 24.6565 26.6293 24.7725 26.3168C24.8886 26.0043 24.9466 25.6657 24.9466 25.3011C24.9466 24.9366 24.8886 24.5968 24.7725 24.282C24.6565 23.9671 24.4778 23.7126 24.2363 23.5185C23.9949 23.3243 23.6871 23.2273 23.313 23.2273C22.939 23.2273 22.6312 23.3243 22.3897 23.5185C22.1483 23.7126 21.9695 23.9671 21.8535 24.282C21.7375 24.5968 21.6795 24.9366 21.6795 25.3011C21.6795 25.6657 21.7375 26.0043 21.8535 26.3168C21.9695 26.6293 22.1483 26.8814 22.3897 27.0732C22.6312 27.2649 22.939 27.3608 23.313 27.3608ZM30.3014 25.7699V22.5455H31.1395V28H30.3014V27.0767H30.2446C30.1168 27.3537 29.9179 27.5893 29.648 27.7834C29.3781 27.9751 29.0372 28.071 28.6253 28.071C28.2844 28.071 27.9813 27.9964 27.7162 27.8473C27.451 27.6958 27.2427 27.4685 27.0912 27.1655C26.9397 26.8601 26.8639 26.4754 26.8639 26.0114V22.5455H27.702V25.9545C27.702 26.3523 27.8133 26.6695 28.0358 26.9062C28.2607 27.143 28.5472 27.2614 28.8952 27.2614C29.1035 27.2614 29.3154 27.2081 29.5308 27.1016C29.7486 26.995 29.9309 26.8317 30.0777 26.6115C30.2268 26.3913 30.3014 26.1108 30.3014 25.7699ZM34.5341 28.1136C34.0796 28.1136 33.6783 27.9988 33.3303 27.7692C32.9823 27.5372 32.71 27.2105 32.5135 26.7891C32.317 26.3653 32.2188 25.8646 32.2188 25.2869C32.2188 24.714 32.317 24.2169 32.5135 23.7955C32.71 23.3741 32.9835 23.0485 33.3338 22.8189C33.6842 22.5893 34.0891 22.4744 34.5483 22.4744C34.9034 22.4744 35.184 22.5336 35.39 22.652C35.5983 22.768 35.7569 22.9006 35.8658 23.0497C35.9771 23.1965 36.0635 23.3172 36.125 23.4119H36.1961V20.7273H37.0341V28H36.2245V27.1619H36.125C36.0635 27.2614 35.9759 27.3868 35.8623 27.5384C35.7486 27.6875 35.5864 27.8213 35.3757 27.9396C35.165 28.0556 34.8845 28.1136 34.5341 28.1136ZM34.6478 27.3608C34.9839 27.3608 35.268 27.2732 35.5 27.098C35.732 26.9205 35.9084 26.6754 36.0292 26.3629C36.1499 26.0481 36.2103 25.6847 36.2103 25.2727C36.2103 24.8655 36.1511 24.5092 36.0327 24.2038C35.9143 23.8961 35.7391 23.657 35.5071 23.4865C35.2751 23.3137 34.9887 23.2273 34.6478 23.2273C34.2926 23.2273 33.9967 23.3184 33.76 23.5007C33.5256 23.6806 33.3492 23.9257 33.2309 24.2358C33.1149 24.5436 33.0569 24.8892 33.0569 25.2727C33.0569 25.661 33.116 26.0137 33.2344 26.331C33.3551 26.6458 33.5327 26.8968 33.7671 27.0838C34.0038 27.2685 34.2974 27.3608 34.6478 27.3608Z" fill="white"/>
<path fill-rule="evenodd" clip-rule="evenodd" d="M39.2255 16.8697C36.9031 16.8697 35.0796 15.0024 35.0796 12.6363C35.0359 10.3567 36.8375 8.44673 39.1609 8.38212C41.4405 8.33841 43.3505 10.1619 43.3942 12.4415V12.6373C43.4379 14.9169 41.6144 16.8269 39.3347 16.8706H39.2264L39.2255 16.8697ZM39.2255 9.64119C37.6196 9.64119 36.3386 11.0086 36.3386 12.6363C36.3386 14.2641 37.5977 15.6315 39.2255 15.6315C40.8532 15.6315 42.1123 14.3287 42.1123 12.6363C42.1123 10.944 40.8532 9.64119 39.2255 9.64119ZM38.1403 13.3319V12.051H40.3544V13.3319H38.1403ZM31.997 11.9427C33.2779 12.5936 34.4287 13.2882 34.4287 14.7212C34.4287 16.0021 33.3653 16.8706 31.8459 16.8706C30.3265 16.8706 29.2194 15.9802 29.132 14.3962V14.2223H30.4129L30.4348 14.3743C30.5004 15.3075 31.2377 15.6553 31.8459 15.6553C32.6489 15.6553 33.1487 15.2647 33.1487 14.6784C33.1487 13.9838 32.5405 13.6151 31.5428 13.0934C30.1535 12.3551 29.3287 11.8999 29.3287 10.5107C29.3287 9.31715 30.3711 8.47049 31.7385 8.47049C33.1059 8.47049 34.1483 9.38177 34.1483 10.7064V10.8803H32.8674L32.8456 10.8366C32.9539 10.0764 32.3248 9.59938 31.6948 9.59938C31.0648 9.59938 30.5441 9.98992 30.5441 10.5325C30.5441 11.2271 31.0429 11.4875 31.8678 11.8781L31.9979 11.9436L31.997 11.9427ZM22.5982 10.7919V16.7613H21.3172V8.5123H22.5326L28.1761 16.7613H26.8305L22.5972 10.7919H22.5982ZM26.7659 8.5123H28.0468V10.7919H26.7659V8.5123ZM14.7397 10.7919V16.7613H13.4587V8.5123H14.6522L20.4915 16.7613H18.9502L14.7387 10.7919H14.7397ZM18.8856 8.5123H20.1665V10.7919H18.8856V8.5123ZM7.7497 8.5123H12.308V9.74951H9.00877V11.899H11.5488V13.1362H9.00877V15.5678H12.2861V16.7832H7.72785V8.5123H7.7497ZM4.08177 16.8697C1.78124 16.8697 0.000488281 15.0024 0.000488281 12.6363C0.000488281 10.2702 1.78029 8.46859 4.08177 8.46859C5.3627 8.46859 6.16565 8.9247 6.51344 9.22878L6.579 9.27249V10.6836L6.29678 10.4232C5.73234 9.9025 4.9731 9.62028 4.19105 9.62028C2.54143 9.64214 1.30422 11.0095 1.30422 12.6373C1.30422 14.2651 2.56329 15.6325 4.19105 15.6325C5.42826 15.6325 5.99271 15.1336 6.31864 14.8076L6.60086 14.5473V15.9584L6.53529 16.1541C5.7751 16.6102 4.92939 16.8488 4.08272 16.8706L4.08177 16.8697Z" fill="white"/>
<path d="M46.6563 5.94747C46.4004 3.83877 44.5379 2.19806 42.2859 2.19806C41.9393 2.19806 41.5966 2.23675 41.2615 2.31413C40.3183 0.877012 38.684 0 36.9016 0C34.2305 0 32.0262 1.96775 31.7646 4.48087C31.6978 4.47811 31.6319 4.47626 31.566 4.47626C29.7608 4.47626 28.2076 5.53107 27.5288 7.03452H28.7097C29.2997 6.10869 30.3594 5.48962 31.566 5.48962C31.7656 5.48962 31.9689 5.50804 32.1703 5.54305L32.7976 5.6536L32.789 5.03821L32.787 4.98202C32.787 2.79317 34.6324 1.01335 36.8997 1.01335C38.4357 1.01335 39.8324 1.83049 40.5455 3.14601L40.7556 3.53292L41.1832 3.38921C41.5384 3.27037 41.9078 3.20957 42.283 3.20957C44.1284 3.20957 45.63 4.65683 45.6338 6.43757V6.99583L46.1961 6.95714C46.2687 6.95253 46.3269 6.94977 46.3813 6.94977C47.7981 6.94977 48.9503 8.0617 48.9503 9.4288C48.9503 10.7959 47.7981 11.9078 46.3813 11.9078H44.9513V12.9212H46.3813C48.3766 12.9212 50.0004 11.3542 50.0004 9.4288C50.0004 7.50343 48.5226 6.08105 46.6544 5.94563L46.6563 5.94747Z" fill="white"/>
</svg>
