<svg width="36" height="46" viewBox="0 0 36 46" fill="none" xmlns="http://www.w3.org/2000/svg">
<path d="M0 22.75C0 35.75 9.78397 46 22.3275 46C27.0941 45.875 31.7352 44.625 35.7491 42.25L36 41.25V33.5L34.4948 34.875C32.7387 36.625 29.4774 39.375 22.8293 39.375C13.7979 39.375 7.02439 31.875 7.02439 22.875C7.02439 13.875 13.7979 6.375 22.8293 6.375C27.2195 6.375 31.3589 8 34.4948 10.875L36 12.25V4.5L35.7491 4.25C33.7422 2.5 29.2265 0 22.3275 0C9.78397 0 0 9.75 0 22.75Z" fill="white"/>
<path d="M15.8046 18.875H28.9753V26.375H15.8046V18.875Z" fill="white"/>
</svg>
