<svg width="78" height="60" viewBox="0 0 78 60" fill="none" xmlns="http://www.w3.org/2000/svg">
<path d="M12.8736 47.652H9.67756C9.63494 47.3239 9.54759 47.0277 9.41548 46.7635C9.28338 46.4993 9.10867 46.2734 8.89134 46.0859C8.67401 45.8984 8.41619 45.7557 8.1179 45.6577C7.82386 45.5554 7.49787 45.5043 7.13991 45.5043C6.50497 45.5043 5.95739 45.6598 5.49716 45.9709C5.04119 46.282 4.68963 46.7315 4.44247 47.3196C4.19957 47.9077 4.07812 48.6193 4.07812 49.4545C4.07812 50.3239 4.2017 51.0526 4.44886 51.6406C4.70028 52.2244 5.05185 52.6655 5.50355 52.9638C5.95952 53.2578 6.49858 53.4048 7.12074 53.4048C7.47017 53.4048 7.78764 53.3601 8.07315 53.2706C8.36293 53.1811 8.61648 53.0511 8.83381 52.8807C9.0554 52.706 9.23651 52.495 9.37713 52.2479C9.52202 51.9964 9.62216 51.7131 9.67756 51.3977L12.8736 51.4169C12.8182 51.9964 12.6499 52.5675 12.3686 53.13C12.0916 53.6925 11.7102 54.206 11.2244 54.6705C10.7386 55.1307 10.1463 55.4972 9.44744 55.7699C8.75284 56.0426 7.95597 56.179 7.05682 56.179C5.87216 56.179 4.81108 55.919 3.87358 55.3991C2.94034 54.875 2.20313 54.1122 1.66193 53.1108C1.12074 52.1094 0.850142 50.8906 0.850142 49.4545C0.850142 48.0142 1.125 46.7933 1.67472 45.7919C2.22443 44.7905 2.96804 44.0298 3.90554 43.5099C4.84304 42.9901 5.89347 42.7301 7.05682 42.7301C7.84943 42.7301 8.58239 42.8409 9.25568 43.0625C9.92898 43.2798 10.5213 43.5994 11.0327 44.0213C11.544 44.4389 11.9595 44.9524 12.2791 45.5618C12.5987 46.1712 12.7969 46.8679 12.8736 47.652ZM14.6841 56V42.9091H23.812V45.4787H17.8482V48.1634H23.3453V50.7393H17.8482V53.4304H23.812V56H14.6841ZM36.9348 42.9091V56H34.2502L29.0407 48.4446H28.9576V56H25.7935V42.9091H28.5165L33.6685 50.4517H33.7772V42.9091H36.9348ZM50.0657 42.9091V56H47.381L42.1715 48.4446H42.0884V56H38.9244V42.9091H41.6474L46.7994 50.4517H46.908V42.9091H50.0657ZM59.1312 46.8338C59.0886 46.3651 58.899 46.0007 58.5623 45.7408C58.2299 45.4766 57.7548 45.3445 57.1369 45.3445C56.7278 45.3445 56.3869 45.3977 56.1142 45.5043C55.8414 45.6108 55.6369 45.7578 55.5005 45.9453C55.3642 46.1286 55.2939 46.3395 55.2896 46.5781C55.2811 46.7741 55.3194 46.9467 55.4047 47.0959C55.4941 47.245 55.622 47.3771 55.7882 47.4922C55.9586 47.603 56.1632 47.701 56.4018 47.7862C56.6404 47.8714 56.9089 47.946 57.2072 48.0099L58.3322 48.2656C58.9799 48.4062 59.551 48.5938 60.0453 48.8281C60.5439 49.0625 60.9615 49.3416 61.2981 49.6655C61.639 49.9893 61.8968 50.3622 62.0716 50.7841C62.2463 51.206 62.3358 51.679 62.34 52.2031C62.3358 53.0298 62.127 53.7393 61.7136 54.3317C61.3002 54.924 60.7058 55.3778 59.9302 55.6932C59.1589 56.0085 58.2278 56.1662 57.1369 56.1662C56.0417 56.1662 55.0872 56.0021 54.2733 55.674C53.4593 55.3459 52.8265 54.8473 52.3748 54.1783C51.9231 53.5092 51.6909 52.6634 51.6781 51.6406H54.7079C54.7335 52.0625 54.8464 52.4141 55.0467 52.6953C55.247 52.9766 55.5218 53.1896 55.8713 53.3345C56.225 53.4794 56.6341 53.5518 57.0985 53.5518C57.5247 53.5518 57.8869 53.4943 58.1852 53.3793C58.4877 53.2642 58.72 53.1044 58.8819 52.8999C59.0439 52.6953 59.127 52.4609 59.1312 52.1967C59.127 51.9496 59.0502 51.7386 58.9011 51.5639C58.752 51.3849 58.5218 51.2315 58.2108 51.1037C57.9039 50.9716 57.5119 50.8501 57.0346 50.7393L55.6667 50.4197C54.5332 50.1598 53.6404 49.7401 52.9885 49.1605C52.3365 48.5767 52.0126 47.7884 52.0169 46.7955C52.0126 45.9858 52.2299 45.2763 52.6689 44.6669C53.1078 44.0575 53.715 43.5824 54.4906 43.2415C55.2662 42.9006 56.1504 42.7301 57.1433 42.7301C58.1575 42.7301 59.0375 42.9027 59.7832 43.2479C60.5332 43.5888 61.1149 44.0682 61.5282 44.6861C61.9416 45.304 62.1525 46.0199 62.161 46.8338H59.1312ZM76.2939 49.4545C76.2939 50.8949 76.0169 52.1158 75.4629 53.1172C74.9089 54.1186 74.1589 54.8793 73.2129 55.3991C72.2711 55.919 71.2143 56.179 70.0424 56.179C68.8663 56.179 67.8074 55.9169 66.8656 55.3928C65.9238 54.8686 65.176 54.108 64.622 53.1108C64.0723 52.1094 63.7974 50.8906 63.7974 49.4545C63.7974 48.0142 64.0723 46.7933 64.622 45.7919C65.176 44.7905 65.9238 44.0298 66.8656 43.5099C67.8074 42.9901 68.8663 42.7301 70.0424 42.7301C71.2143 42.7301 72.2711 42.9901 73.2129 43.5099C74.1589 44.0298 74.9089 44.7905 75.4629 45.7919C76.0169 46.7933 76.2939 48.0142 76.2939 49.4545ZM73.0595 49.4545C73.0595 48.6023 72.938 47.8821 72.6951 47.294C72.4565 46.706 72.1113 46.2607 71.6596 45.9581C71.2122 45.6555 70.6731 45.5043 70.0424 45.5043C69.416 45.5043 68.877 45.6555 68.4252 45.9581C67.9735 46.2607 67.6262 46.706 67.3833 47.294C67.1447 47.8821 67.0254 48.6023 67.0254 49.4545C67.0254 50.3068 67.1447 51.027 67.3833 51.6151C67.6262 52.2031 67.9735 52.6484 68.4252 52.951C68.877 53.2536 69.416 53.4048 70.0424 53.4048C70.6731 53.4048 71.2122 53.2536 71.6596 52.951C72.1113 52.6484 72.4565 52.2031 72.6951 51.6151C72.938 51.027 73.0595 50.3068 73.0595 49.4545Z" fill="white"/>
<path d="M36.1379 9.90222V13.9419H39.3155V9.90222C41.3428 9.2353 42.8108 7.32345 42.8108 5.08132C42.8108 2.28024 40.5293 0 37.7267 0C34.9241 0 32.6426 2.28024 32.6426 5.08132C32.6426 7.3298 34.1106 9.2353 36.1379 9.90222ZM37.7267 2.54066C39.1312 2.54066 40.2687 3.6776 40.2687 5.08132C40.2687 6.48503 39.1312 7.62198 37.7267 7.62198C36.3222 7.62198 35.1846 6.48503 35.1846 5.08132C35.1846 3.6776 36.3222 2.54066 37.7267 2.54066Z" fill="white"/>
<path d="M49.9159 22.8659C48.969 22.8659 48.0793 23.1327 47.323 23.5837L43.0778 20.103V24.1998L45.2322 25.9782C44.9779 26.5816 44.8381 27.2486 44.8381 27.9473C44.8381 30.7483 47.1196 33.0286 49.9222 33.0286C52.7249 33.0286 55.0064 30.7483 55.0064 27.9473C55.0064 25.1462 52.7249 22.8659 49.9222 22.8659H49.9159ZM49.9159 30.4879C48.5114 30.4879 47.3738 29.351 47.3738 27.9473C47.3738 26.5435 48.5114 25.4066 49.9159 25.4066C51.3204 25.4066 52.4579 26.5435 52.4579 27.9473C52.4579 29.351 51.3204 30.4879 49.9159 30.4879Z" fill="white"/>
<path d="M32.6807 24.2951V20.103L28.8422 23.3677C28.0479 22.8532 27.1009 22.5484 26.0841 22.5484C23.2815 22.5484 21 24.8286 21 27.6297C21 30.4307 23.2815 32.711 26.0841 32.711C28.8867 32.711 31.1682 30.4307 31.1682 27.6297C31.1682 27.0009 31.0475 26.3974 30.8378 25.8449L32.6871 24.2951H32.6807ZM26.0841 30.1703C24.6796 30.1703 23.5421 29.0334 23.5421 27.6297C23.5421 26.226 24.6796 25.089 26.0841 25.089C27.4886 25.089 28.6262 26.226 28.6262 27.6297C28.6262 29.0334 27.4886 30.1703 26.0841 30.1703Z" fill="white"/>
<path d="M41.5398 15.3328H33.9136V22.9547H41.5398V15.3328Z" fill="white"/>
</svg>
