<svg width="118" height="34" viewBox="0 0 118 34" fill="none" xmlns="http://www.w3.org/2000/svg">
<path d="M52.8799 16.1661H49.6839C49.6413 15.838 49.5539 15.5419 49.4218 15.2777C49.2897 15.0134 49.115 14.7876 48.8977 14.6001C48.6804 14.4126 48.4225 14.2698 48.1242 14.1718C47.8302 14.0696 47.5042 14.0184 47.1463 14.0184C46.5113 14.0184 45.9637 14.174 45.5035 14.485C45.0475 14.7961 44.696 15.2457 44.4488 15.8338C44.2059 16.4218 44.0845 17.1335 44.0845 17.9687C44.0845 18.838 44.2081 19.5667 44.4552 20.1548C44.7066 20.7386 45.0582 21.1796 45.5099 21.4779C45.9659 21.772 46.5049 21.919 47.1271 21.919C47.4765 21.919 47.794 21.8742 48.0795 21.7848C48.3693 21.6953 48.6228 21.5653 48.8402 21.3948C49.0617 21.2201 49.2429 21.0092 49.3835 20.762C49.5284 20.5106 49.6285 20.2272 49.6839 19.9119L52.8799 19.9311C52.8245 20.5106 52.6562 21.0816 52.375 21.6441C52.098 22.2066 51.7166 22.7201 51.2308 23.1846C50.745 23.6448 50.1527 24.0113 49.4538 24.284C48.7592 24.5568 47.9623 24.6931 47.0632 24.6931C45.8785 24.6931 44.8174 24.4332 43.8799 23.9133C42.9467 23.3892 42.2095 22.6264 41.6683 21.625C41.1271 20.6235 40.8565 19.4048 40.8565 17.9687C40.8565 16.5284 41.1313 15.3075 41.6811 14.3061C42.2308 13.3046 42.9744 12.544 43.9119 12.0241C44.8494 11.5042 45.8998 11.2443 47.0632 11.2443C47.8558 11.2443 48.5887 11.3551 49.262 11.5767C49.9353 11.794 50.5277 12.1136 51.039 12.5355C51.5504 12.9531 51.9659 13.4666 52.2855 14.076C52.6051 14.6853 52.8032 15.3821 52.8799 16.1661ZM54.6905 24.5142V11.4233H63.8183V13.9929H57.8545V16.6775H63.3517V19.2535H57.8545V21.9446H63.8183V24.5142H54.6905ZM76.9412 11.4233V24.5142H74.2565L69.047 16.9588H68.9639V24.5142H65.7998V11.4233H68.5229L73.6748 18.9659H73.7835V11.4233H76.9412ZM90.072 11.4233V24.5142H87.3874L82.1779 16.9588H82.0948V24.5142H78.9307V11.4233H81.6537L86.8057 18.9659H86.9144V11.4233H90.072ZM99.1376 15.348C99.0949 14.8792 98.9053 14.5149 98.5687 14.2549C98.2363 13.9907 97.7611 13.8586 97.1432 13.8586C96.7342 13.8586 96.3932 13.9119 96.1205 14.0184C95.8478 14.125 95.6432 14.272 95.5069 14.4595C95.3705 14.6427 95.3002 14.8536 95.2959 15.0923C95.2874 15.2883 95.3258 15.4609 95.411 15.61C95.5005 15.7592 95.6283 15.8913 95.7945 16.0063C95.965 16.1171 96.1695 16.2152 96.4082 16.3004C96.6468 16.3856 96.9153 16.4602 97.2136 16.5241L98.3386 16.7798C98.9863 16.9204 99.5573 17.1079 100.052 17.3423C100.55 17.5767 100.968 17.8558 101.304 18.1796C101.645 18.5035 101.903 18.8764 102.078 19.2983C102.253 19.7201 102.342 20.1931 102.346 20.7173C102.342 21.544 102.133 22.2535 101.72 22.8458C101.307 23.4382 100.712 23.892 99.9366 24.2073C99.1653 24.5227 98.2342 24.6804 97.1432 24.6804C96.0481 24.6804 95.0935 24.5163 94.2796 24.1882C93.4657 23.86 92.8329 23.3615 92.3812 22.6924C91.9295 22.0234 91.6972 21.1775 91.6844 20.1548H94.7143C94.7398 20.5767 94.8528 20.9282 95.053 21.2095C95.2533 21.4907 95.5282 21.7038 95.8776 21.8487C96.2313 21.9936 96.6404 22.066 97.1049 22.066C97.531 22.066 97.8932 22.0085 98.1915 21.8934C98.4941 21.7784 98.7263 21.6186 98.8883 21.414C99.0502 21.2095 99.1333 20.9751 99.1376 20.7109C99.1333 20.4637 99.0566 20.2528 98.9074 20.0781C98.7583 19.8991 98.5282 19.7457 98.2171 19.6179C97.9103 19.4858 97.5182 19.3643 97.041 19.2535L95.6731 18.9339C94.5396 18.674 93.6468 18.2542 92.9948 17.6747C92.3428 17.0909 92.019 16.3025 92.0232 15.3096C92.019 14.5 92.2363 13.7904 92.6752 13.1811C93.1141 12.5717 93.7214 12.0965 94.4969 11.7556C95.2725 11.4147 96.1567 11.2443 97.1496 11.2443C98.1638 11.2443 99.0438 11.4169 99.7896 11.762C100.54 12.1029 101.121 12.5823 101.535 13.2002C101.948 13.8181 102.159 14.534 102.167 15.348H99.1376ZM116.3 17.9687C116.3 19.409 116.023 20.6299 115.469 21.6313C114.915 22.6328 114.165 23.3934 113.219 23.9133C112.277 24.4332 111.221 24.6931 110.049 24.6931C108.873 24.6931 107.814 24.4311 106.872 23.9069C105.93 23.3828 105.182 22.6221 104.628 21.625C104.079 20.6235 103.804 19.4048 103.804 17.9687C103.804 16.5284 104.079 15.3075 104.628 14.3061C105.182 13.3046 105.93 12.544 106.872 12.0241C107.814 11.5042 108.873 11.2443 110.049 11.2443C111.221 11.2443 112.277 11.5042 113.219 12.0241C114.165 12.544 114.915 13.3046 115.469 14.3061C116.023 15.3075 116.3 16.5284 116.3 17.9687ZM113.066 17.9687C113.066 17.1164 112.944 16.3963 112.701 15.8082C112.463 15.2201 112.118 14.7748 111.666 14.4723C111.219 14.1697 110.679 14.0184 110.049 14.0184C109.422 14.0184 108.883 14.1697 108.432 14.4723C107.98 14.7748 107.633 15.2201 107.39 15.8082C107.151 16.3963 107.032 17.1164 107.032 17.9687C107.032 18.821 107.151 19.5411 107.39 20.1292C107.633 20.7173 107.98 21.1626 108.432 21.4652C108.883 21.7677 109.422 21.919 110.049 21.919C110.679 21.919 111.219 21.7677 111.666 21.4652C112.118 21.1626 112.463 20.7173 112.701 20.1292C112.944 19.5411 113.066 18.821 113.066 17.9687Z" fill="white"/>
<path d="M15.1379 9.90222V13.9419H18.3155V9.90222C20.3428 9.2353 21.8108 7.32345 21.8108 5.08132C21.8108 2.28024 19.5293 0 16.7267 0C13.9241 0 11.6426 2.28024 11.6426 5.08132C11.6426 7.3298 13.1106 9.2353 15.1379 9.90222ZM16.7267 2.54066C18.1312 2.54066 19.2687 3.6776 19.2687 5.08132C19.2687 6.48503 18.1312 7.62198 16.7267 7.62198C15.3222 7.62198 14.1846 6.48503 14.1846 5.08132C14.1846 3.6776 15.3222 2.54066 16.7267 2.54066Z" fill="white"/>
<path d="M28.9159 22.8659C27.969 22.8659 27.0793 23.1327 26.323 23.5837L22.0778 20.103V24.1998L24.2322 25.9782C23.9779 26.5816 23.8381 27.2486 23.8381 27.9473C23.8381 30.7483 26.1196 33.0286 28.9222 33.0286C31.7249 33.0286 34.0064 30.7483 34.0064 27.9473C34.0064 25.1462 31.7249 22.8659 28.9222 22.8659H28.9159ZM28.9159 30.4879C27.5114 30.4879 26.3738 29.351 26.3738 27.9473C26.3738 26.5435 27.5114 25.4066 28.9159 25.4066C30.3204 25.4066 31.4579 26.5435 31.4579 27.9473C31.4579 29.351 30.3204 30.4879 28.9159 30.4879Z" fill="white"/>
<path d="M11.6807 24.2951V20.103L7.84224 23.3677C7.04785 22.8532 6.10093 22.5484 5.08411 22.5484C2.2815 22.5484 0 24.8286 0 27.6297C0 30.4307 2.2815 32.711 5.08411 32.711C7.88673 32.711 10.1682 30.4307 10.1682 27.6297C10.1682 27.0009 10.0475 26.3974 9.83776 25.8449L11.6871 24.2951H11.6807ZM5.08411 30.1703C3.67963 30.1703 2.54206 29.0334 2.54206 27.6297C2.54206 26.226 3.67963 25.089 5.08411 25.089C6.4886 25.089 7.62617 26.226 7.62617 27.6297C7.62617 29.0334 6.4886 30.1703 5.08411 30.1703Z" fill="white"/>
<path d="M20.5398 15.3328H12.9136V22.9547H20.5398V15.3328Z" fill="white"/>
</svg>
