<svg width="68" height="60" viewBox="0 0 68 60" fill="none" xmlns="http://www.w3.org/2000/svg">
<path d="M47.3576 0C49.5011 3.3405e-05 51.4821 1.14362 52.5538 3L66.34 26.8779C67.4116 28.7342 67.4116 31.0216 66.34 32.8779L52.5538 56.7559C51.4821 58.6122 49.5011 59.7558 47.3576 59.7559H19.7853C17.6419 59.7557 15.6617 58.612 14.59 56.7559L0.803844 32.8779C-0.267948 31.0215 -0.267948 28.7343 0.803844 26.8779L14.59 3C15.6617 1.14384 17.6419 0.00013685 19.7853 0H47.3576ZM20.8458 41.1455L18.7872 39.0889C18.2249 38.5275 17.2506 38.8677 17.171 39.666L16.379 47.3213C16.3159 47.922 16.8222 48.4194 17.424 48.3643L25.0919 47.5742C25.892 47.4951 26.2325 46.5224 25.6701 45.9609L23.5392 43.834L29.9161 37.4678L27.2228 34.7793L20.8458 41.1455ZM37.9874 33.2852C37.3856 33.2222 36.8871 33.7283 36.9425 34.3291L37.7345 41.9834C37.8137 42.7821 38.7883 43.122 39.3507 42.5605L41.3781 40.5361L48.1671 47.3135L50.8605 44.625L50.8683 44.6172L44.0792 37.8398L46.2345 35.6895C46.7968 35.128 46.4554 34.1552 45.6554 34.0762L37.9874 33.2852ZM19.0324 12.3779C16.8461 12.3779 15.0714 14.1496 15.0714 16.332V27.4023C15.0716 29.5847 16.8461 31.3555 19.0324 31.3555H30.1222C32.3084 31.3555 34.083 29.5847 34.0831 27.4023V16.332C34.0831 14.1496 32.3085 12.3779 30.1222 12.3779H19.0324ZM27.0167 15.2959C27.5475 15.2959 28.1736 15.3112 28.9103 15.335L28.5617 17.0596C28.3795 17.0596 28.1579 17.0587 27.8966 17.0508C27.6431 17.0508 27.3731 17.0352 27.0958 17.0352C26.8188 17.0351 26.5496 17.0273 26.2804 17.0273H25.5275C24.8147 17.0274 24.2444 17.075 23.8009 17.1777C23.3573 17.2726 23.0163 17.4779 22.7628 17.7705C22.5094 18.071 22.3431 18.4905 22.256 19.0361C22.1689 19.5816 22.1291 20.3011 22.129 21.1943V22.5312C22.129 23.401 22.1774 24.1048 22.2804 24.6504C22.3755 25.1959 22.5572 25.6234 22.8107 25.9238C23.0642 26.2242 23.4209 26.4372 23.8644 26.5479C24.308 26.6585 24.8861 26.7139 25.5831 26.7139H27.0724C27.603 26.7139 28.2525 26.6985 29.0206 26.6748L28.673 28.3984H28.6886C28.0232 28.4222 27.4131 28.4375 26.8507 28.4375H25.5988C24.5454 28.4375 23.666 28.3277 22.9611 28.1143C22.2561 27.9008 21.6935 27.5603 21.2658 27.0938C20.846 26.6272 20.5455 26.0177 20.3712 25.2666C20.197 24.5155 20.1095 23.5986 20.1095 22.5234V21.1865C20.1095 20.0639 20.2046 19.1232 20.3947 18.3721C20.5848 17.6209 20.8937 17.0114 21.3214 16.5527C21.7492 16.0942 22.312 15.7698 23.0011 15.5801C23.6902 15.3904 24.5458 15.2959 25.5675 15.2959H27.0167ZM50.0206 13.5244L42.3527 14.3154C41.5526 14.3945 41.2121 15.3673 41.7745 15.9287L43.9054 18.0557L37.465 24.4844L40.1583 27.1729L46.5988 20.7441L48.6583 22.7998C49.2208 23.3611 50.1943 23.0213 50.2736 22.2227L51.0665 14.5684C51.1299 13.9674 50.6226 13.4691 50.0206 13.5244Z" fill="white"/>
</svg>
