<svg width="72" height="67" viewBox="0 0 72 67" fill="none" xmlns="http://www.w3.org/2000/svg">
<path d="M48.2859 0.62207C50.4294 0.622143 52.4104 1.76572 53.4822 3.62207L67.2683 27.5C67.642 28.1474 67.8818 28.8478 67.9949 29.5635L70.2673 33.5C71.3391 35.3564 71.3391 37.6436 70.2673 39.5L56.4822 63.3779C55.4104 65.2342 53.4294 66.3778 51.2859 66.3779H23.7136L23.3142 66.3643C21.3264 66.2318 19.5221 65.1183 18.5173 63.3779L4.73218 39.5L4.5437 39.1475C4.27434 38.5999 4.09429 38.021 4.00171 37.4316L1.73218 33.5C0.660385 31.6436 0.660385 29.3564 1.73218 27.5L15.5183 3.62207C16.5901 1.76594 18.5703 0.622207 20.7136 0.62207H48.2859ZM67.9783 31.5352C67.859 32.2164 67.6248 32.8824 67.2683 33.5L53.4822 57.3779C52.4104 59.2343 50.4294 60.3779 48.2859 60.3779H20.7136C19.4886 60.3779 18.3179 60.0026 17.3386 59.3359L19.3835 62.8779C20.2766 64.4248 21.9274 65.3778 23.7136 65.3779H51.2859C53.0721 65.3778 54.7228 64.4248 55.616 62.8779L69.4021 39C70.2951 37.4531 70.2951 35.5469 69.4021 34L67.9783 31.5352ZM22.7742 41.7676L20.7156 39.7109C20.1533 39.1496 19.1789 39.4898 19.0994 40.2881L18.3074 47.9434C18.2443 48.5441 18.7505 49.0415 19.3523 48.9863L27.0203 48.1963C27.8202 48.1171 28.1607 47.1444 27.5984 46.583L25.4675 44.4561L31.8445 38.0898L29.1511 35.4014L22.7742 41.7676ZM39.9158 33.9072C39.314 33.8443 38.8154 34.3504 38.8708 34.9512L39.6628 42.6055C39.7421 43.4041 40.7166 43.744 41.2791 43.1826L43.3064 41.1582L50.0955 47.9355L52.7888 45.2471L52.7966 45.2393L46.0076 38.4619L48.1628 36.3115C48.725 35.7501 48.3836 34.7774 47.5837 34.6982L39.9158 33.9072ZM20.9607 13C18.7744 13 16.9998 14.7716 16.9998 16.9541V28.0244C16.9999 30.2068 18.7745 31.9775 20.9607 31.9775H32.0505C34.2367 31.9775 36.0113 30.2067 36.0115 28.0244V16.9541C36.0115 14.7717 34.2368 13.0001 32.0505 13H20.9607ZM28.9451 15.918C29.4758 15.918 30.102 15.9333 30.8386 15.957L30.49 17.6816C30.3079 17.6816 30.0862 17.6807 29.825 17.6729C29.5715 17.6729 29.3014 17.6572 29.0242 17.6572C28.7471 17.6572 28.4779 17.6494 28.2087 17.6494H27.4558C26.7431 17.6494 26.1728 17.697 25.7292 17.7998C25.2857 17.8947 24.9446 18.1 24.6912 18.3926C24.4377 18.6931 24.2715 19.1126 24.1843 19.6582C24.0972 20.2037 24.0574 20.9231 24.0574 21.8164V23.1533C24.0574 24.0231 24.1058 24.7269 24.2087 25.2725C24.3038 25.818 24.4856 26.2454 24.739 26.5459C24.9925 26.8462 25.3493 27.0592 25.7927 27.1699C26.2363 27.2806 26.8145 27.3359 27.5115 27.3359H29.0007C29.5313 27.3359 30.1809 27.3206 30.949 27.2969L30.6013 29.0205H30.6169C29.9516 29.0442 29.3414 29.0596 28.7791 29.0596H27.5271C26.4737 29.0595 25.5943 28.9498 24.8894 28.7363C24.1844 28.5228 23.6218 28.1823 23.1941 27.7158C22.7743 27.2493 22.4738 26.6398 22.2996 25.8887C22.1254 25.1376 22.0379 24.2206 22.0378 23.1455V21.8086C22.0379 20.686 22.133 19.7452 22.323 18.9941C22.5131 18.2429 22.822 17.6334 23.2498 17.1748C23.6775 16.7163 24.2404 16.3919 24.9294 16.2021C25.6185 16.0124 26.4742 15.918 27.4958 15.918H28.9451ZM51.949 14.1465L44.281 14.9375C43.481 15.0166 43.1405 15.9894 43.7029 16.5508L45.8337 18.6777L39.3933 25.1064L42.0867 27.7949L48.5271 21.3662L50.5867 23.4219C51.1491 23.9831 52.1227 23.6433 52.2019 22.8447L52.9949 15.1904C53.0582 14.5895 52.5509 14.0913 51.949 14.1465Z" fill="white"/>
</svg>
