<svg width="28" height="27" viewBox="0 0 28 27" fill="none" xmlns="http://www.w3.org/2000/svg">
<g clip-path="url(#clip0_310_3145)">
<path d="M6.85714 23.5952L11.632 18.8204L9.61527 16.8037L4.84045 21.5785L3.29827 20.0364C2.87714 19.6152 2.14757 19.8703 2.08825 20.4694L1.49511 26.211C1.44765 26.6618 1.82727 27.0355 2.27806 26.994L8.01971 26.4008C8.61879 26.3415 8.87384 25.6119 8.45271 25.1908L6.85714 23.5952Z" fill="white"/>
<path d="M11.7861 0H3.48209C1.845 0 0.516357 1.32865 0.516357 2.96573V11.2698C0.516357 12.9069 1.845 14.2355 3.48209 14.2355H11.7861C13.4232 14.2355 14.7519 12.9069 14.7519 11.2698V2.96573C14.7519 1.32865 13.4232 0 11.7861 0ZM10.7125 12.0171C10.2143 12.0349 9.75757 12.0468 9.33644 12.0468H8.39927C7.61038 12.0468 6.95199 11.9638 6.42409 11.8036C5.89619 11.6435 5.47506 11.3884 5.15476 11.0384C4.84039 10.6885 4.615 10.2318 4.4845 9.66828C4.35401 9.10479 4.28877 8.41674 4.28877 7.61006V6.60765C4.28877 5.76538 4.35994 5.05953 4.5023 4.49605C4.64465 3.93256 4.87598 3.47583 5.19628 3.13181C5.51658 2.78779 5.93771 2.5446 6.45375 2.40224C6.96979 2.25989 7.61038 2.18871 8.37554 2.18871H9.461C9.85841 2.18871 10.327 2.20057 10.8786 2.21837L10.6176 3.51142C10.4812 3.51142 10.3151 3.51142 10.1194 3.50549C9.92958 3.50549 9.72791 3.49363 9.52031 3.49363C9.31271 3.49363 9.11104 3.4877 8.90937 3.4877H8.34588C7.81205 3.4877 7.38499 3.52329 7.05283 3.6004C6.72066 3.67157 6.46561 3.82579 6.2758 4.04525C6.086 4.27065 5.96144 4.58502 5.89619 4.99429C5.83094 5.40356 5.80129 5.94332 5.80129 6.61358V7.61599C5.80129 8.26845 5.83688 8.79635 5.91399 9.20562C5.98516 9.61489 6.12159 9.93519 6.31139 10.1606C6.5012 10.386 6.76812 10.5461 7.10028 10.6292C7.43244 10.7122 7.86544 10.7537 8.3874 10.7537H9.50252C9.89993 10.7537 10.3863 10.7419 10.9617 10.7241L10.7007 12.0171H10.7125Z" fill="white"/>
<path d="M27.3207 24.1825L22.2374 19.0992L23.8508 17.4859C24.2719 17.0648 24.0169 16.3352 23.4178 16.2759L17.6761 15.6827C17.2253 15.6353 16.8517 16.0149 16.8932 16.4657L17.4863 22.2073C17.5456 22.8064 18.2752 23.0615 18.6963 22.6403L20.2148 21.1219L25.298 26.2051L27.3147 24.1884L27.3207 24.1825Z" fill="white"/>
<path d="M26.6859 0.860091L20.9443 1.45324C20.3452 1.51255 20.0901 2.24212 20.5113 2.66325L22.1068 4.25882L17.2845 9.08109L19.3012 11.0978L24.1235 6.27551L25.6657 7.81769C26.0868 8.23883 26.8164 7.98377 26.8757 7.3847L27.4689 1.64304C27.5163 1.19225 27.1367 0.818571 26.6859 0.860091Z" fill="white"/>
</g>
<defs>
<clipPath id="clip0_310_3145">
<rect width="26.9525" height="27" fill="white" transform="translate(0.516357)"/>
</clipPath>
</defs>
</svg>
