<svg width="44" height="39" viewBox="0 0 44 39" fill="none" xmlns="http://www.w3.org/2000/svg">
<path d="M24.0151 11.7429V6.86102H26.4908C27.1796 6.86102 27.5615 6.05427 27.125 5.51644L22.9648 0.310488C22.6375 -0.0963346 22.0169 -0.0963346 21.6895 0.310488L17.5225 5.51644C17.0928 6.05427 17.4679 6.86102 18.1567 6.86102H20.5983V10.7845C20.687 10.7845 20.7688 10.7707 20.8575 10.7707C21.9964 10.7707 23.0876 11.1154 24.0083 11.7429H24.0151Z" fill="white"/>
<path d="M43.5202 20.3136L38.3712 16.1005C37.8392 15.6661 37.0413 16.0454 37.0413 16.7418V19.2103H33.5972C34.1223 19.9826 34.4428 20.9273 34.4428 21.9547C34.4428 22.196 34.4224 22.4235 34.3883 22.658H37.0413V25.161C37.0413 25.8574 37.8392 26.2435 38.3712 25.8022L43.5202 21.5892C43.9226 21.2582 43.9226 20.6308 43.5202 20.2998V20.3136Z" fill="white"/>
<path d="M10.9344 19.0518H7.61304V16.5488C7.61304 15.8524 6.81511 15.4662 6.28315 15.9075L1.13406 20.1137C0.731681 20.4446 0.731681 21.0721 1.13406 21.4031L6.28315 25.6161C6.81511 26.0505 7.61304 25.6713 7.61304 24.9749V22.5063H10.682C10.5866 22.0857 10.5252 21.6513 10.5252 21.1962C10.5252 20.4377 10.6752 19.7206 10.9344 19.0587V19.0518Z" fill="white"/>
<path d="M32.9902 21.9615C32.9902 21.2858 32.7992 20.6652 32.4787 20.1411C31.9399 19.2792 31.0328 18.7069 30.003 18.7069C29.928 18.7069 29.8598 18.7069 29.7916 18.7138C29.7916 18.7138 29.7916 18.7138 29.7916 18.7069C29.7916 16.4591 28.1207 14.6318 26.0542 14.6318C25.836 14.6318 25.6314 14.6525 25.4268 14.687C25.2222 14.7214 25.0244 14.7835 24.8335 14.8525C24.6493 14.4663 24.4106 14.1078 24.1378 13.7837C24.0969 13.7423 24.056 13.7009 24.0151 13.6596C23.7696 13.3975 23.5036 13.1562 23.2103 12.9562C22.8693 12.7287 22.4942 12.5425 22.1055 12.4184C21.7099 12.2943 21.2939 12.2253 20.8642 12.2253C20.7756 12.2253 20.6937 12.2322 20.6051 12.2391C20.0799 12.2736 19.5821 12.3977 19.1183 12.6115C18.8523 12.7356 18.5932 12.8873 18.3613 13.0597C18.0067 13.3217 17.6861 13.6389 17.4133 14.0043C17.1405 14.3629 16.9155 14.7697 16.745 15.211C16.629 15.5006 16.5472 15.8109 16.4858 16.1281C16.4244 16.4453 16.3971 16.7762 16.3971 17.1072C16.3971 17.1279 16.3971 17.1555 16.3971 17.1762C16.1789 17.1348 15.9538 17.1072 15.722 17.1072C15.5924 17.1072 15.4628 17.1141 15.3401 17.1279C14.8354 17.1831 14.3648 17.3486 13.942 17.5968C12.7757 18.2863 11.9846 19.6309 11.9846 21.1754C11.9846 23.4233 13.6555 25.1954 15.722 25.1954H30.0098C30.8351 25.1954 31.5784 24.83 32.1172 24.2439C32.656 23.6577 32.9902 22.8441 32.9902 21.9408V21.9615Z" fill="white"/>
</svg>
