<svg width="44" height="39" viewBox="0 0 44 39" fill="none" xmlns="http://www.w3.org/2000/svg">
<path d="M24.0151 11.7431V6.86127H26.4908C27.1796 6.86127 27.5615 6.05452 27.125 5.51668L22.9648 0.310732C22.6375 -0.0960904 22.0169 -0.0960904 21.6895 0.310732L17.5225 5.51668C17.0928 6.05452 17.4679 6.86127 18.1567 6.86127H20.5983V10.7847C20.687 10.7847 20.7688 10.7709 20.8575 10.7709C21.9964 10.7709 23.0876 11.1157 24.0083 11.7431H24.0151Z" fill="white"/>
<path d="M20.6392 31.1395H18.1635C17.4747 31.1395 17.0928 31.9462 17.5293 32.4841L21.6963 37.69C22.0236 38.0968 22.6443 38.0968 22.9716 37.69L27.1386 32.4841C27.5683 31.9462 27.1932 31.1395 26.5044 31.1395H24.0628V26.6782H20.6528V31.1395H20.6392Z" fill="white"/>
<path d="M43.5202 20.3138L38.3712 16.1008C37.8392 15.6664 37.0413 16.0456 37.0413 16.7421V19.2106H33.5972C34.1223 19.9828 34.4428 20.9275 34.4428 21.9549C34.4428 22.1962 34.4224 22.4238 34.3883 22.6582H37.0413V25.1612C37.0413 25.8576 37.8392 26.2438 38.3712 25.8025L43.5202 21.5895C43.9226 21.2585 43.9226 20.631 43.5202 20.3V20.3138Z" fill="white"/>
<path d="M10.9344 19.052H7.61304V16.549C7.61304 15.8526 6.81511 15.4665 6.28315 15.9078L1.13406 20.1139C0.731681 20.4449 0.731681 21.0724 1.13406 21.4033L6.28315 25.6164C6.81511 26.0508 7.61304 25.6715 7.61304 24.9751V22.5066H10.682C10.5866 22.086 10.5252 21.6516 10.5252 21.1965C10.5252 20.438 10.6752 19.7209 10.9344 19.0589V19.052Z" fill="white"/>
<path d="M32.9902 21.9618C32.9902 21.286 32.7992 20.6654 32.4787 20.1414C31.9399 19.2795 31.0328 18.7072 30.003 18.7072C29.928 18.7072 29.8598 18.7072 29.7916 18.7141C29.7916 18.7141 29.7916 18.7141 29.7916 18.7072C29.7916 16.4593 28.1207 14.632 26.0542 14.632C25.836 14.632 25.6314 14.6527 25.4268 14.6872C25.2222 14.7217 25.0244 14.7837 24.8335 14.8527C24.6493 14.4666 24.4106 14.108 24.1378 13.7839C24.0969 13.7426 24.056 13.7012 24.0151 13.6598C23.7696 13.3978 23.5036 13.1565 23.2103 12.9565C22.8693 12.7289 22.4942 12.5428 22.1055 12.4187C21.7099 12.2945 21.2939 12.2256 20.8642 12.2256C20.7756 12.2256 20.6937 12.2325 20.6051 12.2394C20.0799 12.2739 19.5821 12.398 19.1183 12.6117C18.8523 12.7358 18.5932 12.8875 18.3613 13.0599C18.0067 13.3219 17.6861 13.6391 17.4133 14.0046C17.1405 14.3631 16.9155 14.77 16.745 15.2113C16.629 15.5009 16.5472 15.8111 16.4858 16.1283C16.4244 16.4455 16.3971 16.7765 16.3971 17.1075C16.3971 17.1281 16.3971 17.1557 16.3971 17.1764C16.1789 17.135 15.9538 17.1075 15.722 17.1075C15.5924 17.1075 15.4628 17.1144 15.3401 17.1281C14.8354 17.1833 14.3648 17.3488 13.942 17.597C12.7757 18.2866 11.9846 19.6311 11.9846 21.1757C11.9846 23.4236 13.6555 25.1956 15.722 25.1956H30.0098C30.8351 25.1956 31.5784 24.8302 32.1172 24.2441C32.656 23.658 32.9902 22.8443 32.9902 21.9411V21.9618Z" fill="white"/>
</svg>
