<svg width="37" height="36" viewBox="0 0 37 36" fill="none" xmlns="http://www.w3.org/2000/svg">
<path d="M35.4518 15.1468C34.4245 15.0494 33.3898 14.9744 32.355 14.9069C32.0775 14.8919 31.9576 14.8094 31.8901 14.5245C31.6051 13.2797 31.1102 12.1175 30.4504 11.0302C30.2854 10.7528 30.2854 10.5878 30.5029 10.3478C31.1927 9.57551 31.8601 8.78817 32.5274 7.99334C32.9998 7.43095 32.9848 7.02604 32.4674 6.50115C31.6501 5.67632 30.8328 4.85899 30.008 4.04166C29.4681 3.50927 29.0632 3.50177 28.4708 4.00417C27.6984 4.66403 26.9186 5.31639 26.1613 5.99125C25.9213 6.20871 25.7563 6.2237 25.4789 6.05874C24.3916 5.39888 23.2294 4.91148 21.9846 4.61904C21.7072 4.55155 21.6097 4.44657 21.5947 4.16163C21.5272 3.09686 21.4522 2.02458 21.3398 0.9598C21.2648 0.247448 20.9723 0.00749844 20.245 0C19.1352 0 18.033 0 16.9232 0C15.9859 0 15.7309 0.224953 15.641 1.17725C15.551 2.15205 15.476 3.13435 15.4235 4.10914C15.4085 4.39408 15.341 4.55155 15.0261 4.61904C13.7813 4.90398 12.6191 5.39888 11.5393 6.05874C11.2469 6.2387 11.0894 6.19371 10.8569 5.98375C10.0846 5.2939 9.28977 4.62654 8.50244 3.96667C7.96255 3.50927 7.54264 3.51677 7.04774 4.01166C6.20792 4.83649 5.37559 5.66882 4.55076 6.50864C4.03337 7.03354 4.01837 7.43845 4.49077 8.00083C5.15813 8.78817 5.818 9.583 6.51535 10.3553C6.74031 10.6028 6.72531 10.7678 6.56784 11.0452C5.91548 12.1325 5.42058 13.2947 5.12814 14.5395C5.06066 14.8244 4.93318 14.8994 4.66324 14.9219C3.62845 14.9894 2.60117 15.0569 1.56638 15.1618C0.749053 15.2368 0.516602 15.5068 0.516602 16.3241C0.516602 17.4339 0.516602 18.5361 0.516602 19.6459C0.516602 20.4932 0.741555 20.7632 1.59638 20.8457C2.62366 20.9431 3.65845 21.0181 4.69323 21.0856C4.94818 21.1006 5.06815 21.1831 5.12814 21.438C5.42058 22.6978 5.92298 23.875 6.58284 24.9773C6.74031 25.2322 6.74031 25.3897 6.53035 25.6222C5.8255 26.402 5.15813 27.2193 4.46828 28.0142C4.28832 28.2241 4.15334 28.4416 4.16084 28.7265C4.16084 29.0415 4.31831 29.2589 4.52827 29.4689C5.35309 30.2862 6.16293 31.111 6.98775 31.9284C7.55014 32.4907 7.94755 32.4982 8.56243 31.9733C9.33476 31.3135 10.1146 30.6611 10.8719 29.9863C11.0969 29.7838 11.2469 29.7613 11.5168 29.9188C12.6041 30.5786 13.7663 31.0735 15.0036 31.366C15.296 31.4335 15.4085 31.5534 15.4235 31.8609C15.4835 32.9106 15.566 33.9604 15.6709 35.0102C15.7459 35.7526 16.0459 35.9925 16.7957 36C17.883 36 18.9703 36 20.065 36C21.0473 36 21.2873 35.7825 21.3773 34.8003C21.4597 33.8255 21.5347 32.8432 21.5947 31.8684C21.6097 31.6059 21.6697 31.4559 21.9621 31.3885C23.2219 31.1035 24.3991 30.6011 25.5014 29.9263C25.7638 29.7688 25.9138 29.7913 26.1463 29.9863C26.9336 30.6836 27.7359 31.366 28.5458 32.0408C29.0632 32.4757 29.4831 32.4682 29.9555 32.0033C30.8103 31.1635 31.6501 30.3162 32.4899 29.4689C32.9848 28.9665 32.9998 28.5541 32.5424 28.0142C31.8976 27.2493 31.2602 26.4845 30.5853 25.7421C30.3229 25.4572 30.2629 25.2547 30.4879 24.8798C31.1252 23.8225 31.5976 22.6903 31.8826 21.483C31.9501 21.1756 32.085 21.0931 32.385 21.0781C33.4198 21.0181 34.447 20.9431 35.4818 20.8382C36.2692 20.7632 36.5091 20.4782 36.5091 19.6984C36.5091 18.5736 36.5091 17.4489 36.5091 16.3241C36.5091 15.5143 36.2692 15.2368 35.4518 15.1543V15.1468ZM18.4979 25.7046C14.2387 25.7046 10.7895 22.2329 10.8045 17.9663C10.812 13.7146 14.2912 10.2654 18.5578 10.2879C22.7945 10.3029 26.2287 13.7596 26.2287 18.0037C26.2287 22.2629 22.7645 25.7196 18.4979 25.7121V25.7046Z" fill="white"/>
</svg>
