<svg width="33" height="36" viewBox="0 0 33 36" fill="none" xmlns="http://www.w3.org/2000/svg">
<g clip-path="url(#clip0_314_618)">
<path d="M4.43958 5.75586H1.29652C0.865782 5.75586 0.516602 6.10504 0.516602 6.53578V11.0203C0.516602 11.451 0.865782 11.8002 1.29652 11.8002H4.43958C4.87032 11.8002 5.2195 11.451 5.2195 11.0203V6.53578C5.2195 6.10504 4.87032 5.75586 4.43958 5.75586Z" fill="white"/>
<path d="M30.598 15.9805H27.9853C27.5546 15.9805 27.2054 16.3296 27.2054 16.7604V19.3731C27.2054 19.8038 27.5546 20.153 27.9853 20.153H30.598C31.0288 20.153 31.3779 19.8038 31.3779 19.3731V16.7604C31.3779 16.3296 31.0288 15.9805 30.598 15.9805Z" fill="white"/>
<path d="M32.4386 10.3807L29.8181 6.83987C29.7479 6.73848 29.6309 6.68389 29.5061 6.68389H24.5225L15.1868 1.94979V0H12.5507L12.0282 2.23836L7.22389 6.5825C7.22389 6.5825 7.1693 6.64489 7.1537 6.68389H6.14761C5.92923 6.68389 5.75765 6.85547 5.75765 7.07385C5.75765 7.29222 5.92923 7.46381 6.14761 7.46381H7.66065L11.1001 10.2247H5.94483C5.72645 10.2247 5.55487 10.3963 5.55487 10.6147C5.55487 10.833 5.72645 11.0046 5.94483 11.0046H10.5307V17.8835C10.5307 17.8835 10.5307 17.8835 10.5307 17.8913C10.5307 17.8913 10.5307 17.8913 10.5307 17.8991V32.5927H8.93191C8.50296 32.5927 8.15199 32.9437 8.15199 33.3727V34.9403C8.15199 35.3692 8.50296 35.7202 8.93191 35.7202H18.5015C18.9304 35.7202 19.2814 35.3692 19.2814 34.9403V33.3727C19.2814 32.9437 18.9304 32.5927 18.5015 32.5927H16.9339V11.0046H19.3672C19.4062 11.0202 19.4686 11.0202 19.492 11.028C19.531 11.028 19.5778 11.028 19.6168 11.0046H28.9134V15.146C28.9134 15.3644 29.085 15.5359 29.3033 15.5359C29.5217 15.5359 29.6933 15.3644 29.6933 15.146V11.0046H32.1422C32.2904 11.0046 32.423 10.9188 32.4932 10.7863C32.5556 10.6537 32.5478 10.4977 32.462 10.3807H32.4386ZM15.1868 2.8311L22.791 6.69169H15.1868V2.8311ZM12.7613 2.52693L13.1669 0.779917H14.3991V6.68389H11.9892L12.7535 2.52693H12.7613ZM11.7864 3.50963L11.2015 6.69169H8.27678L11.7864 3.50963ZM8.90851 7.46381H15.1167L12.2232 10.1233L8.90851 7.46381ZM11.5992 24.9807L16.1461 22.3758V28.4514L11.5992 24.9807ZM15.8732 29.2235L11.3107 32.2964V25.7451L15.8732 29.2313V29.2235ZM11.3107 24.2476V18.6322L15.803 21.6739L11.3107 24.2476ZM11.6226 17.8991L16.1539 14.9198V20.972L11.6226 17.9069V17.8991ZM11.3107 17.166V11.5506L15.803 14.2023L11.3107 17.1582V17.166ZM11.9112 11.0046H12.114C12.192 11.028 12.2778 11.028 12.3557 11.0046H16.1461V13.5082L11.9112 11.0046ZM12.2622 32.5927L16.1539 29.9722V32.5927H12.2622ZM13.2605 10.2247L16.0994 7.61979L18.5639 10.2247H13.2605ZM19.492 10.0765L17.0275 7.47161H22.0345L19.4998 10.0765H19.492ZM20.4279 10.2247L22.9314 7.65099L25.123 10.2247H20.4357H20.4279ZM23.7971 7.46381H28.422L25.9809 10.0297L23.7971 7.46381ZM26.87 10.2247L29.3891 7.573L31.3545 10.2247H26.87Z" fill="white"/>
</g>
<defs>
<clipPath id="clip0_314_618">
<rect width="32" height="35.7202" fill="white" transform="translate(0.516602)"/>
</clipPath>
</defs>
</svg>
