<svg width="33" height="28" viewBox="0 0 33 28" fill="none" xmlns="http://www.w3.org/2000/svg">
<path d="M19.2506 9.66345C18.5975 8.76551 17.7336 8.03084 16.7404 7.52745C15.7881 7.04447 14.7133 6.76557 13.5773 6.76557C12.5433 6.76557 11.5637 6.99686 10.6726 7.39821C9.6522 7.86078 8.76787 8.56144 8.07401 9.42536C7.11485 10.6294 6.53664 12.1464 6.53664 13.7994C6.53664 15.534 7.16928 17.1258 8.21686 18.3571C8.93113 19.2006 9.84267 19.8672 10.8766 20.3026C11.7066 20.6495 12.6181 20.84 13.5704 20.84C14.6248 20.84 15.6248 20.6019 16.5295 20.1801C17.5431 19.7108 18.4275 19.0033 19.1077 18.1326C20.0465 16.9353 20.6043 15.4388 20.6043 13.8062C20.6043 12.1736 20.0941 10.8267 19.2438 9.67025L19.2506 9.66345ZM17.1078 14.2824C17.1078 14.915 17.0465 15.466 16.9309 15.9354C16.8153 16.4047 16.618 16.7993 16.3323 17.1122C16.0466 17.4251 15.6724 17.6632 15.2031 17.8265C14.7337 17.9829 14.1419 18.0646 13.4344 18.0646H10.3461V9.541H13.4344C14.1419 9.541 14.7337 9.62263 15.2031 9.77909C15.6724 9.93555 16.0534 10.1736 16.3323 10.4934C16.618 10.8063 16.8153 11.2008 16.9309 11.6702C17.0465 12.1396 17.1078 12.6906 17.1078 13.3096V14.2824Z" fill="white"/>
<path d="M15.2643 11.1736C15.0806 10.9763 14.8357 10.8471 14.5364 10.7723C14.2303 10.6974 13.863 10.6634 13.4344 10.6634H11.6045V16.9353H13.4344C13.863 16.9353 14.2303 16.9013 14.5364 16.8265C14.8425 16.7517 15.0806 16.6156 15.2643 16.4184C15.4479 16.2211 15.584 15.9422 15.6656 15.5816C15.7473 15.2211 15.7881 14.7585 15.7881 14.1939V13.3912C15.7881 12.8198 15.7473 12.3504 15.6656 11.9967C15.584 11.643 15.4479 11.3641 15.2643 11.1736Z" fill="white"/>
<path d="M7.39371 19.4046L5.52301 21.7787H0.516357V25.0711H7.12841L10.0467 21.3569C9.03312 20.8808 8.13518 20.2141 7.39371 19.3978V19.4046Z" fill="white"/>
<path d="M20.094 8.5954L21.5974 6.68389H25.8285V9.4253C25.8285 10.1056 26.6244 10.4661 27.1346 10.0239L32.1141 5.71112C32.4746 5.39821 32.4746 4.8336 32.1141 4.51388L27.1414 0.194278C26.6312 -0.247886 25.8354 0.112648 25.8354 0.7929V3.39146H20.0056L17.5771 6.47981C18.5498 7.01721 19.407 7.73828 20.1008 8.6022L20.094 8.5954Z" fill="white"/>
<path d="M9.83582 6.34376L7.12161 2.89488H0.516357V6.1873H5.52302L7.23725 8.37091C7.95832 7.5342 8.83584 6.84715 9.83582 6.34376Z" fill="white"/>
<path d="M32.2161 22.2957L27.2367 17.9829C26.7265 17.5407 25.9306 17.9012 25.9306 18.5815V21.2957H21.5974L19.9444 19.1937C19.2301 20.0372 18.3526 20.7311 17.3594 21.2413L19.992 24.5881H25.9238V27.2071C25.9238 27.8874 26.7197 28.2479 27.2299 27.8057L32.2093 23.4929C32.5698 23.18 32.5698 22.6154 32.2093 22.2957H32.2161Z" fill="white"/>
</svg>
