<svg width="29" height="26" viewBox="0 0 29 26" fill="none" xmlns="http://www.w3.org/2000/svg">
<path fill-rule="evenodd" clip-rule="evenodd" d="M3.34558 0.8125H10.9855C12.4892 0.8125 13.7128 2.01246 13.7128 3.5004V11.0301C13.7128 12.5121 12.4953 13.718 10.9855 13.718H3.34558C1.84194 13.718 0.618325 12.5181 0.618325 11.0301V3.5004C0.618325 2.01846 1.83585 0.8125 3.34558 0.8125ZM5.50059 3.99839H9.90803L10.1515 2.82243H4.16132V11.7141H5.49451V7.80825H9.48798L9.73149 6.63229H5.50059V3.99839ZM21.3162 6.12231H28.3109V6.13431V8.72022H21.3162V10.7181C21.3162 11.2581 20.677 11.5581 20.2509 11.2161L16.1296 7.91025C15.8069 7.65226 15.8069 7.16628 16.1296 6.90828L20.2509 3.6024C20.677 3.25441 21.3162 3.5544 21.3162 4.10038V6.12231ZM28.2744 20.8878L24.1531 17.5819C23.7269 17.2399 23.0877 17.5399 23.0877 18.0799V20.0778H16.0931V22.6637H23.0877V24.6857C23.0877 25.2316 23.7269 25.5316 24.1531 25.1836L28.2744 21.8778C28.597 21.6198 28.597 21.1338 28.2744 20.8758V20.8878ZM5.94499 20.1078H13.0249V20.1138V22.6997H5.94499V24.6977C5.94499 25.2376 5.30579 25.5376 4.87966 25.1956L0.75834 21.8898C0.435696 21.6318 0.435696 21.1458 0.75834 20.8878L4.87966 17.5879C5.30579 17.2399 5.94499 17.5399 5.94499 18.0859V20.1078Z" fill="white"/>
</svg>
