<svg width="37" height="23" viewBox="0 0 37 23" fill="none" xmlns="http://www.w3.org/2000/svg">
<g clip-path="url(#clip0_314_583)">
<path d="M28.7685 2.35337C28.6179 2.79099 28.4816 3.19274 28.3452 3.58732C27.5346 5.9261 26.7167 8.25771 25.906 10.6037C25.8271 10.8404 25.7195 10.9409 25.4541 10.9409C23.5529 10.9265 21.6446 10.9265 19.7434 10.9409C19.478 10.9409 19.3847 10.8691 19.3847 10.5965C19.3919 8.42989 19.3847 6.26329 19.3847 4.09669C19.3847 3.58015 19.4349 3.06361 19.4421 2.54707C19.4421 2.34619 19.5569 2.34619 19.7004 2.34619C20.9056 2.34619 22.1109 2.34619 23.3162 2.34619C24.9949 2.34619 26.6737 2.34619 28.3452 2.34619C28.4672 2.34619 28.582 2.36054 28.7542 2.36771L28.7685 2.35337Z" fill="white"/>
<path d="M23.1798 14.4346C25.4899 14.4346 27.2834 16.2425 27.2834 18.5669C27.2834 20.7837 25.411 22.6418 23.187 22.6275C20.9558 22.6131 19.0977 20.7694 19.0833 18.5525C19.069 16.2783 20.9056 14.4346 23.1798 14.4346ZM25.2101 18.5382C25.2316 17.4477 24.3564 16.5366 23.2515 16.5079C22.1252 16.4792 21.171 17.3688 21.1495 18.4736C21.128 19.5856 22.0247 20.5183 23.1511 20.5541C24.2487 20.59 25.1814 19.6717 25.2029 18.5382H25.2101Z" fill="white"/>
<path d="M0.516602 5.65326C0.624214 5.48825 0.688782 5.38781 0.760523 5.28738C1.44207 4.30451 2.13796 3.336 2.79799 2.33879C3.08496 1.90117 3.49388 1.73616 3.9602 1.72899C5.34482 1.71464 4.8785 1.72181 6.26311 1.72899C8.33645 1.72899 10.4098 1.73616 12.4831 1.72899C12.7629 1.72899 12.8705 1.79355 12.849 2.0877C12.8203 2.40336 12.8347 2.7262 12.849 3.04903C12.8562 3.25709 12.7988 3.32883 12.5836 3.32883C11.4644 3.32165 10.338 3.32883 9.21887 3.32883C6.96618 3.32883 6.5716 3.32883 4.31891 3.32883C4.03195 3.32883 3.81672 3.44361 3.65889 3.68754C3.27148 4.28299 2.8769 4.8641 2.4895 5.45238C2.38906 5.60304 2.28145 5.66761 2.09492 5.66043C1.5999 5.65326 1.09771 5.66043 0.516602 5.66043L0.516602 5.65326Z" fill="white"/>
<path d="M12.6051 19.4635C12.6051 21.214 11.1774 22.6416 9.4413 22.6273C7.69797 22.6129 6.29901 21.1996 6.29901 19.4419C6.29901 17.7201 7.72667 16.2925 9.44847 16.2925C11.1918 16.2925 12.6051 17.713 12.6051 19.4635ZM11.077 19.4706C11.077 18.5595 10.3596 17.8278 9.46282 17.8206C8.55888 17.8206 7.83428 18.538 7.83428 19.4563C7.83428 20.3674 8.55888 21.0992 9.46282 21.092C10.3524 21.092 11.077 20.3674 11.0842 19.4706H11.077Z" fill="white"/>
<path d="M19.478 1.59999V0.0288467C19.5641 0.0216726 19.6501 0.00732422 19.7291 0.00732422C23.1224 0.00732422 26.5087 0.00732422 29.902 0.00732422C30.1316 0.00732422 30.1962 0.0862401 30.189 0.301465C30.1747 0.638651 30.1747 0.983012 30.189 1.3202C30.1962 1.5426 30.1101 1.61434 29.8949 1.60716C28.3883 1.60716 26.8817 1.60716 25.3751 1.60716C23.5099 1.60716 21.6446 1.60716 19.7793 1.60716C19.686 1.60716 19.5928 1.60716 19.4851 1.60716L19.478 1.59999Z" fill="white"/>
<path d="M18.7103 3.30007C18.5811 3.30007 18.4807 3.31442 18.3803 3.31442C16.8952 3.31442 15.403 3.30725 13.9179 3.31442C13.6668 3.31442 13.5807 3.25703 13.5807 2.98441C13.5951 2.08764 13.5951 1.19804 13.5807 0.301271C13.5807 0.0716973 13.6453 -0.00721863 13.8821 -4.446e-05C14.8075 0.0143039 15.7258 -4.446e-05 16.6513 -4.446e-05C17.8853 -4.446e-05 18.7175 0.853682 18.7103 2.08764C18.7103 2.48222 18.7103 2.8768 18.7103 3.2929V3.30007Z" fill="white"/>
<path d="M18.6601 4.31882C18.6601 4.11794 18.5883 4.06055 18.3946 4.06055C17.7059 4.06772 17.0172 4.06055 16.3285 4.06055C13.136 4.06055 9.94345 4.06055 6.74376 4.06055C5.52415 4.06055 4.7063 4.89275 4.7063 6.11236C4.7063 7.60459 4.7063 9.08964 4.7063 10.5819C4.7063 10.8473 4.77087 10.9334 5.05066 10.9334C7.25313 10.9191 9.46278 10.9334 11.6652 10.9334C13.8892 10.9334 16.1132 10.9334 18.3372 10.9334C18.5381 10.9334 18.6744 10.9119 18.6744 10.6536C18.6672 8.54441 18.6672 6.4352 18.6744 4.31882H18.6601ZM6.62898 5.7967C7.99924 5.81105 9.37669 5.80387 10.747 5.80387C11.1487 5.80387 11.1487 6.00475 11.1487 6.4065C11.1487 6.50694 11.1487 6.60738 11.1487 6.72934C11.0196 6.73651 10.9263 6.74369 10.8402 6.74369C9.44125 6.74369 8.03511 6.72934 6.63615 6.75086C6.28462 6.75086 6.32766 6.37063 6.32049 6.14823C6.31331 5.91866 6.33484 5.78952 6.62898 5.7967ZM10.6967 9.06812C9.34799 9.06812 8.00642 9.06812 6.65767 9.06812C6.55006 9.06812 6.35636 9.02507 6.34918 8.97486C6.31331 8.78833 6.33484 8.3794 6.35636 8.1857C6.35636 8.157 6.50702 8.13548 6.58593 8.13548C7.30335 8.13548 8.01359 8.13548 8.73101 8.13548C9.43408 8.13548 10.1443 8.14265 10.8474 8.13548C11.077 8.13548 11.1559 8.20005 11.1487 8.43679C11.1344 8.87442 11.1487 9.08247 10.6967 9.08247V9.06812Z" fill="white"/>
<path d="M36.3875 15.9624C35.8279 15.0082 35.2683 14.054 34.7303 13.0855C34.5437 12.7555 34.307 12.6192 33.9339 12.6264C32.8363 12.6407 31.7458 12.6407 30.6482 12.6264C30.3181 12.6264 30.0742 12.7125 29.9307 13.021C29.8303 13.229 29.694 13.2434 29.5075 13.0927C29.2635 12.8846 27.9937 12.0668 27.7283 11.9018C27.5417 11.787 27.305 11.7009 27.0898 11.6937C26.5015 11.6579 25.9132 11.6722 25.3249 11.665C22.3835 11.6722 19.4421 11.665 16.5079 11.665C12.2894 11.665 8.06386 11.665 3.84544 11.665C3.63022 11.665 3.54413 11.7153 3.54413 11.952C3.55848 12.8201 3.54413 13.6882 3.5513 14.5491C3.5513 14.6495 3.57283 14.7643 3.63022 14.836C4.38351 15.7615 5.15114 16.687 5.91161 17.6053C5.91878 17.6196 5.94748 17.6196 5.99052 17.6411C6.04791 17.555 6.10531 17.4618 6.16988 17.3685C7.05947 15.9911 8.63062 15.2808 10.2807 15.6395C11.9666 16.0054 13.1216 17.3111 13.344 19.0329C13.3656 19.2123 13.4301 19.2625 13.6095 19.2625C15.3456 19.2625 16.1922 19.2553 17.9283 19.2625C18.2225 19.2625 18.3014 19.1836 18.3086 18.8823C18.3086 14.4199 21.6876 13.2147 24.4784 13.6953C25.5186 13.8747 27.7426 15.3813 28.0296 15.5678C28.2376 15.7041 28.3022 15.8332 28.1731 16.0915C28.0941 16.2422 28.087 16.5004 28.1731 16.6439C28.7542 17.6913 29.3711 18.7244 29.9666 19.7647C30.1029 20.0014 30.2894 20.109 30.5692 20.1019C31.6669 20.0947 32.7645 20.0732 33.855 20.109C34.3285 20.1234 34.5868 19.944 34.8092 19.5495C35.3329 18.6025 35.8781 17.6626 36.4305 16.73C36.5955 16.4502 36.5668 16.2063 36.409 15.9408L36.3875 15.9624ZM33.7115 13.4227C33.36 14.0325 32.6641 15.1302 32.2982 15.7758C31.9252 15.1373 31.4086 14.0325 31.0499 13.4227H33.7115ZM30.311 13.6666C30.6768 14.298 31.301 15.4458 31.6597 16.0628C30.9495 16.0628 29.8088 15.9552 29.077 15.9552C29.4285 15.3526 29.9451 14.3195 30.3181 13.6738L30.311 13.6666ZM31.6597 16.7444C31.4158 17.2465 30.6338 18.2079 30.3181 18.7962C29.9738 18.2007 29.4644 17.2609 29.2061 16.7659C29.1846 16.7228 31.6812 16.7013 31.6597 16.7444ZM30.9208 19.3199C31.258 18.6742 32.1834 17.0385 32.2193 17.0313C32.5565 17.6124 33.1663 18.6527 33.5609 19.3199H30.9208ZM35.3831 16.7228C35.1105 17.2322 34.5796 18.337 34.2352 18.9397C33.8622 18.3011 33.195 17.2968 32.8793 16.7515C32.7717 16.687 35.4046 16.6798 35.3831 16.7228ZM32.9439 16.0772C33.2882 15.4745 34.0128 14.6854 34.3859 14.0325C34.759 14.6854 35.0244 15.41 35.3759 16.0198C34.6442 16.0198 33.6685 16.0772 32.9439 16.0772Z" fill="white"/>
</g>
<defs>
<clipPath id="clip0_314_583">
<rect width="36" height="22.6273" fill="white" transform="translate(0.516602)"/>
</clipPath>
</defs>
</svg>
