<svg width="32" height="32" viewBox="0 0 32 32" fill="none" xmlns="http://www.w3.org/2000/svg">
<path d="M16 0.799805C16.5464 0.799805 17.0845 0.836017 17.6152 0.893555C17.6665 0.860173 17.7312 0.851881 17.791 0.873047C17.8222 0.884087 17.8477 0.903604 17.8691 0.926758C25.3744 1.85117 31.2002 8.24529 31.2002 16C31.2002 23.7563 25.3736 30.1546 17.8652 31.0762C17.8348 31.0957 17.7996 31.1074 17.7627 31.1084C17.7384 31.109 17.7149 31.1045 17.6924 31.0967C17.1373 31.1593 16.574 31.2002 16 31.2002C7.61177 31.2002 0.799805 24.3882 0.799805 16C0.799805 7.61177 7.61177 0.799805 16 0.799805ZM10.9434 24.5332C11.928 26.5284 13.2382 28.2598 14.791 29.6279C14.9402 29.6398 15.0903 29.6465 15.2451 29.6523V24.5332H10.9434ZM16.7568 29.6523C16.8826 29.6478 17.0053 29.6419 17.127 29.6328C18.5075 28.0886 19.6838 26.3746 20.6309 24.5332H16.7568V29.6523ZM22.332 24.5332C21.5292 26.2077 20.5493 27.7903 19.4102 29.2559C22.2831 28.5151 24.8365 26.8572 26.6855 24.5332H22.332ZM5.31445 24.5332C7.07048 26.7344 9.46121 28.3378 12.1602 29.126C10.973 27.7463 9.99437 26.1993 9.25684 24.5332H5.31445ZM24.4863 16.7559C24.3597 18.7684 23.8516 20.9056 23.0029 23.0225H27.7363C28.8757 21.1203 29.5318 18.9691 29.6494 16.7559H24.4863ZM16.7559 23.0225H21.3672C22.2915 20.8826 22.8335 18.728 22.9727 16.7559H16.7549L16.7559 23.0225ZM9.00098 16.7559C9.08107 18.9018 9.51768 21.0191 10.292 23.0225H15.2441V16.7559H9.00098ZM2.34961 16.7559C2.46727 18.9691 3.12331 21.1203 4.2627 23.0225H8.65625C7.95044 21.0052 7.55602 18.8923 7.4873 16.7559H2.34961ZM23.3486 8.97754C24.0554 10.9946 24.4498 13.1076 24.5195 15.2441H29.6494C29.5316 13.0307 28.8745 10.8796 27.7344 8.97754H23.3486ZM16.7559 15.2441H23.0078C22.9279 13.0983 22.4922 10.9808 21.7178 8.97754H16.7559V15.2441ZM10.292 8.97754C9.51766 10.9809 9.08105 13.0982 9.00098 15.2441H15.2441V8.97754H10.292ZM4.26562 8.97754C3.12548 10.8797 2.46744 13.0307 2.34961 15.2441H7.48828C7.55706 13.1078 7.95149 10.9948 8.65723 8.97754H4.26562ZM19.8418 2.87402C21.0314 4.25301 22.0125 5.80033 22.752 7.4668H26.6846C24.9291 5.26647 22.5395 3.66278 19.8418 2.87402ZM16.7559 7.4668H21.0693C20.0833 5.47036 18.7684 3.73951 17.2139 2.37109C17.0636 2.35877 16.9126 2.35135 16.7559 2.3457V7.4668ZM15.2441 2.3457C15.0891 2.35146 14.9379 2.35917 14.7881 2.37109C13.237 3.73938 11.9253 5.47303 10.9414 7.4668H15.2441V2.3457ZM12.1572 2.87305C9.45988 3.66208 7.07166 5.26652 5.31641 7.4668H9.25488C9.99243 5.80064 10.97 4.2527 12.1572 2.87305Z" fill="white" stroke="white" stroke-width="0.4" stroke-linejoin="round"/>
</svg>
