<svg width="42" height="20" viewBox="0 0 42 20" fill="none" xmlns="http://www.w3.org/2000/svg">
<path d="M8.42706 2.76968C12.845 2.79634 16.5429 6.57423 16.5162 11.0366C16.4895 15.6501 12.7739 19.3124 8.15149 19.2857C3.68025 19.2679 -0.0265245 15.5167 0.000142997 11.0455C0.0268104 6.36978 3.7247 2.74301 8.42706 2.76968ZM8.19594 6.20978C5.58253 6.22756 3.40469 8.43207 3.43135 11.0366C3.45802 13.7656 5.63586 15.8901 8.37372 15.8545C10.9516 15.8278 13.0939 13.6056 13.0761 11.001C13.0494 8.31651 10.8805 6.18311 8.19594 6.20089V6.20978Z" fill="white"/>
<path d="M29.5745 2.29857C28.3656 1.94301 27.1389 1.56078 25.8944 1.23188C22.4098 0.307405 18.8542 -0.0481609 15.2541 0.00517399C13.9651 0.0229523 12.6762 0.00517399 11.3784 0.0229523C11.1739 0.0229523 10.9339 0.129622 10.7828 0.262959C10.365 0.627415 9.98279 1.03632 9.53833 1.47188C10.1161 1.623 10.6406 1.72967 11.1473 1.88967C13.9029 2.78748 15.8763 4.55642 17.0674 7.20539C17.1563 7.40095 17.2097 7.57873 17.5119 7.56984C20.0809 7.47206 22.6321 7.2765 25.1121 6.52981C26.3566 6.15647 27.5478 5.67645 28.5344 4.79643C29.2545 4.15641 29.6989 3.38305 29.5656 2.29857H29.5745Z" fill="white"/>
<path d="M11.6986 10.9924C11.6986 9.14343 10.1341 7.58783 8.28513 7.59672C6.34729 7.59672 4.81836 9.13454 4.81836 11.0724C4.81836 12.9124 6.38285 14.4769 8.23179 14.4769C10.1607 14.4769 11.7075 12.9302 11.6986 11.0013V10.9924Z" fill="white"/>
<path d="M32.7034 18.8146C33.9995 18.8146 35.0502 17.7639 35.0502 16.4678C35.0502 15.1718 33.9995 14.1211 32.7034 14.1211C31.4074 14.1211 30.3567 15.1718 30.3567 16.4678C30.3567 17.7639 31.4074 18.8146 32.7034 18.8146Z" fill="white"/>
<path d="M32.6856 12.9209C30.6945 12.9209 29.0677 14.5387 29.0677 16.5299C24.4365 16.5299 19.2097 16.521 16.1785 16.521C17.7163 14.1743 18.2408 11.6853 17.663 8.97412C18.8185 8.88523 19.9208 8.8319 21.0142 8.71634C23.1298 8.49411 25.2187 8.11188 27.1743 7.24074C29.0855 6.38738 30.73 5.26735 30.9967 2.90283C31.1211 2.94728 31.2011 2.96506 31.2811 3.00061C34.7301 4.36065 37.9836 6.11182 41.0681 8.15632C41.1925 8.23632 41.2903 8.44966 41.2903 8.60967C41.3081 10.2986 41.3081 11.9964 41.2992 13.6854C41.2992 15.3832 40.1258 16.5388 38.428 16.5566C38.3125 16.5566 37.5302 16.5566 36.3035 16.5566C36.3035 14.5654 34.6768 12.9387 32.6856 12.9387V12.9209Z" fill="white"/>
</svg>
