<svg width="28" height="24" viewBox="0 0 28 24" fill="none" xmlns="http://www.w3.org/2000/svg">
<path d="M23.1263 8.02934L27.3506 4.61072C27.6807 4.34215 27.6807 3.83299 27.3506 3.56443L23.1263 0.1514C22.6898 -0.201093 22.0352 0.106639 22.0352 0.671747V2.57409H17.0667L11.7626 9.31622L6.12827 2.16005H0.516357V4.95761H4.76865L9.97771 11.5766L4.76865 18.1957H0.516357V20.9932H6.12827L11.757 13.8371L17.0611 20.5792H21.7778V22.6102C21.7778 23.1753 22.4325 23.4887 22.8689 23.1306L27.0932 19.712C27.4233 19.4434 27.4233 18.9342 27.0932 18.6657L22.8689 15.2471C22.4325 14.8946 21.7778 15.2023 21.7778 15.7674V17.7705H18.4208L13.5418 11.5655L18.4208 5.36046H22.0296V7.49221C22.0296 8.05731 22.6842 8.37064 23.1207 8.01255L23.1263 8.02934Z" fill="white"/>
</svg>
