<svg width="70" height="66" viewBox="0 0 70 66" fill="none" xmlns="http://www.w3.org/2000/svg">
<g filter="url(#filter0_d_3239_1574)">
<path d="M43.7849 8.82471C43.7862 8.82489 43.8114 8.82674 43.8679 8.84814C43.9254 8.86994 43.9994 8.90529 44.0896 8.95752C44.2702 9.0621 44.4918 9.2183 44.7439 9.41748C45.2467 9.81483 45.8406 10.3595 46.4255 10.936C47.0095 11.5116 47.5785 12.113 48.0281 12.6226C48.489 13.145 48.7956 13.538 48.8875 13.7085L59.1707 32.8188C59.5444 33.5134 59.5443 34.3557 59.1707 35.0503L48.8875 54.1606C48.4891 54.901 47.73 55.3577 46.9099 55.3579H21.5662C20.746 55.3577 19.987 54.901 19.5886 54.1606L9.30542 35.0503C8.93176 34.3557 8.93167 33.5134 9.30542 32.8188L19.5886 13.7085C19.677 13.5442 19.7261 13.3335 19.7585 13.1265C19.7923 12.911 19.8135 12.6612 19.8279 12.3979C19.8562 11.8789 19.8614 11.2494 19.8806 10.6851C19.9004 10.1026 19.9353 9.5795 20.0173 9.20752C20.0589 9.01927 20.1059 8.90317 20.1462 8.84229C20.1514 8.83443 20.1565 8.829 20.1599 8.82471H43.7849Z" stroke="white" stroke-width="0.739726" shape-rendering="crispEdges"/>
</g>
<path d="M43.9574 7C44.9343 7 45.8319 7.53668 46.2904 8.39551L56.8217 28.1221C57.2336 28.8939 57.2337 29.8191 56.8217 30.5908L46.2904 50.3164C45.8319 51.1752 44.9343 51.7119 43.9574 51.7119H18.1723C17.1956 51.7118 16.2987 51.1751 15.8403 50.3164L5.309 30.5908C4.89695 29.819 4.89705 28.8939 5.309 28.1221L15.8403 8.39551C16.2987 7.53685 17.1956 7.00014 18.1723 7H43.9574ZM27.269 38.3057C26.915 38.3057 26.5946 38.3514 26.308 38.4424C26.0249 38.5334 25.7802 38.6595 25.5746 38.8213C25.3692 38.9796 25.2127 39.1633 25.1049 39.3721C24.997 39.5811 24.9428 39.8025 24.9428 40.0352H26.3988C26.3988 39.8969 26.4315 39.7769 26.4955 39.6758C26.5595 39.5715 26.6502 39.4924 26.768 39.4385C26.886 39.3812 27.0261 39.3525 27.1879 39.3525C27.3765 39.3525 27.5299 39.3874 27.6479 39.458C27.7692 39.5288 27.8591 39.6287 27.9164 39.7568C27.9737 39.8815 28.0024 40.0318 28.0024 40.207V40.5459H27.35C26.932 40.5459 26.5644 40.5861 26.2475 40.667C25.9306 40.7445 25.6659 40.8606 25.4535 41.0156C25.2445 41.1673 25.0858 41.3547 24.9779 41.5771C24.8701 41.7996 24.8168 42.0543 24.8168 42.3408C24.8168 42.6577 24.8972 42.941 25.059 43.1904C25.2242 43.4365 25.4472 43.6299 25.727 43.7715C26.0101 43.9096 26.3251 43.9795 26.6723 43.9795C26.9453 43.9795 27.1814 43.9383 27.3803 43.8574C27.5791 43.7732 27.7495 43.6671 27.891 43.5391C27.9526 43.4818 28.0079 43.4217 28.06 43.3613C28.0967 43.5662 28.1478 43.7385 28.2143 43.8779H29.686V43.792C29.6152 43.6505 29.5609 43.4855 29.5238 43.2969C29.4868 43.1048 29.4682 42.8584 29.4682 42.5586V40.2168C29.4682 39.7921 29.3722 39.4384 29.1801 39.1553C28.9913 38.8721 28.7321 38.6592 28.4018 38.5176C28.0714 38.376 27.6937 38.3057 27.269 38.3057ZM32.6596 38.3057C32.3191 38.3057 32.0118 38.3514 31.7387 38.4424C31.4692 38.53 31.2399 38.6532 31.0512 38.8115C30.866 38.9665 30.7226 39.1447 30.6215 39.3467C30.5238 39.5489 30.4751 39.765 30.475 39.9941C30.475 40.2267 30.5238 40.4342 30.6215 40.6162C30.7193 40.7949 30.8539 40.9506 31.0258 41.082C31.2011 41.2135 31.4071 41.3256 31.643 41.4199C31.8823 41.5109 32.1401 41.5868 32.4164 41.6475C32.7232 41.7081 32.9577 41.7764 33.1195 41.8506C33.2846 41.9214 33.3978 41.9988 33.4584 42.083C33.519 42.1672 33.5492 42.2618 33.5492 42.3662C33.5492 42.4841 33.516 42.5887 33.4486 42.6797C33.3847 42.7672 33.29 42.8377 33.1654 42.8916C33.0407 42.9422 32.8835 42.9678 32.6947 42.9678C32.5195 42.9678 32.3562 42.9406 32.2045 42.8867C32.0563 42.8328 31.9331 42.7453 31.8354 42.624C31.741 42.5027 31.6898 42.3424 31.683 42.1436H30.3031C30.3032 42.4402 30.3921 42.7305 30.5707 43.0137C30.7527 43.2933 31.0192 43.5241 31.3695 43.7061C31.7235 43.8881 32.1554 43.9795 32.6645 43.9795C33.015 43.9795 33.33 43.9383 33.6098 43.8574C33.893 43.7731 34.136 43.6571 34.3383 43.5088C34.5405 43.3571 34.6953 43.1798 34.8031 42.9775C34.9109 42.7754 34.9652 42.5531 34.9653 42.3105C34.9653 41.9532 34.8739 41.6644 34.6918 41.4453C34.5098 41.223 34.2635 41.048 33.9535 40.9199C33.6434 40.7885 33.2912 40.6824 32.8969 40.6016C32.7048 40.5645 32.543 40.5233 32.4115 40.4795C32.2835 40.4323 32.1789 40.382 32.0981 40.3281C32.0173 40.2743 31.9584 40.2153 31.9213 40.1514C31.8876 40.084 31.8706 40.008 31.8705 39.9238C31.8705 39.8126 31.9007 39.7111 31.9613 39.6201C32.0254 39.5257 32.1168 39.4514 32.2348 39.3975C32.3527 39.3402 32.493 39.3115 32.6547 39.3115C32.85 39.3116 33.0081 39.3458 33.1293 39.4131C33.254 39.4771 33.3454 39.5661 33.4028 39.6807C33.4634 39.7919 33.4936 39.919 33.4936 40.0605H34.9496C34.9496 39.7235 34.8576 39.423 34.6723 39.1602C34.4903 38.8939 34.227 38.6849 33.8832 38.5332C33.5428 38.3815 33.1348 38.3057 32.6596 38.3057ZM36.1938 37.0566V38.4062H35.4047V39.4385H36.1938V42.376C36.1938 42.7603 36.258 43.0707 36.3861 43.3066C36.5142 43.5425 36.6962 43.7144 36.932 43.8223C37.1714 43.9268 37.4516 43.9795 37.7719 43.9795C37.9471 43.9795 38.1075 43.9669 38.2524 43.9434C38.3972 43.9198 38.532 43.8881 38.6567 43.8477L38.6518 42.7754C38.6012 42.7855 38.5384 42.7956 38.4643 42.8057C38.3936 42.8124 38.3129 42.8164 38.2221 42.8164C38.094 42.8164 37.987 42.8008 37.9028 42.7705C37.8188 42.7368 37.7551 42.6777 37.7113 42.5938C37.6709 42.5095 37.6508 42.3879 37.6508 42.2295V39.4385H38.5912V38.4062H37.6508V37.0566H36.1938ZM41.7768 38.3057C41.379 38.3057 41.0214 38.3745 40.7045 38.5127C40.3876 38.6475 40.1184 38.8419 39.8959 39.0947C39.6768 39.3475 39.508 39.6455 39.3901 39.9893C39.2721 40.3331 39.2133 40.7124 39.2133 41.127V41.3291C39.2133 41.6932 39.2751 42.0377 39.3998 42.3613C39.5245 42.6814 39.7035 42.9625 39.936 43.2051C40.1718 43.4477 40.4584 43.6382 40.7953 43.7764C41.1324 43.9112 41.5141 43.9795 41.9389 43.9795C42.2927 43.9795 42.6079 43.9322 42.8842 43.8379C43.1606 43.7401 43.3967 43.6146 43.5922 43.4629C43.7908 43.3114 43.9474 43.1532 44.0619 42.9883L43.3539 42.2197C43.1889 42.4284 42.992 42.585 42.7631 42.6895C42.5373 42.7906 42.2926 42.8418 42.0297 42.8418C41.8175 42.8418 41.6269 42.8045 41.4584 42.7305C41.2934 42.6564 41.1515 42.5516 41.0336 42.417C40.919 42.2822 40.8291 42.1218 40.7651 41.9365C40.7295 41.8279 40.7056 41.713 40.6908 41.5928H44.184V40.9854C44.184 40.5843 44.1312 40.2205 44.0268 39.8936C43.9223 39.5633 43.7675 39.2799 43.5619 39.0439C43.3597 38.808 43.108 38.6262 42.808 38.498C42.508 38.37 42.1644 38.3057 41.7768 38.3057ZM16.0678 36.5156V43.8779H17.5805V41.7842L17.4291 38.3652L19.4213 43.8779H20.4526L22.4438 38.3652L22.2934 41.7842V43.8779H23.81V36.5156H21.8276L19.9369 41.9209L18.0453 36.5156H16.0678ZM47.6625 38.3057C47.4064 38.3057 47.1788 38.366 46.9799 38.4873C46.781 38.6086 46.6122 38.7805 46.474 39.0029C46.4589 39.0279 46.4454 39.0542 46.4311 39.0801L46.3832 38.4062H45.0131V43.8779H46.4692V40.2705C46.517 40.1631 46.5794 40.0692 46.6567 39.9893C46.7578 39.8882 46.8824 39.8123 47.0307 39.7617C47.1824 39.7078 47.3612 39.6807 47.5668 39.6807C47.6476 39.6807 47.7368 39.6862 47.8344 39.6963C47.9354 39.703 48.0214 39.7116 48.0922 39.7217L48.1176 38.3711C48.0637 38.3509 47.9947 38.3353 47.9106 38.3252C47.8263 38.3117 47.7434 38.3057 47.6625 38.3057ZM28.0024 42.3291C27.9836 42.3643 27.9617 42.4002 27.936 42.4365C27.8483 42.5646 27.7237 42.6731 27.5619 42.7607C27.4002 42.8483 27.2096 42.8916 26.9906 42.8916C26.8457 42.8916 26.7196 42.8645 26.6117 42.8105C26.5039 42.7532 26.421 42.6759 26.3637 42.5781C26.3065 42.477 26.2778 42.3639 26.2778 42.2393C26.2778 42.1146 26.2979 41.9999 26.3383 41.8955C26.3821 41.7912 26.4496 41.7005 26.5404 41.623C26.6315 41.5421 26.7485 41.4794 26.8901 41.4355C27.0315 41.3918 27.1982 41.3701 27.3901 41.3701H28.0024V42.3291ZM41.7611 39.4434C41.987 39.4434 42.1728 39.4906 42.3178 39.585C42.4626 39.6793 42.5703 39.8072 42.641 39.9688C42.7151 40.1271 42.7523 40.3077 42.7524 40.5098V40.6211H40.7074C40.7152 40.566 40.7243 40.5123 40.7348 40.46C40.7786 40.2544 40.8429 40.0755 40.9272 39.9238C41.0148 39.7721 41.1278 39.6536 41.266 39.5693C41.4041 39.4852 41.5692 39.4434 41.7611 39.4434ZM35.3129 26.9082L36.6528 28.0088C36.4948 28.3822 36.4076 28.7952 36.4076 29.2275C36.4079 30.9608 37.8258 32.3721 39.5678 32.3721C41.3098 32.372 42.7277 30.9608 42.7279 29.2275C42.7279 27.4941 41.3099 26.0821 39.5678 26.082H39.5639C38.9753 26.082 38.4217 26.2473 37.9516 26.5264L35.3129 24.3721V26.9082ZM26.4643 26.3926C25.9705 26.0742 25.3815 25.8857 24.7494 25.8857C23.0074 25.8858 21.5894 27.2969 21.5893 29.0303C21.5893 30.7637 23.0073 32.1748 24.7494 32.1748C26.4916 32.1748 27.9096 30.7638 27.9096 29.0303C27.9096 28.6412 27.8348 28.2677 27.7045 27.9258L28.8539 26.9668H28.85V24.3721L26.4643 26.3926ZM39.5639 27.6543C40.4369 27.6544 41.144 28.3589 41.144 29.2275C41.1437 30.096 40.4367 30.7997 39.5639 30.7998C38.691 30.7998 37.9841 30.096 37.9838 29.2275C37.9838 28.3588 38.6908 27.6543 39.5639 27.6543ZM24.7494 27.458C25.6224 27.458 26.3294 28.1617 26.3295 29.0303C26.3295 29.899 25.6225 30.6025 24.7494 30.6025C23.8764 30.6025 23.1694 29.899 23.1694 29.0303C23.1695 28.1617 23.8765 27.458 24.7494 27.458ZM29.6166 26.1377H34.3569V21.4209H29.6166V26.1377ZM31.9867 11.9316C30.2446 11.9317 28.8266 13.3427 28.8266 15.0762C28.8266 16.4676 29.7393 17.6468 30.9994 18.0596V20.5596H32.974V18.0596C34.2342 17.6468 35.1469 16.4637 35.1469 15.0762C35.1469 13.3427 33.7289 11.9316 31.9867 11.9316ZM31.9867 13.5039C32.8598 13.5039 33.5668 14.2075 33.5668 15.0762C33.5668 15.9448 32.8598 16.6484 31.9867 16.6484C31.1137 16.6484 30.4067 15.9448 30.4067 15.0762C30.4067 14.2075 31.1137 13.5039 31.9867 13.5039Z" fill="white"/>
<defs>
<filter id="filter0_d_3239_1574" x="0.518043" y="0.317604" width="68.9194" height="65.0264" filterUnits="userSpaceOnUse" color-interpolation-filters="sRGB">
<feFlood flood-opacity="0" result="BackgroundImageFix"/>
<feColorMatrix in="SourceAlpha" type="matrix" values="0 0 0 0 0 0 0 0 0 0 0 0 0 0 0 0 0 0 127 0" result="hardAlpha"/>
<feOffset dx="0.739726" dy="0.739726"/>
<feGaussianBlur stdDeviation="4.43836"/>
<feComposite in2="hardAlpha" operator="out"/>
<feColorMatrix type="matrix" values="0 0 0 0 0 0 0 0 0 0 0 0 0 0 0 0 0 0 0.3 0"/>
<feBlend mode="normal" in2="BackgroundImageFix" result="effect1_dropShadow_3239_1574"/>
<feBlend mode="normal" in="SourceGraphic" in2="effect1_dropShadow_3239_1574" result="shape"/>
</filter>
</defs>
</svg>
