<svg width="27" height="34" viewBox="0 0 27 34" fill="none" xmlns="http://www.w3.org/2000/svg">
<g clip-path="url(#clip0_314_668)">
<path d="M11.9058 31.7892C11.8372 31.8044 11.7991 31.8197 11.761 31.8197C10.709 31.8197 9.64933 31.8197 8.59731 31.8273C8.37624 31.8273 8.33812 31.7358 8.35337 31.5223C8.46772 29.9519 8.57444 28.3739 8.67355 26.8035C8.79552 24.8748 8.90224 22.9461 9.01659 21.025C9.10807 19.5385 9.2148 18.0519 9.3139 16.573C9.3139 16.512 9.32915 16.4587 9.33677 16.4358H10.9224C11.2426 21.5053 11.5704 26.6434 11.8982 31.7968L11.9058 31.7892Z" fill="white"/>
<path d="M7.34708 14.7893C7.72062 15.2315 8.0408 15.6202 8.36861 16.0014C8.42959 15.9633 8.14753 16.5274 7.94932 16.8476C6.52376 19.0889 5.0982 21.3377 3.66502 23.579C2.88744 24.7987 2.10224 26.0032 1.32466 27.2229C1.19506 27.4288 1.04259 27.5279 0.806272 27.4364C0.569949 27.3449 0.493715 27.1391 0.524209 26.9028C0.539455 26.7808 0.600442 26.6664 0.646182 26.5521C1.46188 24.5472 2.27757 22.5498 3.08564 20.5525C3.53542 19.4395 3.9852 18.3189 4.4426 17.2059C4.5112 17.0458 4.60268 16.8705 4.73228 16.7714C5.62421 16.0776 6.53901 15.4068 7.3547 14.7969L7.34708 14.7893Z" fill="white"/>
<path d="M8.39147 12.1211C7.88833 11.2673 7.36232 10.3754 6.83632 9.47582C6.013 8.05788 5.1973 6.63232 4.37398 5.21439C3.52017 3.74309 2.66636 2.26416 1.81255 0.792861C1.60672 0.442189 1.62197 0.236359 1.85829 0.0838926C2.09461 -0.0761971 2.3538 -0.0152106 2.59013 0.259229C4.42735 2.41663 6.26457 4.58165 8.10179 6.73905C8.44484 7.14309 8.81838 7.51663 9.13856 7.94353C9.32152 8.1951 9.48923 8.49241 9.55022 8.79735C9.72555 9.62829 9.83228 10.4745 9.98475 11.313C10.0229 11.5341 9.9695 11.6104 9.7408 11.6637C9.29865 11.7781 8.86412 11.9534 8.39147 12.1135V12.1211Z" fill="white"/>
<path d="M12.2565 15.5059C12.3556 14.9647 12.4395 14.492 12.5386 14.0194C12.5538 13.9431 12.691 13.8364 12.7749 13.8364C13.2323 13.8212 13.6897 13.8364 14.1471 13.8364C15.0924 13.8364 16.0377 13.8212 16.983 13.8288C17.9054 13.8288 18.8278 13.8593 19.7502 13.8593C20.7946 13.8593 21.8466 13.8364 22.891 13.8364C23.8439 13.8364 24.7969 13.844 25.7498 13.844C26.0166 13.844 26.23 13.905 26.2682 14.2176C26.2987 14.4692 26.1233 14.675 25.8336 14.736C25.1628 14.8732 24.4843 14.9952 23.8134 15.1248C22.2278 15.4221 20.6345 15.7118 19.0413 16.0014C17.8901 16.2149 16.739 16.4283 15.5803 16.6189C15.3668 16.657 15.1152 16.6189 14.9094 16.5427C14.0251 16.2149 13.1484 15.8642 12.2641 15.5212C12.2336 15.5135 12.2184 15.4831 12.2565 15.5212V15.5059Z" fill="white"/>
<path d="M10.1677 32.4753C10.9987 32.4753 11.8372 32.4753 12.6682 32.4753C13.3162 32.4753 13.583 32.7574 13.5906 33.4206C13.5906 33.9848 13.5906 33.9848 13.0646 33.9848C11.2503 33.9848 9.44353 33.9924 7.62918 34C7.4081 34 7.18702 33.9848 6.97357 33.9924C6.80586 33.9924 6.75249 33.9238 6.76774 33.7637C6.77536 33.6417 6.76774 33.5274 6.76774 33.4054C6.76774 32.7727 7.03456 32.4982 7.6368 32.4982C8.48299 32.4982 9.32155 32.4982 10.1677 32.4982V32.483V32.4753Z" fill="white"/>
<path d="M11.7457 14.0726C11.7457 14.9645 11.0444 15.6887 10.1829 15.6887C9.23003 15.6887 8.52106 15.0026 8.52106 14.0802C8.52106 13.173 9.23003 12.4717 10.1448 12.4717C11.0596 12.4717 11.7457 13.1578 11.7457 14.0726Z" fill="white"/>
</g>
<defs>
<clipPath id="clip0_314_668">
<rect width="25.7592" height="34" fill="white" transform="translate(0.516602)"/>
</clipPath>
</defs>
</svg>
