<svg width="32" height="31" viewBox="0 0 32 31" fill="none" xmlns="http://www.w3.org/2000/svg">
<path d="M14.2448 9.29404V13.0856H17.2349V9.29404C19.1426 8.66808 20.524 6.87365 20.524 4.76923C20.524 2.14019 18.3771 0 15.7398 0C13.1026 0 10.9557 2.14019 10.9557 4.76923C10.9557 6.87962 12.3371 8.66808 14.2448 9.29404ZM15.7398 2.38462C17.0614 2.38462 18.1319 3.45173 18.1319 4.76923C18.1319 6.08673 17.0614 7.15385 15.7398 7.15385C14.4182 7.15385 13.3477 6.08673 13.3477 4.76923C13.3477 3.45173 14.4182 2.38462 15.7398 2.38462Z" fill="white"/>
<path d="M27.2099 21.4615C26.3188 21.4615 25.4816 21.7119 24.7699 22.1352L20.7752 18.8683V22.7135L22.8025 24.3827C22.5633 24.949 22.4317 25.575 22.4317 26.2308C22.4317 28.8598 24.5786 31 27.2158 31C29.8531 31 32 28.8598 32 26.2308C32 23.6017 29.8531 21.4615 27.2158 21.4615H27.2099ZM27.2099 28.6154C25.8882 28.6154 24.8178 27.5483 24.8178 26.2308C24.8178 24.9133 25.8882 23.8462 27.2099 23.8462C28.5315 23.8462 29.6019 24.9133 29.6019 26.2308C29.6019 27.5483 28.5315 28.6154 27.2099 28.6154Z" fill="white"/>
<path d="M10.9916 22.8029V18.8683L7.37956 21.9325C6.63203 21.4496 5.74098 21.1635 4.78415 21.1635C2.14689 21.1635 0 23.3037 0 25.9327C0 28.5617 2.14689 30.7019 4.78415 30.7019C7.42142 30.7019 9.56831 28.5617 9.56831 25.9327C9.56831 25.3425 9.45468 24.7762 9.25734 24.2575L10.9976 22.8029H10.9916ZM4.78415 28.3173C3.46253 28.3173 2.39208 27.2502 2.39208 25.9327C2.39208 24.6152 3.46253 23.5481 4.78415 23.5481C6.10577 23.5481 7.17623 24.6152 7.17623 25.9327C7.17623 27.2502 6.10577 28.3173 4.78415 28.3173Z" fill="white"/>
<path d="M19.328 14.391H12.1517V21.5449H19.328V14.391Z" fill="white"/>
</svg>
