<svg width="37" height="22" viewBox="0 0 37 22" fill="none" xmlns="http://www.w3.org/2000/svg">
<path d="M36.5166 18.2736C36.5166 8.2008 28.4454 0 18.5166 0C8.5878 0 0.516602 8.2008 0.516602 18.2736V19.4328H15.2694C15.6726 20.448 16.6446 21.1752 17.7966 21.1752C18.9486 21.1752 19.9278 20.448 20.3238 19.4328H36.5094V18.2736H36.5166ZM18.1422 15.732C18.027 15.7176 17.919 15.696 17.7966 15.696C16.8102 15.696 15.9534 16.2216 15.471 16.9992H11.1366C11.691 13.5072 14.7294 10.8288 18.3726 10.8288C19.5318 10.8288 20.619 11.1024 21.5982 11.5776L18.1422 15.7248V15.732ZM23.9022 13.356C24.7878 14.3712 25.3998 15.6168 25.623 17.0064H20.8638L23.9022 13.356ZM27.9702 17.1144C27.7398 14.976 26.8038 13.0464 25.3998 11.556L27.4878 9.0504C27.999 8.4384 27.9198 7.524 27.3006 7.0056C26.6814 6.4944 25.7742 6.5736 25.2558 7.1928L23.1174 9.7632C21.7134 8.9712 20.1006 8.5104 18.3798 8.5104C13.4118 8.5104 9.315 12.2832 8.7894 17.1144H2.8782C3.159 13.1688 4.851 9.6264 7.443 6.9912L9.8838 9.432C10.0566 9.6048 10.2798 9.684 10.4958 9.684C10.7118 9.684 10.9422 9.5976 11.1078 9.432C11.4462 9.0936 11.4462 8.5392 11.1078 8.2008L8.7246 5.8176C11.0934 3.888 14.0238 2.6352 17.2278 2.376V5.5656C17.2278 6.048 17.6166 6.4368 18.099 6.4368C18.5814 6.4368 18.9702 6.048 18.9702 5.5656V2.3328C27.027 2.5704 33.579 9.0144 34.1478 17.1144H27.9558H27.9702Z" fill="white"/>
</svg>
