<svg width="41" height="17" viewBox="0 0 41 17" fill="none" xmlns="http://www.w3.org/2000/svg">
<path d="M40.4633 10.0319C40.279 9.25204 39.882 8.58561 39.3999 7.96172C38.5845 6.91244 37.6274 6.03332 36.4293 5.43779C35.9188 5.18965 35.3587 5.06913 34.7916 5.06913C26.1492 5.06913 16.7341 5.06913 8.08472 5.06913C7.87912 5.06913 7.6877 4.96278 7.57426 4.79263C6.68096 3.45268 5.82311 2.11273 4.92272 0.772776C4.5895 0.290677 4.02942 0 3.43389 0C2.57603 0 2.29954 0 1.37079 0C0.938316 0 0.612191 0.23396 0.534204 0.623892C0.498756 0.786955 0.520025 0.971287 0.569653 1.12726C1.54094 4.15456 2.51932 7.18185 3.49769 10.2091C3.65367 10.6983 3.81673 11.1875 3.9727 11.6767C4.17121 12.2864 4.74548 12.6976 5.39064 12.6976C7.38284 12.6976 12.0833 12.6976 12.14 12.6976C12.14 12.7118 8.67316 15.4342 8.61645 15.4555C8.38958 15.6824 8.17689 15.8029 8.18398 16.0581C8.19107 16.3134 8.36831 16.5402 8.65189 16.6253C8.91421 16.7033 9.19071 16.7529 9.46012 16.8309C10.1762 17.0578 10.8781 16.9373 11.5941 16.8167C12.927 16.597 26.4045 12.8323 27.3616 12.7118C27.8295 12.6551 28.3045 12.6976 28.7795 12.6976C31.3318 12.6976 33.877 12.6976 36.4293 12.6976C37.2942 12.6976 38.1521 12.648 38.9745 12.3644C39.251 12.2722 39.5204 12.1446 39.7614 11.9816C40.4066 11.542 40.6476 10.8259 40.4562 10.0248L40.4633 10.0319ZM5.81602 10.039C5.77348 10.0532 5.73803 10.0603 5.6955 10.0603C5.5537 10.0603 5.419 9.97519 5.36228 9.8263L2.37043 1.56682C2.30663 1.38249 2.39879 1.18398 2.58312 1.11308C2.76746 1.04927 2.96597 1.14144 3.03686 1.32577L6.02871 9.58525C6.09252 9.76959 6.00035 9.9681 5.81602 10.039ZM11.9982 8.69904C11.9982 9.25204 11.5445 9.70578 10.9915 9.70578C10.4385 9.70578 9.98476 9.25204 9.98476 8.69904V7.73485C9.98476 7.18185 10.4385 6.72811 10.9915 6.72811C11.5445 6.72811 11.9982 7.18185 11.9982 7.73485V8.69904ZM19.6196 7.73485C19.6196 7.18185 20.0734 6.72811 20.6264 6.72811C21.1794 6.72811 21.6331 7.18185 21.6331 7.73485V8.69904C21.6331 9.25204 21.1794 9.70578 20.6264 9.70578C20.0734 9.70578 19.6196 9.25204 19.6196 8.69904V7.73485ZM16.4009 7.73485C16.4009 7.18185 16.8547 6.72811 17.4077 6.72811C17.9607 6.72811 18.4144 7.18185 18.4144 7.73485V8.69904C18.4144 9.25204 17.9607 9.70578 17.4077 9.70578C16.8547 9.70578 16.4009 9.25204 16.4009 8.69904V7.73485ZM13.1893 7.73485C13.1893 7.18185 13.643 6.72811 14.196 6.72811C14.749 6.72811 15.2028 7.18185 15.2028 7.73485V8.69904C15.2028 9.25204 14.749 9.70578 14.196 9.70578C13.643 9.70578 13.1893 9.25204 13.1893 8.69904V7.73485ZM23.3205 12.7118L11.1546 16.0085C11.1546 16.0085 11.0978 16.0227 11.0766 16.0227C10.9419 16.0227 10.8213 15.9376 10.7859 15.8029C10.7434 15.6398 10.8355 15.4768 10.9986 15.4342L23.1645 12.1375C23.3275 12.0879 23.4906 12.1872 23.5331 12.3502C23.5757 12.5133 23.4835 12.6764 23.3205 12.7189V12.7118ZM24.8518 8.69904C24.8518 9.25204 24.3981 9.70578 23.8451 9.70578C23.2921 9.70578 22.8384 9.25204 22.8384 8.69904V7.73485C22.8384 7.18185 23.2921 6.72811 23.8451 6.72811C24.3981 6.72811 24.8518 7.18185 24.8518 7.73485V8.69904ZM28.0635 8.69904C28.0635 9.25204 27.6097 9.70578 27.0567 9.70578C26.5037 9.70578 26.05 9.25204 26.05 8.69904V7.73485C26.05 7.18185 26.5037 6.72811 27.0567 6.72811C27.6097 6.72811 28.0635 7.18185 28.0635 7.73485V8.69904ZM31.2751 8.69904C31.2751 9.25204 30.8213 9.70578 30.2683 9.70578C29.7154 9.70578 29.2616 9.25204 29.2616 8.69904V7.73485C29.2616 7.18185 29.7154 6.72811 30.2683 6.72811C30.8213 6.72811 31.2751 7.18185 31.2751 7.73485V8.69904ZM38.3577 9.52854C38.3222 9.52854 38.2868 9.52854 38.2442 9.52854H36.2591C35.7345 9.52854 35.2099 9.52854 34.6852 9.52854C34.4725 9.52854 33.8628 9.52854 33.6572 9.52854C33.4871 9.52854 33.3949 9.44346 33.3949 9.29458C33.3949 8.50053 33.3949 7.70649 33.3949 6.91244C33.3949 6.61468 33.643 6.36654 33.9408 6.37363C34.2953 6.37363 35.0468 6.38781 35.3942 6.3949C35.9401 6.40199 36.4009 6.61468 36.805 6.96916C37.514 7.59305 38.1025 8.30202 38.5916 9.11025C38.7689 9.40801 38.7051 9.52145 38.3506 9.52854H38.3577Z" fill="white"/>
</svg>
