<svg width="21" height="34" viewBox="0 0 21 34" fill="none" xmlns="http://www.w3.org/2000/svg">
<g clip-path="url(#clip0_314_445)">
<path d="M10.9936 7.49747L10.0111 7.3042L4.49481 33.3317C4.43844 33.5733 4.68003 33.8471 5.34038 33.9759C6.00073 34.1048 6.29064 33.8471 6.3309 33.6055L10.9936 7.49747Z" fill="white"/>
<path d="M11.0258 7.3042L10.0434 7.49747L14.6578 33.5491C14.698 33.7988 15.0765 34.0323 15.7288 33.9034C16.3811 33.7746 16.5905 33.5088 16.5341 33.2673L11.0258 7.3042Z" fill="white"/>
<path fill-rule="evenodd" clip-rule="evenodd" d="M15.1571 30.1948H5.62225V29.2048H15.1571V30.1948Z" fill="white"/>
<path fill-rule="evenodd" clip-rule="evenodd" d="M13.6986 30.0992L7.66684 20.4597L8.50608 19.9346L14.5378 29.5741L13.6986 30.0992Z" fill="white"/>
<path fill-rule="evenodd" clip-rule="evenodd" d="M6.41675 29.5771L12.3518 19.9376L13.1949 20.4567L7.25977 30.0962L6.41675 29.5771Z" fill="white"/>
<path fill-rule="evenodd" clip-rule="evenodd" d="M13.1921 19.7661H7.61133V18.7761H13.1921V19.7661Z" fill="white"/>
<path d="M10.3977 9.34145C11.523 9.34145 12.4351 8.42926 12.4351 7.30402C12.4351 6.17879 11.523 5.2666 10.3977 5.2666C9.27248 5.2666 8.36029 6.17879 8.36029 7.30402C8.36029 8.42926 9.27248 9.34145 10.3977 9.34145Z" fill="white"/>
<path d="M20.311 9.07579C20.464 8.21412 20.5123 7.54571 20.4882 6.83704C20.464 6.3297 20.3674 5.71767 20.2868 5.29891C20.158 4.60635 19.9567 3.90573 19.6829 3.20512C19.2399 2.08574 18.5715 1.03884 17.6454 0.0161061L17.6293 0C17.6293 0 17.6293 0 17.6213 0.00805306C17.5569 0.0724775 17.5005 0.128849 17.4361 0.193273C17.3716 0.249645 17.3153 0.306016 17.2589 0.370441C16.9609 0.668404 16.663 0.966367 16.365 1.27238C16.3489 1.28849 16.3408 1.30459 16.3328 1.31265C16.8321 1.77167 17.2025 2.31123 17.4924 2.7783C18.1125 3.76078 18.5393 4.83183 18.7407 5.95926C18.8534 6.59545 18.8453 7.24775 18.8292 7.90005C18.8051 8.5604 18.6762 9.25296 18.4427 9.96163C18.04 11.1535 17.3475 12.2568 16.3892 13.2392C16.365 13.2634 16.3489 13.2795 16.3408 13.2875C16.3408 13.2875 16.357 13.3036 16.365 13.3117C16.6308 13.5291 16.8885 13.7546 17.1542 13.9801C17.3072 14.109 17.4602 14.2378 17.6052 14.3667C17.6052 14.3667 17.6052 14.3667 17.6132 14.3667C17.6132 14.3667 17.6132 14.3667 17.6213 14.3586C18.2333 13.7466 18.7568 13.054 19.1755 12.297C19.7312 11.2984 20.1177 10.2113 20.3191 9.08385L20.311 9.07579Z" fill="white"/>
<path d="M15.1007 11.9749L15.1973 11.8702C15.3181 11.7333 15.4389 11.6125 15.5436 11.4756C15.906 10.9844 16.2039 10.4287 16.4616 9.78447C16.7516 9.04359 16.9368 8.44766 16.8885 6.95785C16.8401 5.7821 16.4455 4.63857 15.6966 3.47893C15.5516 3.24539 15.3664 3.04406 15.1651 2.83468L15.1007 2.76221C14.69 3.18097 14.2632 3.60778 13.8202 4.03459C13.8122 4.04264 13.8041 4.0507 13.7961 4.05875C13.7961 4.0668 13.8122 4.07485 13.8283 4.09096C14.0699 4.31645 14.2551 4.59025 14.4242 4.84795C15.1329 5.97538 15.3503 7.20749 15.0685 8.49598C14.8832 9.3335 14.4725 10.0663 13.8605 10.6703C13.8444 10.6864 13.8283 10.7025 13.8202 10.7106C14.1424 11.0246 14.4564 11.3468 14.7786 11.6689L15.0926 11.983L15.1007 11.9749Z" fill="white"/>
<path d="M0.694081 9.07579C0.549126 8.21412 0.492755 7.54571 0.516914 6.83704C0.541073 6.3297 0.63771 5.71767 0.71824 5.29891C0.847089 4.60635 1.04842 3.90573 1.32222 3.20512C1.77319 2.08574 2.44159 1.03884 3.3677 0.0161061C3.37575 0.00805306 3.37575 0 3.3838 0C3.3838 0 3.3838 0 3.39185 0.00805306C3.45628 0.0724775 3.51265 0.128849 3.57708 0.193273C3.6415 0.249645 3.69787 0.306016 3.75424 0.370441C4.05221 0.668404 4.35017 0.966367 4.64813 1.27238C4.66424 1.28849 4.67229 1.30459 4.68034 1.31265C4.18105 1.77167 3.81061 2.31123 3.5207 2.7783C2.90062 3.76078 2.47381 4.83183 2.27248 5.95926C2.15974 6.59545 2.16779 7.24775 2.1839 7.90005C2.20806 8.5604 2.3369 9.25296 2.57044 9.96163C2.9731 11.1535 3.66566 12.2568 4.62397 13.2392C4.64813 13.2634 4.66424 13.2795 4.67229 13.2875C4.67229 13.2875 4.65618 13.3036 4.64813 13.3117C4.38238 13.5291 4.12468 13.7546 3.85893 13.9801C3.70592 14.109 3.55292 14.2378 3.40796 14.3667C3.40796 14.3667 3.40796 14.3667 3.39991 14.3667C3.39991 14.3667 3.39991 14.3667 3.39185 14.3586C2.77982 13.7466 2.25637 13.054 1.83762 12.297C1.28195 11.2984 0.895408 10.2113 0.694081 9.08385V9.07579Z" fill="white"/>
<path d="M5.91215 11.9749L5.81552 11.8702C5.69472 11.7333 5.57393 11.6125 5.46924 11.4756C5.10685 10.9844 4.80889 10.4287 4.55119 9.78447C4.26128 9.04359 4.07606 8.44766 4.12438 6.95785C4.17269 5.7821 4.56729 4.63857 5.31623 3.47893C5.46118 3.24539 5.6464 3.04406 5.84773 2.83468L5.91215 2.76221C6.32286 3.18097 6.74967 3.60778 7.19259 4.03459C7.20064 4.04264 7.2087 4.0507 7.21675 4.05875C7.21675 4.0668 7.20064 4.07485 7.18454 4.09096C6.94295 4.31645 6.75773 4.59025 6.58861 4.84795C5.87994 5.97538 5.66251 7.20749 5.94437 8.49598C6.12959 9.3335 6.54029 10.0663 7.15232 10.6703C7.16843 10.6864 7.18454 10.7025 7.19259 10.7106C6.87047 11.0246 6.5564 11.3468 6.23428 11.6689L5.92021 11.983L5.91215 11.9749Z" fill="white"/>
</g>
<defs>
<clipPath id="clip0_314_445">
<rect width="19.9716" height="34" fill="white" transform="translate(0.516602)"/>
</clipPath>
</defs>
</svg>
