<svg width="33" height="28" viewBox="0 0 33 28" fill="none" xmlns="http://www.w3.org/2000/svg">
<path fill-rule="evenodd" clip-rule="evenodd" d="M20.2625 8.3791L21.6006 6.68095H25.88V9.41837C25.88 10.0976 26.6747 10.4576 27.191 10.0161L32.17 5.70281C32.5368 5.39035 32.5368 4.82656 32.17 4.50731L27.191 0.193995C26.6815 -0.247525 25.88 0.112484 25.88 0.791745V3.38653H19.9976L17.6677 6.34811C18.6594 6.85076 19.5425 7.54361 20.2625 8.3791ZM9.93772 6.46358L7.13237 2.89066H0.516357V6.18508H5.52931L7.41087 8.58288C8.10371 7.72022 8.95958 7.0002 9.93772 6.46358ZM25.88 18.5748C25.88 17.8956 26.6815 17.5356 27.191 17.9771L27.1978 17.9839L32.1768 22.2972C32.5436 22.6164 32.5436 23.1802 32.1768 23.4927L27.1978 27.806C26.6815 28.2475 25.8868 27.8875 25.8868 27.2082V24.5863H20.0044L17.4639 21.3598C18.476 20.8843 19.3727 20.2118 20.1131 19.3967L21.6006 21.2919H25.88V18.5748ZM7.55351 19.1997L5.52252 21.7809H0.516357V25.0754H7.12557L10.1415 21.2443C9.14977 20.7349 8.27353 20.042 7.55351 19.1997ZM13.925 6.76923C14.9643 6.76923 15.9492 7.00017 16.839 7.40773C17.8579 7.87642 18.7478 8.56927 19.4338 9.43872C20.3848 10.641 20.9622 12.0743 20.9622 13.8064C20.9622 15.5385 20.3305 17.1212 19.2912 18.3506C18.578 19.1929 17.6677 19.8654 16.6353 20.3001C15.7998 20.6465 14.8896 20.8435 13.9318 20.8435C12.879 20.8435 11.8804 20.599 10.9838 20.1846C9.97171 19.716 9.08867 19.0095 8.40261 18.1401C7.45844 16.9446 6.89465 15.4434 6.89465 13.8064C6.89465 12.2509 7.4041 10.8244 8.25997 9.65609C8.91206 8.75946 9.77472 8.02586 10.7732 7.52321C11.7242 7.04772 12.7906 6.76923 13.925 6.76923ZM14.4752 14.737L16.3907 18.0653H17.8511L15.7658 14.6147C16.3432 14.4788 16.7643 14.2275 17.0428 13.8539C17.3213 13.4803 17.4572 12.9709 17.4572 12.3256V11.9452C17.4572 11.0961 17.2126 10.478 16.7372 10.1044C16.2617 9.73081 15.5213 9.54061 14.5228 9.54061H11.3166V18.0653H12.5733V14.737H14.4752ZM16.1929 12.1691C16.1929 12.4679 16.1658 12.7124 16.1115 12.9025V12.9093C16.0503 13.0927 15.962 13.2421 15.833 13.3507C15.704 13.4594 15.5342 13.5341 15.3169 13.568C15.0996 13.602 14.8347 13.6224 14.5155 13.6224H12.5665V10.675H14.5155C14.8347 10.675 15.0996 10.6954 15.3169 10.7293C15.5342 10.7633 15.704 10.838 15.833 10.9399C15.962 11.0417 16.0571 11.1843 16.1115 11.3745C16.1658 11.5579 16.1929 11.8023 16.1929 12.1079V12.1691Z" fill="white"/>
</svg>
