<svg width="35" height="26" viewBox="0 0 35 26" fill="none" xmlns="http://www.w3.org/2000/svg">
<path d="M5.37577 18.8903C6.72959 18.8903 7.83382 19.9945 7.83382 21.3484C7.83382 22.7022 6.72959 23.8064 5.37577 23.8064C4.02195 23.8064 2.91772 22.7022 2.91772 21.3484C2.91772 19.9945 4.02195 18.8903 5.37577 18.8903ZM5.37577 17.355C3.16731 17.355 1.38239 19.1399 1.38239 21.3484C1.38239 23.5568 3.16731 25.3418 5.37577 25.3418C7.58423 25.3418 9.36916 23.5568 9.36916 21.3484C9.36916 19.1399 7.58423 17.355 5.37577 17.355Z" fill="white"/>
<path d="M30.6284 18.8903C31.9822 18.8903 33.0864 19.9945 33.0864 21.3484C33.0864 22.7022 31.9822 23.8064 30.6284 23.8064C29.2746 23.8064 28.1703 22.7022 28.1703 21.3484C28.1703 19.9945 29.2746 18.8903 30.6284 18.8903ZM30.6284 17.355C28.4199 17.355 26.635 19.1399 26.635 21.3484C26.635 23.5568 28.4199 25.3418 30.6284 25.3418C32.8369 25.3418 34.6218 23.5568 34.6218 21.3484C34.6218 19.1399 32.8369 17.355 30.6284 17.355Z" fill="white"/>
<path d="M21.2045 1.35107H27.0433L30.0913 17.6877" stroke="white" stroke-width="2.3" stroke-miterlimit="10" stroke-linecap="round"/>
<path fill-rule="evenodd" clip-rule="evenodd" d="M29.8423 12.9492C30.2035 12.4268 30.0728 11.7104 29.5504 11.3492C29.028 10.988 28.3117 11.1187 27.9505 11.6411L22.1747 19.9941H12.5581C12.0281 16.5451 9.04527 13.9011 5.44876 13.9011C3.87571 13.9011 2.41484 14.4055 1.22521 15.2707C0.711559 15.6443 0.597997 16.3635 0.97156 16.8771C1.34512 17.3908 2.06435 17.5043 2.578 17.1308C3.38507 16.5438 4.37468 16.2011 5.44876 16.2011C8.14902 16.2011 10.3418 18.3939 10.3418 21.0941C10.3418 21.6834 10.785 22.1692 11.3563 22.2362C11.4699 22.2738 11.5913 22.2941 11.7174 22.2941H23.3807L29.8423 12.9492Z" fill="white"/>
</svg>
