<svg width="26" height="28" viewBox="0 0 26 28" fill="none" xmlns="http://www.w3.org/2000/svg">
<path d="M2.33203 7.77344C1.04424 7.77332 9.12935e-08 6.6308 2.03878e-07 5.22168L4.17197e-07 2.55176C5.29782e-07 1.14264 1.04424 0.000108932 2.33203 -2.23384e-06L23.3525 -2.23076e-07C24.6404 -9.98805e-08 25.6846 1.14257 25.6846 2.55176L25.6846 5.22168C25.6846 6.63087 24.6404 7.77344 23.3525 7.77344L2.33203 7.77344ZM20.4238 5.38672C21.1793 5.38672 21.792 4.71623 21.792 3.88965C21.7919 3.06317 21.1792 2.39355 20.4238 2.39355C19.6686 2.39373 19.0568 3.06328 19.0566 3.88965C19.0566 4.71612 19.6685 5.38654 20.4238 5.38672ZM13.9609 4.97461C14.4035 4.97461 14.7627 4.58195 14.7627 4.09766L14.7627 3.68262C14.7627 3.19832 14.4035 2.80566 13.9609 2.80566L3.81738 2.80566C3.37478 2.80566 3.01563 3.19832 3.01563 3.68262L3.01563 4.09765C3.01563 4.58195 3.37478 4.97461 3.81738 4.97461L13.9609 4.97461Z" fill="white"/>
<path d="M2.33252 17.5581C1.04475 17.558 0.000488373 16.4154 0.000488485 15.0063L0.000488698 12.3364C0.000488811 10.9273 1.04475 9.78481 2.33252 9.78467L23.353 9.78467C24.6409 9.78467 25.6851 10.9272 25.6851 12.3364L25.6851 15.0063C25.6851 16.4155 24.6409 17.5581 23.353 17.5581L2.33252 17.5581ZM20.4243 15.1724C21.1796 15.1723 21.7915 14.5018 21.7915 13.6753C21.7915 12.8488 21.1797 12.1783 20.4243 12.1782C19.6689 12.1782 19.0562 12.8487 19.0562 13.6753C19.0562 14.5018 19.6689 15.1724 20.4243 15.1724ZM13.9614 14.7593C14.404 14.7593 14.7632 14.3666 14.7632 13.8823L14.7632 13.4673C14.7632 12.983 14.404 12.5903 13.9614 12.5903L3.81787 12.5903C3.37527 12.5903 3.01611 12.983 3.01611 13.4673L3.01611 13.8823C3.01611 14.3666 3.37527 14.7593 3.81787 14.7593L13.9614 14.7593Z" fill="white"/>
<path d="M2.33252 27.1895C1.04475 27.1893 0.000488373 26.0468 0.000488485 24.6377L0.000488698 21.9678C0.000488811 20.5587 1.04475 19.4162 2.33252 19.416L23.353 19.416C24.6409 19.416 25.6851 20.5586 25.6851 21.9678L25.6851 24.6377C25.6851 26.0469 24.6409 27.1895 23.353 27.1895L2.33252 27.1895ZM20.4243 24.8027C21.1796 24.8026 21.7913 24.133 21.7915 23.3066C21.7915 22.4801 21.1797 21.8097 20.4243 21.8096C19.6689 21.8096 19.0562 22.4801 19.0562 23.3066C19.0563 24.1331 19.669 24.8027 20.4243 24.8027ZM13.9614 24.3906C14.404 24.3906 14.7632 23.998 14.7632 23.5137L14.7632 23.0986C14.7632 22.6143 14.404 22.2217 13.9614 22.2217L3.81787 22.2217C3.37527 22.2217 3.01611 22.6143 3.01611 23.0986L3.01611 23.5137C3.01611 23.998 3.37527 24.3906 3.81787 24.3906L13.9614 24.3906Z" fill="white"/>
</svg>
