<svg width="22" height="28" viewBox="0 0 22 28" fill="none" xmlns="http://www.w3.org/2000/svg">
<path fill-rule="evenodd" clip-rule="evenodd" d="M17.9346 0H6.68627L0 6V24.2667C0 26.3285 1.72063 28 3.84314 28H17.9346C20.0571 28 21.7778 26.3285 21.7778 24.2667V3.73333C21.7778 1.67147 20.0571 0 17.9346 0ZM18.415 15.8667H3.84314V19.4444H18.415V15.8667ZM3.84314 12.2889C3.84314 11.3439 4.63176 10.5778 5.60458 10.5778H7.52614V14.1556H3.84314V12.2889ZM16.4935 24.7333C17.4663 24.7333 18.2549 23.9672 18.2549 23.0222V21.1556H14.5719V24.7333H16.4935ZM9.28758 10.5778H12.9706V14.1556H9.28758V10.5778ZM9.12745 24.7333H12.8105V21.1556H9.12745L9.12745 24.7333ZM14.5719 10.5778H16.4935C17.4663 10.5778 18.2549 11.3439 18.2549 12.2889V14.1556H14.5719V10.5778ZM5.60458 24.7333H7.52614V21.1556H3.84314V23.0222C3.84314 23.9672 4.63176 24.7333 5.60458 24.7333Z" fill="white"/>
</svg>
