<svg width="22" height="32" viewBox="0 0 22 32" fill="none" xmlns="http://www.w3.org/2000/svg">
<path d="M20.4714 27.2511H10.3786C9.64898 27.2511 9.06018 26.6623 9.06018 25.9327C9.06018 25.2031 9.64898 24.6143 10.3786 24.6143H20.4714C21.201 24.6143 21.7898 25.2031 21.7898 25.9327C21.7898 26.6623 21.201 27.2511 20.4714 27.2511Z" fill="white"/>
<path d="M1.83476 27.2511C2.56289 27.2511 3.15316 26.6608 3.15316 25.9327C3.15316 25.2045 2.56289 24.6143 1.83476 24.6143C1.10663 24.6143 0.516357 25.2045 0.516357 25.9327C0.516357 26.6608 1.10663 27.2511 1.83476 27.2511Z" fill="white"/>
<path d="M6.36601 27.2511C7.09414 27.2511 7.68441 26.6608 7.68441 25.9327C7.68441 25.2045 7.09414 24.6143 6.36601 24.6143C5.63788 24.6143 5.04761 25.2045 5.04761 25.9327C5.04761 26.6608 5.63788 27.2511 6.36601 27.2511Z" fill="white"/>
<path d="M20.4714 32.0001H10.3786C9.64898 32.0001 9.06018 31.4113 9.06018 30.6817C9.06018 29.9521 9.64898 29.3633 10.3786 29.3633H20.4714C21.201 29.3633 21.7898 29.9521 21.7898 30.6817C21.7898 31.4113 21.201 32.0001 20.4714 32.0001Z" fill="white"/>
<path d="M1.83476 32.0001C2.56289 32.0001 3.15316 31.4098 3.15316 30.6817C3.15316 29.9535 2.56289 29.3633 1.83476 29.3633C1.10663 29.3633 0.516357 29.9535 0.516357 30.6817C0.516357 31.4098 1.10663 32.0001 1.83476 32.0001Z" fill="white"/>
<path d="M6.36601 32.0001C7.09414 32.0001 7.68441 31.4098 7.68441 30.6817C7.68441 29.9535 7.09414 29.3633 6.36601 29.3633C5.63788 29.3633 5.04761 29.9535 5.04761 30.6817C5.04761 31.4098 5.63788 32.0001 6.36601 32.0001Z" fill="white"/>
<path d="M19.9083 4.3456C19.9083 4.1344 19.8635 3.9168 19.7803 3.7056C19.7483 3.6224 19.7035 3.552 19.6587 3.4816C18.6603 1.6192 14.6411 0 10.5515 0C6.00747 0 1.72587 2.0032 1.50187 4.1728C1.40587 4.3456 1.38667 15.6224 1.44427 15.7632C1.59147 18.9632 9.75786 19.0592 10.6923 19.0592C11.6267 19.0592 19.9531 18.9632 19.9531 15.6736C19.9531 15.6352 19.9019 4.3904 19.9019 4.3392L19.9083 4.3456ZM17.8091 9.8624V9.8944C17.2651 10.4128 14.6475 11.232 10.6987 11.232C7.00587 11.232 4.48427 10.5152 3.72267 9.9968V6.6944C6.24427 7.6736 10.0715 7.712 10.6987 7.712C11.3259 7.712 15.2747 7.6672 17.7899 6.6432L17.8027 9.536C17.7835 9.6448 17.7899 9.7536 17.8027 9.8624H17.8091ZM10.5515 2.112C14.4363 2.112 17.1883 3.6288 17.7195 4.3136C17.0987 4.832 14.5387 5.6064 10.7051 5.6064C6.87147 5.6064 4.23467 4.8128 3.66507 4.2944C4.14507 3.616 6.76267 2.112 10.5515 2.112ZM10.6987 16.9536C6.88426 16.9536 3.58827 16.0896 3.72267 15.296V12.3328C6.25707 13.2992 10.0715 13.344 10.6987 13.344C11.3259 13.344 15.2875 13.2992 17.8219 12.2752C17.8219 12.2752 17.8091 15.4048 17.8347 15.5648C17.2907 16.0832 14.6539 16.96 10.6987 16.96V16.9536Z" fill="white"/>
</svg>
