<svg width="26" height="30" viewBox="0 0 26 30" fill="none" xmlns="http://www.w3.org/2000/svg">
<g clip-path="url(#clip0_314_639)">
<path d="M24.9195 6.4103C24.5166 6.4103 23.4617 6.42496 23.0587 6.44693C22.5606 7.01836 21.8353 7.38466 21.0221 7.38466C21.0074 7.38466 20.9928 7.38466 20.9708 7.38466C20.7877 7.39199 20.5972 7.38466 20.3994 7.34803C20.121 7.28942 19.8719 7.17221 19.6668 7.01836C18.8536 6.5495 18.2968 5.6777 18.2968 4.67404C18.2968 3.67038 18.8536 2.79858 19.6668 2.32239C20.0404 2.044 20.5019 1.92679 20.9562 1.95609C20.9781 1.95609 20.9928 1.95609 21.0148 1.95609C21.8353 1.95609 22.5606 2.32239 23.0587 2.89382C23.4543 2.9158 24.2895 2.92312 24.6924 2.93045C24.7437 2.93045 24.8023 2.93045 24.8536 2.90847C25.0734 2.84254 25.1393 2.63008 25.0074 2.44693C24.9781 2.4103 24.9415 2.37367 24.9122 2.33704C24.3261 1.76561 23.3005 0.769278 22.7217 0.197849C22.5679 0.0440028 22.3847 -0.00727928 22.1723 0.0220247C21.828 0.0733068 21.491 0.131915 21.1466 0.190523C20.3261 0.329717 19.2858 0.476237 18.4653 0.608105C18.143 0.659387 17.8939 0.776604 17.7327 1.09895C17.4104 1.74364 16.8243 2.80591 16.4873 3.4506C16.414 3.58979 16.3335 3.65572 16.165 3.6484C15.6595 3.61177 15.5935 3.59712 15.088 3.56781C14.3994 3.53118 13.7181 3.49455 13.0294 3.45792C12.0551 3.40664 11.088 3.36268 10.1137 3.30408C10.0184 3.30408 9.90122 3.24547 9.82796 3.17953C9.25653 2.63008 8.58254 2.40298 7.79133 2.49822C6.78766 2.62276 5.77667 3.47257 5.74004 4.79858C5.71807 5.56781 6.02576 6.20517 6.61184 6.70334C6.7144 6.79125 6.80964 6.90847 6.8536 7.03301C7.09536 7.75096 7.32246 8.47624 7.54957 9.20151C7.93785 10.403 8.3188 11.5971 8.70708 12.7913C8.74371 12.9085 8.72173 12.9744 8.64847 13.0696C8.01111 13.8389 7.69609 14.7253 7.71807 15.7143C7.74737 16.8792 8.20891 17.8828 9.09536 18.6447C9.28583 18.8132 9.32246 18.9817 9.30048 19.2015C9.21257 20.0513 9.13199 20.9085 9.0514 21.7583C9.0514 21.7803 9.0514 21.7949 9.04407 21.8096H4.84627C4.07704 21.8096 3.46166 22.4323 3.46166 23.1942V27.2455H1.89389C1.13199 27.2455 0.516602 27.8609 0.516602 28.6228C0.516602 29.3847 1.13199 30 1.89389 30H21.9452C22.7071 30 23.3225 29.3847 23.3225 28.6228C23.3225 27.8609 22.7071 27.2455 21.9452 27.2455H20.3774V23.1942C20.3774 22.425 19.7547 21.8096 18.9928 21.8096H14.795C14.795 21.8096 14.7877 21.7729 14.7877 21.751C14.7584 21.2528 14.7071 20.7546 14.6558 20.2638C14.6045 19.7656 14.5459 19.2601 14.5019 18.762C14.4946 18.674 14.5239 18.5495 14.5899 18.4909C15.2712 17.7803 15.6741 16.9524 15.7474 15.9561C15.806 15.2162 15.6814 14.5129 15.3518 13.8535C14.8463 12.8425 14.0477 12.1612 12.9708 11.8022C12.8536 11.7656 12.7803 11.6997 12.7291 11.5825C12.143 10.1246 11.5569 8.67404 10.9635 7.21616C10.8536 6.9451 10.751 6.66671 10.6338 6.381C11.806 6.31506 12.9415 6.24913 14.0844 6.19052C15.0001 6.13924 15.4836 6.10994 16.3994 6.05865C16.5166 6.05865 16.5752 6.08063 16.6265 6.1832C16.9342 6.75462 17.469 7.97074 17.7767 8.54217C17.8866 8.75463 18.0551 8.87184 18.2822 8.90847C18.6118 8.95975 21.0514 9.27477 22.1503 9.32605C22.3628 9.33338 22.5313 9.3114 22.6851 9.16488C23.2858 8.5788 24.5459 7.56049 25.1466 6.97441C25.1979 6.92312 25.2419 6.86452 25.2639 6.79858C25.3371 6.57148 25.2052 6.42496 24.9122 6.42496L24.9195 6.4103ZM8.121 5.8169C7.5862 5.8169 7.14664 5.38466 7.14664 4.84254C7.14664 4.30041 7.57155 3.8755 8.121 3.86818C8.66312 3.86818 9.09536 4.29309 9.09536 4.83521C9.09536 5.37734 8.66312 5.80957 8.121 5.80957V5.8169ZM14.9049 25.0257C15.2272 25.7583 15.4617 26.1832 15.6961 26.1832C15.9305 26.1832 16.165 25.7583 16.4873 25.0257C16.8609 24.1832 17.2419 23.3187 18.2309 23.3187H18.2529V24.1466H18.2309C18.0038 24.1466 17.7693 24.5641 17.447 25.2968C17.088 26.1099 16.6851 27.0184 15.6961 27.0184C14.7071 27.0184 14.3041 26.1099 13.9525 25.3114C13.6302 24.5788 13.3957 24.1539 13.1613 24.1539C12.9269 24.1539 12.6924 24.5935 12.3774 25.3114C12.0038 26.1539 11.6228 27.0257 10.6338 27.0257C9.64481 27.0257 9.24188 26.1173 8.89023 25.3187C8.57521 24.6008 8.33345 24.1612 8.10634 24.1612C7.87924 24.1612 7.63748 24.6008 7.32246 25.3187C6.97081 26.1246 6.56788 27.033 5.57887 27.033H5.55689V26.2052H5.57887C5.80598 26.2052 6.04774 25.7656 6.36276 25.0477C6.73638 24.2052 7.11733 23.3334 8.10634 23.3334C9.09536 23.3334 9.47631 24.2052 9.84993 25.0403C10.165 25.7583 10.4067 26.1978 10.6338 26.1978C10.8609 26.1978 11.0954 25.7729 11.4177 25.0403C11.7913 24.1978 12.1723 23.3334 13.1613 23.3334C14.1503 23.3334 14.5313 24.2052 14.9049 25.0403V25.0257ZM11.6888 13.9414C12.5825 13.9414 13.3151 14.6667 13.3151 15.5678C13.3151 16.4689 12.5899 17.1942 11.6888 17.1942C10.7877 17.1942 10.0624 16.4689 10.0624 15.5678C10.0624 14.6667 10.7877 13.9414 11.6888 13.9414Z" fill="white"/>
</g>
<defs>
<clipPath id="clip0_314_639">
<rect width="24.7692" height="30" fill="white" transform="translate(0.516602)"/>
</clipPath>
</defs>
</svg>
