<svg width="25" height="35" viewBox="0 0 25 35" fill="none" xmlns="http://www.w3.org/2000/svg">
<path fill-rule="evenodd" clip-rule="evenodd" d="M18.7231 5.58667C18.7231 7.96667 17.2297 9.99333 15.1297 10.8H15.1231C18.7764 11.5867 21.5097 14.8267 21.5097 18.7133V21.2267H5.30972V18.7133C5.30972 14.9533 7.88972 11.7933 11.3697 10.8867C9.14972 10.1467 7.54972 8.05333 7.54972 5.58667C7.54972 2.5 10.0497 0 13.1364 0C16.2231 0 18.7231 2.5 18.7231 5.58667ZM10.7497 26.9267H24.5164V33.2267H21.5164V29.9267H19.1164V33.2267H16.1164V29.9267H11.283C10.983 32.62 8.68969 34.7267 5.91636 34.7267C2.93636 34.7267 0.516357 32.3067 0.516357 29.3267C0.516357 26.3467 2.93636 23.9267 5.91636 23.9267C8.03636 23.9267 9.86302 25.1533 10.7497 26.9267ZM3.51636 29.3267C3.51636 30.6533 4.58969 31.7267 5.91636 31.7267C7.24302 31.7267 8.31636 30.6533 8.31636 29.3267C8.31636 28 7.24302 26.9267 5.91636 26.9267C4.58969 26.9267 3.51636 28 3.51636 29.3267Z" fill="white"/>
</svg>
