<svg width="39" height="20" viewBox="0 0 39 20" fill="none" xmlns="http://www.w3.org/2000/svg">
<g clip-path="url(#clip0_314_611)">
<path d="M14.3234 15.7219C13.3282 15.7219 12.5254 16.5331 12.5254 17.5199C12.5254 18.5067 13.3366 19.3179 14.3234 19.3179C15.3102 19.3179 16.1213 18.5067 16.1213 17.5199C16.1213 16.5331 15.3102 15.7219 14.3234 15.7219Z" fill="white"/>
<path d="M18.9897 15.7219C17.9946 15.7219 17.1918 16.5331 17.1918 17.5199C17.1918 18.5067 18.003 19.3179 18.9897 19.3179C19.9765 19.3179 20.7877 18.5067 20.7877 17.5199C20.7877 16.5331 19.9765 15.7219 18.9897 15.7219Z" fill="white"/>
<path d="M23.6478 15.7219C22.6526 15.7219 21.8498 16.5331 21.8498 17.5199C21.8498 18.5067 22.661 19.3179 23.6478 19.3179C24.6346 19.3179 25.4457 18.5067 25.4457 17.5199C25.4457 16.5331 24.6346 15.7219 23.6478 15.7219Z" fill="white"/>
<path d="M28.3142 15.7219C27.319 15.7219 26.5162 16.5331 26.5162 17.5199C26.5162 18.5067 27.3274 19.3179 28.3142 19.3179C29.3009 19.3179 30.1121 18.5067 30.1121 17.5199C30.1121 16.5331 29.3009 15.7219 28.3142 15.7219Z" fill="white"/>
<path d="M37.304 12.0674H35.414C35.2886 12.0674 35.205 12.1176 35.1882 12.151L35.6064 13.7148C35.6064 13.7148 35.69 13.7901 35.8154 13.7901H37.3124C37.9646 13.7901 38.5166 13.4221 38.5166 12.9873V12.8786C38.5166 12.4437 37.9646 12.0757 37.3124 12.0757L37.304 12.0674Z" fill="white"/>
<path d="M37.304 14.3754H35.8071C35.3806 14.3754 35.0377 14.1078 35.0043 13.7566L34.5778 12.1593C34.5778 11.7746 34.9457 11.4736 35.4057 11.4736H36.7939C36.6517 11.1725 36.5012 10.8882 36.3507 10.6373C33.683 6.42254 29.5685 0 21.8331 0C12.5505 0 16.6231 0.025088 9.07162 0.025088C1.81282 0.025088 6.95586 0.0334507 2.02188 0.0334507C1.20234 0.0334507 0.550052 0.685739 0.516602 1.48856H5.47567C6.14468 1.48856 6.85551 2.03213 7.06458 2.70114L8.30225 7.24208C8.51132 7.91109 8.135 8.45467 7.46599 8.45467H0.516602V12.4604H31.7596C32.4118 12.4604 33.1143 12.5775 33.3234 12.728L33.8837 13.121C34.0928 13.2632 33.7332 13.3886 33.0725 13.3886H0.516602V16.9762C0.516602 17.8125 1.19398 18.4899 2.03025 18.4899H10.5769C10.9867 16.3239 12.4167 14.7183 14.1143 14.7183H28.5985C30.3045 14.7183 31.7345 16.3239 32.1359 18.4899H32.1526C36.3089 18.4899 37.5047 16.4745 37.4796 14.3671C37.4127 14.3671 37.3542 14.3838 37.2873 14.3838L37.304 14.3754ZM19.0483 8.45467H11.8062C11.1372 8.45467 10.4264 7.91109 10.2173 7.24208L8.87092 2.70114C8.66185 2.03213 9.03817 1.48856 9.70718 1.48856H17.0663C17.7354 1.48856 18.4462 2.03213 18.6552 2.70114L19.8929 7.24208C20.102 7.91109 19.7257 8.45467 19.0567 8.45467H19.0483ZM31.032 8.43794H23.1627C22.4937 8.43794 21.7829 7.73548 21.5738 6.86576L20.5118 3.06074C20.3027 2.19102 20.6539 1.48856 21.348 1.48856C21.348 1.48856 25.036 1.21259 27.7037 3.06074C29.2257 4.11444 29.6773 4.44058 31.0404 5.95423C32.5206 7.60167 31.6927 8.43794 31.0236 8.43794H31.032Z" fill="white"/>
</g>
<defs>
<clipPath id="clip0_314_611">
<rect width="38" height="19.3261" fill="white" transform="translate(0.516602)"/>
</clipPath>
</defs>
</svg>
