<svg width="33" height="28" viewBox="0 0 33 28" fill="none" xmlns="http://www.w3.org/2000/svg">
<path d="M2.90967 15.8873V13.5386H0.516399V15.8873H2.90967Z" fill="white"/>
<path d="M7.21871 13.5195H4.82544V15.9128H7.21871V13.5195Z" fill="white"/>
<path d="M11.5279 13.5195H9.13464V15.9128H11.5279V13.5195Z" fill="white"/>
<path d="M15.8371 13.5195H13.4438V15.9128H15.8371V13.5195Z" fill="white"/>
<path d="M32.5391 14.3534L28.9237 11.2154C28.5546 10.8908 27.9753 11.1581 27.9753 11.6483V13.5132H22.5459V6.07244C22.5459 3.38002 20.2927 1.19043 17.5175 1.19043H17.0847C17.212 1.56597 17.282 1.96697 17.282 2.38706C17.282 2.80716 17.212 3.20816 17.0847 3.5837H17.5175C18.9687 3.5837 20.1527 4.69759 20.1527 6.07244V23.1181C20.1527 24.493 18.9687 25.6069 17.5175 25.6069H9.86032C8.40908 25.6069 7.22518 24.493 7.22518 23.1181V18.9617H4.83191V23.1181C4.83191 25.8106 7.08515 28.0001 9.86032 28.0001H17.5175C20.2863 28.0001 22.5459 25.8106 22.5459 23.1181V15.9065H27.9753V17.9179C27.9753 18.408 28.5546 18.6753 28.9237 18.3507L32.5391 15.2127C32.8064 14.9836 32.8064 14.5762 32.5391 14.347V14.3534Z" fill="white"/>
<path d="M7.21873 6.07879C7.21873 4.72303 8.37717 3.61551 9.80931 3.59005C9.68201 3.21451 9.61199 2.80714 9.61199 2.39341C9.61199 1.97968 9.68201 1.57232 9.80295 1.19678C7.05323 1.22224 4.81909 3.39909 4.81909 6.07879V10.7189H7.21236V6.07879H7.21873Z" fill="white"/>
<path d="M13.4439 4.78654C14.7657 4.78654 15.8372 3.71504 15.8372 2.39327C15.8372 1.0715 14.7657 0 13.4439 0C12.1222 0 11.0507 1.0715 11.0507 2.39327C11.0507 3.71504 12.1222 4.78654 13.4439 4.78654Z" fill="white"/>
</svg>
