<svg viewBox="0 0 37.37 30.06" xmlns="http://www.w3.org/2000/svg"><g fill="#fff"><path d="m37.06 11.82c.26 1.49.35 2.65.3 3.88-.04.88-.22 1.95-.35 2.67-.22 1.2-.57 2.42-1.05 3.64-.77 1.94-1.92 3.76-3.53 5.54-.01.01-.02.02-.03.03 0 0-.01-.01-.02-.02-.11-.11-.22-.21-.33-.32-.11-.1-.21-.2-.31-.3-.52-.52-1.04-1.04-1.55-1.56-.03-.03-.05-.05-.06-.06.86-.79 1.51-1.73 2.02-2.54 1.08-1.71 1.81-3.57 2.16-5.52.2-1.11.18-2.23.15-3.38-.04-1.15-.26-2.36-.68-3.58-.7-2.07-1.9-3.99-3.56-5.69-.04-.04-.06-.07-.08-.09.01-.01.03-.02.04-.04.46-.38.91-.77 1.37-1.16.26-.22.53-.45.79-.67 0 0 .01 0 .02-.01 0 0 0 0 .01.01 1.06 1.06 1.97 2.27 2.71 3.58.97 1.74 1.64 3.62 1.98 5.58z"/><path d="m27.59 6.79.17.18c.22.23.42.45.6.69.63.85 1.15 1.81 1.59 2.94.5 1.29.83 2.33.75 4.91-.09 2.05-.77 4.03-2.07 6.04-.26.4-.58.75-.92 1.12l-.12.13c-.72-.72-1.46-1.47-2.22-2.21-.02-.02-.03-.03-.04-.05.01-.01.03-.03.06-.06.43-.39.75-.86 1.03-1.31 1.24-1.96 1.61-4.09 1.12-6.33-.32-1.46-1.03-2.73-2.1-3.77-.03-.03-.05-.05-.06-.07.56-.55 1.11-1.11 1.66-1.66l.54-.54z"/><path d="m.31 18.4c-.26-1.49-.35-2.65-.3-3.88.04-.88.22-1.95.35-2.67.22-1.2.57-2.42 1.05-3.64.77-1.94 1.92-3.76 3.53-5.54.01-.01.02-.02.03-.03 0 0 .01.01.02.02.11.11.22.21.33.32.11.1.21.2.31.3.52.52 1.04 1.04 1.55 1.56l.06.06c-.86.79-1.51 1.73-2.02 2.54-1.08 1.71-1.81 3.57-2.16 5.52-.2 1.11-.18 2.23-.15 3.38.04 1.15.26 2.36.68 3.58.7 2.07 1.9 3.99 3.56 5.69.04.04.06.07.08.09-.01.01-.03.02-.04.04-.46.38-.91.77-1.37 1.16-.26.22-.53.45-.79.67 0 0-.01 0-.02.01 0 0 0 0-.01-.01-1.06-1.06-1.97-2.27-2.71-3.58-.97-1.74-1.64-3.62-1.98-5.58z"/><path d="m9.79 23.43-.17-.18c-.22-.23-.42-.45-.6-.69-.63-.85-1.15-1.81-1.59-2.94-.5-1.29-.83-2.33-.75-4.91.09-2.05.77-4.03 2.07-6.04.26-.4.58-.75.92-1.12l.12-.13c.72.72 1.46 1.47 2.22 2.21.02.02.03.03.04.05-.01.01-.03.03-.06.06-.43.39-.75.86-1.03 1.31-1.24 1.96-1.61 4.09-1.12 6.33.32 1.46 1.03 2.73 2.1 3.77.03.03.05.05.06.07-.56.55-1.11 1.11-1.66 1.66l-.54.54z"/><path d="m16.26 0h5v30.06h-5z"/></g></svg>